<?xml version="1.0" encoding="UTF-8" standalone="no"?>
<!DOCTYPE svg PUBLIC "-//W3C//DTD SVG 1.1//EN" "http://www.w3.org/Graphics/SVG/1.1/DTD/svg11.dtd">
<svg width="514.29" height="514.29" viewBox="0.00 0.00 2500.00 2500.00" xmlns="http://www.w3.org/2000/svg" xmlns:xlink="http://www.w3.org/1999/xlink">
<g stroke-linecap="round" id="Ericiosa_logo_1">
<path d="M1278.43,1316.23 C1279.74,1316.55 1282.60,1318.46 1283.54,1319.64 C1285.47,1322.17 1286.71,1328.57 1286.44,1331.97 C1286.16,1334.80 1283.98,1340.66 1282.70,1342.43 C1281.53,1344.00 1278.72,1346.62 1277.28,1347.36 C1275.92,1348.02 1272.52,1348.51 1271.19,1348.24 C1269.88,1347.92 1267.02,1346.01 1266.08,1344.83 C1264.15,1342.30 1262.91,1335.90 1263.19,1332.50 C1263.46,1329.67 1265.64,1323.81 1266.92,1322.04 C1268.09,1320.47 1270.91,1317.85 1272.34,1317.11 C1273.70,1316.45 1277.10,1315.96 1278.43,1316.23 Z" fill="none" stroke="rgb(134, 182, 184)" stroke-width="1782.81" stroke-opacity="1.00" stroke-linejoin="round"/>
<path d="M1263.33,288.85 C1278.81,289.08 1309.96,290.25 1325.64,291.19 C1341.35,292.37 1372.50,295.39 1387.93,297.24 C1399.87,298.81 1433.87,304.68 1449.23,307.71 C1464.63,310.97 1495.23,318.17 1510.34,322.09 C1530.25,327.56 1554.93,335.44 1569.72,340.47 C1584.50,345.76 1613.97,357.02 1628.49,362.95 C1642.86,369.06 1664.57,378.77 1685.05,388.96 C1698.97,396.15 1726.69,411.26 1740.38,419.11 C1753.89,427.12 1780.35,443.63 1793.25,452.36 C1806.10,461.32 1831.55,479.95 1844.14,489.60 C1856.54,499.39 1886.34,524.07 1892.50,529.60 C1904.02,540.17 1926.76,561.96 1937.98,573.20 C1949.05,584.61 1970.54,607.77 1980.96,619.49 C1987.82,627.39 2010.75,655.96 2020.38,668.56 C2029.88,681.36 2048.27,707.27 2057.12,720.33 C2067.64,736.36 2082.06,760.32 2089.95,774.05 C2097.69,787.96 2112.62,816.19 2119.73,830.37 C2126.61,844.60 2139.46,873.30 2145.50,887.91 C2151.36,902.68 2162.51,932.67 2167.76,947.74 C2172.76,962.82 2181.07,989.61 2186.07,1008.22 C2189.96,1023.59 2197.13,1054.73 2200.39,1070.43 C2203.41,1086.10 2209.58,1122.48 2210.94,1132.94 C2212.81,1148.64 2215.89,1180.35 2217.10,1196.36 C2218.08,1212.36 2219.34,1244.16 2219.63,1259.95 C2219.70,1268.32 2218.48,1307.45 2217.62,1323.41 C2216.52,1339.44 2213.66,1371.25 2211.91,1387.00 C2209.93,1402.65 2204.84,1433.85 2201.93,1449.51 C2198.79,1465.19 2191.83,1496.45 2188.04,1511.89 C2182.19,1534.34 2175.17,1557.43 2170.29,1572.50 C2165.17,1587.57 2154.22,1617.65 2148.46,1632.51 C2142.51,1647.19 2132.18,1671.37 2123.20,1690.30 C2116.21,1704.50 2101.50,1732.80 2093.84,1746.80 C2086.02,1760.62 2068.11,1790.67 2061.46,1800.91 C2052.72,1814.01 2034.57,1839.99 2025.15,1852.87 C2015.58,1865.56 1996.05,1890.34 1986.08,1902.41 C1975.78,1914.18 1954.51,1937.42 1943.54,1948.89 C1932.38,1960.22 1909.74,1982.25 1898.27,1992.92 C1889.29,2001.09 1862.67,2023.45 1850.37,2033.31 C1837.86,2043.03 1812.48,2061.89 1799.67,2070.97 C1782.58,2082.73 1760.57,2096.59 1747.16,2104.69 C1733.56,2112.62 1705.91,2127.94 1692.01,2135.26 C1678.07,2142.32 1656.66,2152.70 1635.70,2161.80 C1621.25,2167.82 1591.89,2179.29 1577.11,2184.69 C1562.33,2189.85 1532.76,2199.43 1517.84,2203.66 C1502.80,2207.67 1472.33,2215.08 1456.93,2218.47 C1441.55,2221.61 1403.74,2228.41 1395.60,2229.53 C1380.23,2231.49 1349.18,2234.74 1333.50,2236.03 C1317.79,2237.09 1286.57,2238.49 1271.06,2238.84 C1260.71,2238.96 1224.52,2237.91 1208.87,2237.09 C1193.16,2236.03 1161.91,2233.23 1146.44,2231.49 C1127.66,2229.10 1100.46,2224.52 1085.12,2221.61 C1069.74,2218.47 1039.04,2211.48 1023.86,2207.67 C1008.82,2203.66 979.12,2194.77 964.34,2189.85 C949.56,2184.69 920.02,2173.65 905.42,2167.82 C890.97,2161.80 865.66,2150.66 848.59,2142.32 C834.66,2135.26 806.88,2120.39 793.10,2112.62 C779.51,2104.69 748.51,2085.62 739.86,2079.82 C726.99,2070.97 701.48,2052.58 688.82,2043.03 C676.32,2033.31 651.92,2013.46 640.03,2003.33 C633.77,1997.91 605.57,1971.35 594.28,1960.22 C583.12,1948.89 561.41,1925.86 550.89,1914.18 C540.58,1902.41 520.79,1878.05 511.09,1865.56 C501.52,1852.87 482.90,1827.04 473.94,1814.01 C461.13,1794.77 448.62,1774.25 440.64,1760.62 C432.82,1746.80 417.69,1718.67 410.46,1704.50 C403.47,1690.30 392.31,1666.50 384.16,1647.19 C378.21,1632.51 366.86,1602.64 361.50,1587.57 C356.38,1572.50 345.84,1539.02 342.61,1527.19 C338.62,1511.89 331.26,1480.88 327.88,1465.19 C324.73,1449.51 319.16,1418.23 316.74,1402.65 C314.76,1387.00 311.46,1355.39 310.14,1339.44 C309.05,1323.41 307.55,1291.55 307.15,1275.72 C306.98,1263.44 307.84,1228.29 308.59,1212.36 C309.68,1196.36 312.20,1164.45 313.85,1148.64 C316.34,1127.78 320.47,1101.74 323.25,1086.10 C326.28,1070.43 333.02,1039.09 336.71,1023.59 C340.59,1008.22 346.93,984.93 353.91,962.82 C358.91,947.74 369.63,917.61 375.30,902.68 C381.16,887.91 393.42,858.85 400.06,844.60 C406.93,830.37 421.40,802.04 428.97,787.96 C436.71,774.05 456.43,740.46 460.93,733.46 C469.55,720.33 487.47,694.28 496.78,681.36 C506.29,668.56 525.69,643.58 535.58,631.40 C542.28,623.35 566.76,596.13 577.61,584.61 C588.68,573.20 611.24,550.95 622.67,540.17 C636.74,527.27 657.94,509.31 670.14,499.39 C682.54,489.60 707.83,470.51 720.59,461.32 C733.42,452.36 759.45,435.29 772.78,427.12 C786.28,419.11 813.81,403.58 827.70,396.15 C841.62,388.96 866.45,376.75 883.81,369.06 C898.17,362.95 927.38,351.28 942.17,345.76 C956.95,340.47 991.38,329.07 1001.35,326.21 C1016.33,322.09 1046.67,314.47 1062.04,310.97 C1077.43,307.71 1108.12,301.90 1123.42,299.37 C1131.53,298.10 1169.69,293.77 1185.31,292.37 C1216.77,290.02 1255.60,288.97 1263.33,288.85 Z" fill="none" stroke="rgb(134, 182, 184)" stroke-width="303.94" stroke-opacity="1.00" stroke-linejoin="round"/>
<path d="M1257.77,86.84 C1273.37,87.15 1304.68,88.18 1320.39,88.89 C1336.19,90.00 1367.69,92.59 1383.38,94.09 C1398.91,95.95 1424.55,99.20 1445.22,102.67 C1460.66,105.56 1491.59,111.75 1507.08,115.05 C1522.46,118.72 1553.01,126.42 1568.17,130.44 C1583.16,134.73 1612.92,144.43 1627.80,149.43 C1642.68,154.85 1672.34,166.07 1687.11,171.87 C1701.63,177.98 1735.36,192.62 1744.61,197.06 C1758.65,204.08 1786.69,218.52 1800.70,225.95 C1814.58,233.77 1842.05,249.68 1855.64,257.77 C1868.93,266.14 1895.17,283.41 1908.13,292.30 C1920.97,301.59 1946.52,320.57 1959.23,330.24 C1971.65,340.18 1996.14,360.28 2008.21,370.44 C2015.99,377.21 2043.01,402.54 2054.48,413.51 C2065.77,424.86 2088.05,447.81 2099.05,459.41 C2109.68,471.19 2130.66,494.87 2140.70,507.05 C2150.58,519.50 2170.10,544.73 2179.76,557.53 C2189.13,570.58 2207.48,596.81 2216.46,610.00 C2228.12,627.81 2241.67,650.34 2249.78,664.02 C2257.62,678.01 2273.01,706.25 2280.56,720.51 C2287.72,734.84 2301.64,763.57 2308.39,777.96 C2314.46,792.27 2326.28,821.15 2332.05,835.71 C2337.52,850.53 2348.10,880.22 2353.21,895.09 C2357.92,909.97 2366.11,936.38 2371.07,954.76 C2374.88,969.94 2382.16,1000.51 2385.64,1015.90 C2388.77,1031.39 2394.65,1062.31 2397.40,1077.75 C2400.70,1098.44 2403.81,1124.05 2405.59,1139.57 C2407.03,1155.25 2409.55,1186.73 2410.63,1202.53 C2411.34,1218.25 2412.39,1249.58 2412.74,1265.18 C2412.80,1273.07 2411.68,1312.03 2411.06,1327.72 C2410.07,1343.52 2407.73,1375.04 2406.38,1390.76 C2404.68,1406.32 2401.01,1437.31 2398.65,1452.69 C2396.00,1468.11 2390.31,1499.01 2387.28,1514.48 C2383.88,1529.92 2376.76,1560.59 2373.04,1575.83 C2367.12,1598.31 2360.26,1620.73 2355.64,1635.61 C2350.63,1650.48 2340.23,1680.21 2334.85,1695.06 C2329.15,1709.69 2317.47,1738.70 2311.48,1753.07 C2307.40,1762.46 2291.28,1796.12 2284.22,1810.49 C2276.76,1824.78 2261.52,1853.13 2253.75,1867.20 C2245.70,1880.96 2229.42,1908.24 2220.83,1921.53 C2211.94,1934.73 2193.78,1961.02 2184.51,1974.11 C2174.91,1986.99 2155.50,2012.40 2145.68,2024.93 C2132.28,2041.40 2114.97,2061.05 2104.44,2072.87 C2093.53,2084.51 2071.39,2107.59 2060.15,2119.02 C2048.73,2130.09 2025.73,2151.85 2014.14,2162.54 C2002.15,2172.76 1977.83,2192.97 1965.51,2202.97 C1952.85,2212.72 1927.39,2231.87 1914.57,2241.26 C1901.65,2250.26 1880.18,2264.99 1862.34,2276.23 C1848.83,2284.39 1821.49,2300.45 1807.67,2308.34 C1793.68,2315.87 1765.67,2330.53 1751.64,2337.65 C1737.56,2344.46 1708.87,2357.08 1694.42,2363.27 C1679.71,2369.15 1650.12,2380.55 1635.24,2386.07 C1620.36,2391.18 1585.51,2402.73 1575.68,2405.57 C1560.57,2409.68 1530.14,2417.56 1514.82,2421.32 C1499.33,2424.72 1468.38,2431.11 1452.93,2434.10 C1437.54,2436.68 1406.66,2441.23 1391.17,2443.19 C1375.52,2444.77 1344.08,2447.56 1328.28,2448.77 C1312.54,2449.58 1281.17,2450.80 1265.55,2451.21 C1255.34,2451.32 1218.71,2450.29 1203.03,2449.68 C1187.23,2448.67 1155.71,2446.26 1139.97,2444.87 C1124.41,2443.09 1093.40,2439.26 1078.02,2436.78 C1062.59,2434.00 1031.69,2428.01 1016.21,2424.81 C1000.78,2421.23 970.13,2413.71 954.91,2409.77 C934.70,2404.13 910.05,2396.19 895.17,2391.28 C880.30,2385.97 850.59,2374.94 835.76,2369.23 C821.18,2363.19 792.29,2350.81 777.97,2344.46 C763.91,2337.55 735.85,2323.30 721.85,2315.97 C707.92,2308.25 680.32,2292.49 666.65,2284.46 C653.29,2276.16 631.28,2262.30 613.88,2250.36 C601.01,2241.16 575.37,2222.38 562.62,2212.79 C550.12,2202.91 525.46,2182.92 513.30,2172.82 C501.40,2162.54 478.27,2141.06 466.76,2130.18 C455.43,2118.93 433.01,2096.11 421.92,2084.56 C411.20,2072.83 386.45,2045.17 379.84,2037.20 C369.91,2024.84 350.28,1999.78 340.57,1987.07 C331.11,1974.06 312.58,1947.91 303.50,1934.76 C294.81,1921.50 277.94,1894.64 269.77,1881.04 C261.86,1867.12 246.31,1839.00 238.68,1824.80 C231.42,1810.48 217.31,1781.76 210.45,1767.38 C206.15,1758.00 192.16,1724.26 186.31,1709.75 C180.77,1694.99 170.02,1665.36 164.81,1650.48 C160.00,1635.61 149.64,1602.53 146.47,1590.90 C142.58,1575.77 135.13,1545.31 131.57,1529.97 C128.35,1514.48 122.29,1483.54 119.44,1468.10 C116.99,1452.71 112.65,1421.84 110.77,1406.36 C109.25,1390.72 106.55,1359.29 105.38,1343.50 C104.58,1327.75 103.34,1296.37 102.90,1280.74 C102.75,1268.67 103.58,1233.94 104.10,1218.28 C105.00,1202.51 107.16,1170.97 108.42,1155.21 C110.03,1139.61 114.17,1103.20 115.68,1093.14 C118.24,1077.73 123.73,1046.87 126.67,1031.41 C129.98,1015.93 136.94,985.17 140.58,969.89 C144.55,954.81 150.62,932.15 157.52,909.97 C162.43,895.09 172.64,865.35 177.94,850.48 C183.56,835.78 195.09,806.64 201.01,792.21 C207.14,777.96 220.76,749.19 227.72,734.83 C235.08,720.52 250.14,692.08 257.85,677.93 C265.83,664.10 284.78,632.00 290.39,623.27 C299.18,610.03 317.14,583.67 326.32,570.55 C335.85,557.60 355.14,532.03 364.91,519.41 C374.89,507.14 395.32,483.01 405.77,471.14 C416.58,459.46 438.56,436.27 449.73,424.77 C461.11,413.61 484.03,391.66 495.57,380.87 C503.22,373.95 531.56,350.17 543.80,340.12 C556.39,330.30 581.75,310.99 594.54,301.49 C607.46,292.40 633.34,274.51 646.55,266.08 C659.99,257.84 687.18,241.65 700.92,233.69 C714.88,226.06 742.85,211.20 756.87,203.97 C775.75,194.69 799.46,184.17 813.84,177.90 C828.49,171.95 858.00,160.37 872.86,154.75 C887.73,149.54 917.49,139.53 932.37,134.73 C947.43,130.53 977.75,122.48 993.02,118.64 C1008.49,115.14 1039.43,108.55 1054.89,105.46 C1070.30,102.77 1095.80,98.49 1116.59,95.86 C1132.20,94.18 1163.58,91.20 1179.35,89.90 C1210.89,88.08 1249.98,86.95 1257.77,86.84 Z" fill="none" stroke="rgb(134, 182, 184)" stroke-width="21.38" stroke-opacity="1.00" stroke-linejoin="round"/>
<path d="M491.50,556.50 C490.50,557.48 480.12,568.32 480.67,570.23" fill="none" stroke="rgb(255, 255, 255)" stroke-width="24.80" stroke-opacity="1.00" stroke-linejoin="round"/>
<path d="M456.44,599.41 C456.15,599.74 444.68,612.66 444.72,613.62" fill="none" stroke="rgb(255, 255, 255)" stroke-width="24.80" stroke-opacity="1.00" stroke-linejoin="round"/>
<path d="M423.50,645.52 C422.34,646.37 417.06,653.90 416.40,654.58" fill="none" stroke="rgb(255, 255, 255)" stroke-width="24.80" stroke-opacity="1.00" stroke-linejoin="round"/>
<path d="M389.80,695.29 C389.82,696.20 386.34,696.53 379.39,709.77" fill="none" stroke="rgb(255, 255, 255)" stroke-width="24.80" stroke-opacity="1.00" stroke-linejoin="round"/>
<path d="M362.50,742.96 C361.42,742.98 359.66,746.32 358.50,747.52 C357.83,748.22 352.74,757.62 351.50,758.52" fill="none" stroke="rgb(255, 255, 255)" stroke-width="24.80" stroke-opacity="1.00" stroke-linejoin="round"/>
<path d="M329.86,798.96 C328.93,799.84 321.09,817.86 319.97,818.07" fill="none" stroke="rgb(255, 255, 255)" stroke-width="24.80" stroke-opacity="1.00" stroke-linejoin="round"/>
<path d="M306.50,856.52 C306.20,856.71 301.80,865.33 301.50,865.52" fill="none" stroke="rgb(255, 255, 255)" stroke-width="24.80" stroke-opacity="1.00" stroke-linejoin="round"/>
<path d="M284.70,904.55 C284.70,904.55 277.50,922.52 277.50,922.52" fill="none" stroke="rgb(255, 255, 255)" stroke-width="24.80" stroke-opacity="1.00" stroke-linejoin="round"/>
<path d="M264.78,969.94 C264.78,969.94 258.33,991.54 258.33,991.54" fill="none" stroke="rgb(255, 255, 255)" stroke-width="24.80" stroke-opacity="1.00" stroke-linejoin="round"/>
<path d="M249.50,1029.52 C248.03,1032.95 246.32,1043.09 246.50,1043.52" fill="none" stroke="rgb(255, 255, 255)" stroke-width="24.80" stroke-opacity="1.00" stroke-linejoin="round"/>
<path d="M1634.50,394.23 C1643.03,394.96 1661.78,398.28 1666.93,400.37 C1670.36,401.79 1676.49,405.74 1678.99,408.13 C1681.44,410.53 1685.71,416.64 1687.39,420.17 C1689.34,424.35 1695.55,446.72 1695.85,448.50 C1696.68,453.61 1696.71,462.39 1695.86,464.90 C1695.38,466.22 1693.92,468.16 1692.98,468.81 C1691.62,469.66 1687.37,470.04 1684.25,469.53 C1678.41,468.57 1658.60,468.50 1651.25,468.58 C1632.90,469.23 1588.12,470.83 1586.53,470.73 C1585.25,470.62 1581.58,469.83 1580.72,469.36 C1578.59,468.09 1577.29,463.01 1576.86,457.79 C1576.12,446.35 1576.68,399.42 1576.91,398.79 C1577.54,397.24 1580.45,394.98 1582.54,394.35 C1584.62,393.76 1625.90,393.51 1634.50,394.23 Z" fill="none" stroke="rgb(255, 255, 255)" stroke-width="24.80" stroke-opacity="1.00" stroke-linejoin="round"/>
<path d="M1149.52,863.52 C1136.84,863.55 1104.64,863.62 1085.13,863.66 C1068.49,863.63 1023.27,862.95 1021.93,863.00 C1019.33,863.14 1016.97,864.32 1016.46,865.18 C1016.01,865.98 1015.66,868.85 1014.52,871.52 C1013.60,873.68 1010.29,879.01 1008.17,881.58 C1003.67,886.97 992.60,896.00 982.76,903.02 C980.37,904.73 972.64,907.55 964.89,909.24 C957.08,910.83 945.13,911.79 934.75,912.02 C925.00,912.07 911.11,911.13 904.42,909.76 C896.50,908.13 882.15,902.27 876.52,898.52 C870.17,894.24 856.80,880.49 853.52,876.52 C851.53,874.09 847.57,868.39 846.47,866.07 C843.30,859.25 835.23,827.77 834.52,822.52 C833.83,817.26 833.88,811.76 834.35,807.06 C834.65,803.58 833.92,798.85 834.52,798.52 C834.52,798.52 918.21,797.77 954.67,797.58 C988.84,797.54 1061.97,797.63 1100.92,797.76 C1132.23,797.97 1162.52,797.52 1162.52,797.52 C1163.27,797.14 1163.72,796.55 1163.89,795.77 C1164.06,794.86 1163.54,787.56 1163.77,784.38 C1164.51,777.13 1165.97,761.41 1165.52,751.52 C1165.26,746.18 1162.98,727.95 1161.60,719.37 C1160.23,711.73 1157.02,694.86 1155.39,688.58 C1153.88,682.85 1147.78,666.09 1146.14,662.21 C1143.03,655.16 1136.17,639.98 1132.52,633.52 C1129.91,628.92 1119.30,612.95 1115.26,607.59 C1110.55,601.46 1100.33,589.88 1095.17,584.86 C1089.41,579.29 1079.14,570.95 1071.51,565.51 C1064.99,561.08 1049.90,551.65 1045.53,549.36 C1039.52,546.22 1021.62,538.54 1018.08,537.12 C1009.78,533.83 1001.72,531.50 992.06,529.39 C984.26,527.86 966.07,524.54 961.73,524.00 C953.27,523.01 940.64,522.30 933.52,522.50 C929.48,522.63 910.67,524.35 902.91,525.36 C895.22,526.50 880.17,529.73 872.84,531.87 C864.55,534.32 850.89,539.63 843.49,542.76 C836.03,546.09 822.77,552.88 815.54,557.47 C809.08,561.59 795.73,571.49 790.76,575.91 C785.25,580.88 774.34,591.85 769.26,597.25 C764.29,602.71 754.81,614.73 751.17,620.17 C746.76,626.80 741.06,637.19 736.54,646.30 C733.41,652.86 727.03,667.03 724.31,674.73 C721.37,683.10 717.54,698.16 715.88,706.37 C714.20,715.33 708.26,757.74 707.77,767.67 C707.51,773.57 708.48,786.53 709.78,796.64 C710.98,804.65 713.57,820.93 714.97,829.20 C716.96,839.95 719.77,852.67 721.90,858.71 C725.07,867.57 741.35,902.58 746.71,911.90 C750.61,918.66 759.90,931.02 764.87,937.25 C770.14,943.69 780.83,955.02 787.39,960.81 C791.19,964.15 808.07,977.27 811.71,979.66 C817.73,983.59 833.39,992.01 836.52,993.52 C839.13,994.77 857.44,1002.63 863.91,1004.81 C870.71,1007.09 886.51,1011.07 894.26,1012.80 C904.01,1014.85 919.26,1017.09 926.52,1017.52 C933.85,1017.93 948.41,1017.39 957.58,1016.40 C964.92,1015.51 979.03,1013.48 986.51,1011.90 C994.04,1010.25 1008.05,1006.10 1015.03,1003.77 C1018.96,1002.40 1037.75,994.34 1041.22,992.61 C1047.79,989.33 1059.95,981.68 1067.78,975.79 C1072.86,971.85 1087.17,959.75 1092.96,954.59 C1100.44,947.67 1109.94,937.86 1113.80,932.70 C1118.00,927.05 1124.35,916.46 1129.81,906.53 C1141.24,884.67 1145.14,875.83 1148.68,865.35 C1149.52,862.98 1147.32,867.19 1148.61,866.65" fill="none" stroke="rgb(255, 255, 255)" stroke-width="24.80" stroke-opacity="1.00" stroke-linejoin="round"/>
<path d="M1498.52,526.50 C1501.66,526.23 1503.97,526.51 1504.52,527.50 C1504.80,528.05 1504.84,621.92 1504.68,656.93 C1504.64,659.76 1504.52,667.52 1504.52,667.52 C1504.03,668.74 1500.37,668.51 1495.77,668.29 C1488.96,667.99 1473.49,667.36 1464.90,667.23 C1454.96,667.30 1440.20,668.25 1432.06,669.48 C1422.73,670.90 1409.91,674.69 1403.81,678.17 C1400.65,680.02 1394.52,684.89 1391.71,687.93 C1387.15,692.93 1377.80,709.35 1375.99,714.43 C1374.36,719.14 1373.07,726.66 1372.97,731.67 C1372.90,735.41 1372.52,742.04 1372.32,745.51 C1372.18,747.41 1370.40,760.89 1370.00,769.83 C1369.56,782.72 1369.33,863.05 1369.25,898.98 C1369.27,934.99 1369.49,1004.74 1369.78,1006.98 C1370.06,1009.40 1369.67,1011.01 1368.52,1011.52 C1367.21,1012.04 1259.31,1011.56 1258.91,1011.58 C1256.77,1011.62 1255.76,1011.20 1255.53,1009.99 C1255.53,1009.99 1255.98,931.03 1256.15,897.97 C1256.35,856.78 1256.86,780.68 1257.16,745.78 C1257.35,731.70 1257.93,695.12 1257.98,693.95 C1258.50,682.85 1260.59,664.52 1262.03,658.45 C1263.47,652.76 1267.65,638.81 1269.04,635.51 C1271.74,629.28 1278.86,614.35 1281.90,609.68 C1286.73,602.34 1295.45,592.98 1302.43,587.00 C1307.35,582.77 1321.47,572.20 1328.30,567.62 C1335.16,563.18 1347.32,556.14 1356.18,551.90 C1364.27,548.18 1375.32,543.83 1385.18,540.44 C1393.84,537.71 1406.80,534.25 1414.54,532.72 C1426.07,530.53 1462.68,527.42 1475.77,527.02 C1483.28,526.91 1497.82,526.57 1498.52,526.50 Z" fill="none" stroke="rgb(255, 255, 255)" stroke-width="24.80" stroke-opacity="1.00" stroke-linejoin="round"/>
<path d="M1585.52,530.50 C1586.83,529.98 1694.74,530.46 1695.13,530.44 C1697.27,530.41 1698.28,530.82 1698.51,532.04 C1698.51,532.04 1698.51,604.49 1698.52,633.22 C1698.55,668.90 1698.61,746.95 1698.65,789.33 C1698.68,829.32 1698.70,902.33 1698.69,935.33 C1698.64,961.36 1698.51,1007.75 1698.53,1008.17 C1698.61,1010.27 1698.22,1011.29 1697.01,1011.52 C1697.01,1011.52 1653.31,1011.44 1634.20,1011.45 C1618.99,1011.48 1587.81,1011.83 1587.14,1011.75 C1585.83,1011.58 1584.96,1011.17 1584.52,1010.52 C1584.52,1010.52 1584.14,936.66 1584.07,907.07 C1584.07,870.01 1584.15,790.47 1584.23,747.99 C1584.29,710.96 1584.41,643.94 1584.46,613.96 C1584.48,601.60 1584.54,577.47 1584.59,565.70 C1584.89,543.71 1584.06,532.30 1584.06,532.30 C1584.27,531.44 1584.76,530.84 1585.52,530.50 Z" fill="none" stroke="rgb(255, 255, 255)" stroke-width="24.80" stroke-opacity="1.00" stroke-linejoin="round"/>
<path d="M916.52,626.52 C919.40,626.28 941.20,625.77 946.11,625.91 C954.84,626.17 966.80,627.99 975.43,630.84 C982.97,633.33 991.03,636.51 998.41,641.18 C1002.43,643.77 1008.47,648.36 1011.08,650.91 C1016.20,655.98 1024.63,667.24 1027.62,673.39 C1030.60,679.62 1033.47,694.03 1034.58,703.77 C1035.60,713.82 1035.65,729.09 1034.52,730.52 C1034.13,730.97 1027.71,730.51 1025.53,730.49 C996.14,730.48 926.52,730.56 886.30,730.67 C871.17,730.65 839.33,730.52 838.91,730.54 C836.76,730.61 835.82,730.24 835.60,729.02 C835.52,728.57 835.34,721.18 835.19,718.09 C835.03,711.65 838.38,695.29 840.52,688.52 C842.60,682.02 848.72,670.06 853.87,662.74 C856.60,658.88 860.44,654.18 863.37,651.11 C866.15,648.23 872.07,643.69 875.53,641.72 C880.59,638.87 897.63,630.97 902.73,629.13 C905.78,628.06 911.29,626.98 916.52,626.52 Z" fill="none" stroke="rgb(255, 255, 255)" stroke-width="24.80" stroke-opacity="1.00" stroke-linejoin="round"/>
<path d="M1290.98,1081.88 C1296.12,1082.77 1303.33,1085.19 1306.53,1087.04 C1309.44,1088.77 1314.97,1093.00 1317.50,1095.58 C1320.05,1098.22 1325.13,1104.59 1326.78,1107.59 C1328.84,1111.41 1330.61,1117.85 1330.85,1122.37 C1330.97,1124.85 1330.36,1134.96 1330.45,1138.28 C1330.52,1139.94 1331.35,1152.67 1330.66,1153.77 C1329.80,1155.04 1327.58,1155.86 1325.58,1155.87 C1325.58,1155.87 1305.47,1156.07 1297.47,1155.98 C1277.97,1155.28 1234.25,1153.90 1231.14,1153.99 C1227.89,1154.08 1223.97,1155.07 1222.73,1155.36 C1220.97,1155.75 1218.93,1155.18 1218.04,1154.03 C1216.44,1151.78 1215.85,1146.28 1215.85,1140.94 C1216.25,1125.24 1217.45,1094.98 1217.42,1093.69 C1217.29,1089.38 1216.72,1082.57 1217.29,1081.66 C1217.96,1080.66 1220.30,1079.55 1221.83,1079.36 C1223.21,1079.22 1278.86,1080.63 1284.64,1081.14 C1286.27,1081.31 1289.89,1081.70 1290.98,1081.88 Z" fill="none" stroke="rgb(255, 255, 255)" stroke-width="24.80" stroke-opacity="1.00" stroke-linejoin="round"/>
<path d="M1613.52,1062.52 C1622.66,1061.92 1658.01,1064.94 1669.01,1067.44 C1673.63,1068.50 1690.35,1073.75 1698.10,1076.43 C1706.33,1079.37 1722.25,1086.60 1728.84,1090.38 C1736.31,1094.76 1748.67,1103.09 1754.85,1107.91 C1761.14,1112.84 1773.34,1124.05 1778.22,1129.45 C1783.66,1135.49 1792.54,1147.01 1798.01,1155.07 C1802.33,1161.57 1811.46,1176.28 1813.73,1180.56 C1817.94,1188.56 1822.46,1199.33 1826.06,1209.19 C1828.49,1216.24 1832.58,1230.99 1834.55,1238.72 C1836.31,1246.20 1839.63,1260.82 1840.87,1268.22 C1842.43,1278.51 1843.52,1289.97 1843.54,1298.52 C1843.54,1308.12 1840.32,1346.26 1838.20,1358.62 C1836.41,1367.97 1833.30,1381.07 1831.46,1387.95 C1829.47,1394.92 1824.35,1409.40 1821.40,1416.16 C1818.06,1423.80 1812.87,1433.70 1807.46,1443.04 C1801.93,1452.17 1794.54,1463.32 1790.52,1468.52 C1785.98,1474.36 1777.35,1483.78 1769.53,1491.69 C1762.54,1498.56 1753.01,1506.92 1747.27,1510.99 C1742.11,1514.62 1726.31,1523.77 1722.49,1525.78 C1715.31,1529.56 1704.74,1534.16 1694.92,1537.90 C1686.24,1540.95 1672.92,1545.05 1666.51,1546.43 C1659.78,1547.86 1644.84,1549.74 1638.52,1550.52 C1627.81,1551.57 1620.48,1551.77 1611.91,1550.90 C1604.09,1549.95 1588.35,1547.54 1581.64,1546.03 C1574.71,1544.39 1562.31,1540.28 1553.89,1536.88 C1546.55,1533.80 1529.28,1526.02 1523.79,1523.24 C1516.65,1519.57 1504.66,1511.60 1498.28,1506.40 C1492.62,1501.69 1481.91,1491.18 1476.48,1485.46 C1468.49,1476.81 1464.34,1471.98 1457.99,1463.94 C1453.49,1458.11 1446.54,1446.63 1442.51,1438.65 C1439.36,1432.19 1432.67,1417.47 1429.43,1409.70 C1426.39,1401.97 1421.29,1386.94 1419.09,1378.34 C1417.30,1371.29 1414.26,1354.86 1412.97,1347.55 C1411.45,1338.24 1409.97,1326.53 1409.65,1319.21 C1409.48,1312.91 1410.06,1297.35 1410.39,1289.58 C1410.75,1281.20 1411.62,1273.10 1413.69,1262.37 C1415.33,1254.26 1418.82,1237.66 1420.63,1230.02 C1422.78,1221.33 1426.44,1210.80 1430.22,1201.56 C1435.69,1188.56 1450.96,1161.21 1458.52,1150.52 C1462.30,1145.19 1472.60,1132.57 1478.52,1126.52 C1481.02,1123.97 1496.17,1110.17 1500.82,1106.30 C1507.33,1100.97 1518.99,1093.00 1525.13,1089.59 C1531.11,1086.29 1542.14,1081.20 1551.45,1077.57 C1558.49,1075.04 1575.96,1069.45 1579.52,1068.52 C1594.87,1064.54 1612.38,1062.60 1613.52,1062.52 Z" fill="none" stroke="rgb(255, 255, 255)" stroke-width="24.80" stroke-opacity="1.00" stroke-linejoin="round"/>
<path d="M1111.52,1384.52 C1110.38,1389.69 1107.46,1402.49 1103.52,1412.52 C1102.15,1415.99 1094.37,1432.82 1090.54,1440.48 C1086.75,1447.73 1078.37,1462.62 1074.60,1468.23 C1070.76,1473.89 1058.82,1488.05 1056.52,1490.52 C1051.50,1495.88 1040.10,1506.35 1034.52,1510.52 C1031.66,1512.65 1015.48,1523.11 1009.36,1526.84 C1003.62,1530.29 990.30,1536.87 982.52,1539.52 C979.44,1540.56 959.95,1545.91 951.97,1547.86 C944.16,1549.65 928.26,1552.29 922.63,1552.58 C915.13,1552.94 900.24,1551.64 892.47,1550.54 C884.43,1549.25 867.72,1545.93 861.88,1544.23 C854.96,1542.21 836.79,1534.67 832.75,1532.78 C823.64,1528.43 815.09,1523.79 807.30,1518.58 C798.60,1512.61 788.79,1505.09 785.50,1502.21 C782.38,1499.45 769.51,1486.36 765.72,1481.91 C761.41,1476.83 750.27,1461.27 747.55,1457.04 C743.28,1450.39 735.80,1436.37 732.32,1428.20 C730.32,1423.48 723.88,1406.01 721.52,1399.52 C717.97,1388.90 715.29,1379.48 713.93,1372.63 C712.65,1365.78 710.09,1351.20 709.00,1343.43 C708.38,1338.60 707.05,1319.42 706.74,1311.60 C706.48,1301.66 706.71,1290.68 707.47,1283.83 C708.74,1273.79 715.61,1233.92 718.52,1223.54 C720.06,1218.09 724.65,1205.07 728.59,1195.31 C733.08,1184.64 738.95,1172.14 742.45,1166.14 C746.33,1159.52 754.71,1147.60 758.72,1141.97 C762.63,1136.59 772.58,1125.08 778.52,1119.52 C780.34,1117.83 796.35,1104.36 800.38,1101.41 C807.28,1096.39 819.86,1089.05 826.65,1085.54 C834.71,1081.53 848.31,1075.66 854.52,1073.52 C862.25,1070.88 877.34,1067.28 885.74,1065.94 C894.15,1064.62 907.91,1063.80 916.88,1064.03 C929.02,1064.44 938.26,1064.97 943.60,1065.58 C950.19,1066.35 964.38,1070.15 972.09,1072.41 C979.93,1074.87 994.34,1079.83 1001.89,1083.37 C1008.29,1086.39 1020.67,1093.75 1027.64,1098.90 C1034.16,1103.74 1045.66,1113.60 1051.61,1119.52 C1058.88,1127.03 1067.10,1136.30 1072.06,1143.08 C1075.71,1148.09 1083.70,1160.95 1088.34,1169.26 C1092.13,1176.28 1099.17,1191.80 1101.78,1198.92 C1104.48,1206.32 1111.23,1229.51 1111.52,1230.52" fill="none" stroke="rgb(255, 255, 255)" stroke-width="24.80" stroke-opacity="1.00" stroke-linejoin="round"/>
<path d="M1297.44,1237.34 C1302.82,1239.30 1310.43,1244.11 1312.88,1247.08 C1315.64,1250.52 1321.13,1267.59 1322.17,1273.97 C1323.56,1282.62 1323.73,1308.91 1323.33,1326.82 C1322.66,1360.17 1321.09,1429.71 1320.18,1465.91 C1319.38,1496.11 1318.33,1533.97 1317.38,1539.51 C1316.90,1542.36 1316.44,1553.37 1316.44,1553.37 C1315.80,1555.12 1313.75,1556.20 1311.65,1556.22 C1311.65,1556.22 1289.86,1556.84 1280.00,1556.78 C1270.08,1556.62 1252.54,1556.31 1244.92,1556.16 C1242.23,1556.08 1234.01,1555.32 1231.48,1554.03 C1230.21,1553.34 1228.44,1550.82 1228.03,1549.26 C1227.83,1548.42 1226.16,1463.83 1225.59,1427.20 C1225.12,1389.50 1224.29,1324.17 1223.93,1296.54 C1223.84,1276.17 1223.45,1248.07 1223.14,1240.35 C1223.11,1239.01 1221.89,1235.79 1221.64,1234.36 C1221.41,1232.97 1221.57,1232.04 1222.14,1231.56 C1222.14,1231.56 1241.78,1231.57 1250.09,1231.71 C1264.41,1232.10 1279.64,1233.30 1287.20,1234.75 C1290.24,1235.34 1296.28,1236.93 1297.44,1237.34 Z" fill="none" stroke="rgb(255, 255, 255)" stroke-width="24.80" stroke-opacity="1.00" stroke-linejoin="round"/>
<path d="M1103.81,1391.78 C1102.81,1392.58 1108.35,1391.89 1106.61,1392.38 C1099.71,1394.30 1104.28,1386.81 1101.01,1386.96 C1065.51,1388.59 996.31,1385.47 995.93,1385.46 C993.82,1385.45 992.38,1385.84 991.66,1386.86 C991.66,1386.86 982.43,1408.41 978.71,1413.86 C977.07,1416.23 972.32,1421.88 969.61,1424.35 C967.39,1426.36 960.36,1431.71 957.62,1433.28 C954.60,1435.00 948.87,1437.46 946.03,1438.32 C938.44,1440.51 927.80,1441.69 918.53,1441.78 C907.63,1441.68 893.78,1440.90 887.65,1439.67 C883.51,1438.82 877.94,1436.76 873.31,1434.79 C870.27,1433.47 864.36,1429.95 862.43,1428.37 C858.49,1425.10 845.77,1408.62 843.46,1405.06 C838.83,1397.85 833.00,1383.81 830.83,1375.37 C828.49,1365.90 826.23,1353.26 825.58,1345.40 C824.52,1330.52 823.16,1301.43 824.11,1285.41 C824.75,1277.69 826.50,1260.47 827.07,1256.51 C828.40,1247.61 831.05,1237.33 834.02,1229.92 C837.46,1221.40 844.62,1207.79 849.39,1201.72 C851.50,1199.06 857.16,1192.96 859.45,1190.59 C862.01,1187.95 867.10,1183.94 870.34,1182.17 C873.33,1180.56 880.48,1177.61 881.54,1177.21 C888.09,1174.81 903.33,1173.90 911.50,1173.94 C919.44,1174.10 935.35,1174.75 941.62,1176.04 C944.77,1176.72 951.31,1179.31 954.58,1181.17 C957.88,1183.07 964.83,1187.80 967.78,1190.23 C971.14,1193.02 976.43,1198.61 978.91,1202.09 C980.98,1205.02 985.14,1212.47 986.52,1215.52 C988.28,1219.45 990.62,1226.68 991.47,1228.71 C992.06,1230.04 993.62,1231.60 994.67,1231.71 C994.67,1231.71 1000.79,1230.49 1005.45,1230.39 C1020.73,1230.44 1052.85,1230.47 1069.67,1230.45 C1078.95,1230.22 1098.55,1229.60 1103.20,1229.76 C1105.39,1229.85 1104.30,1226.85 1107.50,1228.43 C1109.53,1229.44 1101.60,1226.47 1102.68,1227.49" fill="none" stroke="rgb(255, 255, 255)" stroke-width="24.80" stroke-opacity="1.00" stroke-linejoin="round"/>
<path d="M1609.52,1174.52 C1618.90,1173.77 1649.21,1175.34 1654.39,1176.33 C1659.01,1177.23 1673.52,1183.12 1676.94,1185.26 C1680.88,1187.76 1692.78,1200.11 1698.38,1206.28 C1704.64,1213.39 1712.09,1224.14 1714.86,1231.45 C1718.33,1240.87 1722.55,1254.31 1723.04,1256.27 C1724.72,1263.04 1725.71,1278.60 1725.95,1289.31 C1725.94,1305.96 1724.58,1347.36 1723.41,1356.38 C1722.63,1362.24 1718.49,1378.48 1717.79,1381.09 C1715.53,1389.58 1711.73,1397.80 1706.78,1406.26 C1702.22,1414.02 1693.40,1425.25 1688.03,1430.75 C1684.52,1434.25 1680.37,1437.74 1677.04,1439.54 C1673.85,1441.20 1665.73,1445.49 1664.47,1446.18 C1659.64,1448.79 1653.79,1451.00 1648.21,1451.89 C1642.61,1452.75 1628.64,1452.55 1616.75,1451.80 C1607.12,1451.01 1593.21,1448.33 1586.69,1445.87 C1583.58,1444.67 1577.88,1441.27 1575.29,1439.12 C1569.77,1434.50 1556.82,1420.07 1554.65,1417.32 C1549.55,1410.81 1542.68,1397.28 1540.11,1390.28 C1537.63,1383.45 1533.47,1368.96 1531.84,1360.74 C1528.38,1343.08 1526.50,1319.55 1526.53,1309.34 C1526.65,1300.72 1527.21,1280.37 1527.52,1276.52 C1528.27,1267.52 1531.12,1254.63 1532.52,1248.52 C1534.60,1240.06 1538.39,1228.04 1542.10,1221.71 C1545.75,1215.55 1555.15,1202.91 1559.52,1198.52 C1564.67,1193.40 1578.08,1184.22 1583.52,1181.52 C1590.31,1178.19 1602.24,1175.13 1609.52,1174.52 Z" fill="none" stroke="rgb(255, 255, 255)" stroke-width="24.80" stroke-opacity="1.00" stroke-linejoin="round"/>
<path d="M1135.52,1753.52 C1133.81,1747.77 1129.57,1733.52 1127.01,1725.57 C1123.65,1715.82 1118.48,1704.39 1114.20,1697.24 C1110.67,1691.39 1099.91,1677.78 1098.26,1675.77 C1091.80,1667.84 1084.80,1660.77 1078.25,1655.24 C1071.68,1649.72 1059.43,1641.17 1052.68,1636.72 C1045.31,1632.04 1032.50,1625.42 1024.89,1622.29 C1017.92,1619.43 1003.91,1614.84 995.72,1612.70 C988.62,1610.99 973.69,1607.91 966.12,1606.63 C958.58,1605.48 943.11,1603.97 935.27,1603.44 C928.03,1603.08 915.12,1602.52 906.34,1602.48 C900.82,1602.56 886.72,1603.46 879.63,1604.34 C872.28,1605.34 856.88,1607.76 850.66,1609.18 C843.59,1610.85 824.04,1615.62 824.04,1615.62 C816.90,1617.64 801.51,1624.58 794.61,1627.86 C783.76,1633.20 772.90,1639.03 765.61,1643.53 C758.49,1648.01 746.68,1657.71 740.82,1663.87 C735.37,1669.64 726.57,1680.85 722.33,1687.77 C718.51,1694.05 712.06,1707.45 709.32,1715.80 C708.05,1719.70 703.27,1736.96 702.66,1743.79 C702.47,1746.22 704.58,1766.75 705.52,1770.52 C706.58,1774.69 714.46,1796.59 716.28,1800.41 C718.98,1805.96 726.28,1814.61 733.56,1822.32 C739.78,1828.71 750.29,1838.06 757.28,1842.78 C762.19,1846.09 776.10,1854.04 783.65,1857.37 C787.55,1859.08 802.31,1864.84 810.19,1867.62 C824.02,1872.38 858.06,1881.09 872.59,1884.63 C889.80,1888.64 923.06,1896.57 939.12,1900.48 C955.69,1905.00 974.51,1911.79 980.23,1914.52 C983.58,1916.14 989.61,1920.41 991.88,1923.00 C994.20,1925.70 997.97,1931.87 999.33,1935.26 C1000.81,1939.04 1002.05,1945.26 1002.27,1949.50 C1002.43,1952.99 1002.01,1960.74 1001.57,1964.31 C1001.00,1968.68 999.34,1974.99 997.57,1978.32 C996.26,1980.73 991.59,1986.66 988.93,1988.80 C985.96,1991.13 979.58,1994.86 975.52,1996.54 C971.00,1998.39 955.08,2002.70 945.52,2003.54 C939.85,2004.02 922.20,2003.89 913.82,2003.57 C902.76,2002.91 890.38,2001.47 884.08,1999.62 C877.93,1997.77 866.36,1991.92 859.42,1987.40 C855.75,1984.99 850.49,1980.78 847.87,1978.13 C845.26,1975.44 840.41,1968.48 838.54,1964.54 C837.22,1961.73 833.60,1952.07 833.52,1951.54 C833.33,1950.28 833.45,1948.96 833.11,1947.74 C832.66,1946.20 831.24,1945.39 829.62,1945.39 C829.62,1945.39 736.76,1945.59 704.49,1945.52 C695.01,1945.49 687.82,1946.30 687.52,1946.54 C686.63,1947.34 686.90,1948.82 688.30,1951.65 C689.86,1954.75 691.91,1962.81 692.52,1964.54 C692.73,1965.14 702.96,1986.45 705.16,1990.54 C709.39,1998.35 718.22,2011.54 723.61,2017.80 C727.96,2022.83 740.17,2034.66 745.53,2039.06 C751.44,2043.91 763.61,2052.07 769.57,2055.78 C775.32,2059.27 790.71,2066.84 797.66,2070.19 C801.18,2071.87 817.23,2078.47 823.30,2080.47 C830.08,2082.67 844.97,2087.42 853.82,2089.49 C858.82,2090.65 875.82,2093.61 883.41,2094.72 C891.26,2095.72 909.77,2097.36 914.52,2097.54 C919.32,2097.71 937.55,2097.39 945.19,2096.94 C964.10,2095.49 990.72,2091.48 1006.45,2088.02 C1016.31,2085.65 1027.48,2082.15 1035.14,2079.11 C1046.20,2074.58 1050.57,2072.62 1060.46,2067.77 C1067.92,2064.03 1078.99,2056.83 1085.89,2051.33 C1091.57,2046.61 1105.09,2034.58 1109.55,2029.77 C1115.40,2023.42 1124.03,2011.06 1127.70,2003.52 C1130.15,1998.43 1135.84,1982.26 1137.72,1976.28 C1138.73,1972.98 1140.58,1964.62 1140.93,1961.24 C1141.54,1954.94 1139.89,1943.14 1137.20,1931.96 C1133.85,1918.63 1131.30,1910.19 1128.54,1905.09 C1126.71,1901.74 1115.94,1886.13 1112.25,1881.80 C1107.72,1876.53 1096.13,1866.11 1089.94,1861.38 C1083.61,1856.56 1070.80,1848.52 1064.10,1845.20 C1057.57,1841.98 1046.55,1837.65 1035.74,1833.87 C1023.28,1829.73 989.58,1820.01 973.81,1815.61 C941.66,1807.38 887.97,1794.98 883.44,1793.30 C881.37,1792.52 869.78,1788.36 860.80,1783.59 C856.48,1781.27 850.30,1776.58 848.05,1773.83 C845.84,1771.04 843.09,1764.79 842.24,1760.78 C840.91,1754.29 841.21,1738.21 842.12,1729.44 C842.35,1727.39 843.08,1723.91 843.74,1722.01 C844.56,1719.72 849.61,1714.39 851.68,1712.67 C855.87,1709.19 860.20,1705.86 863.57,1704.22 C868.99,1701.62 883.03,1698.83 891.63,1698.06 C898.27,1697.48 912.92,1697.36 922.38,1697.69 C933.07,1698.26 942.35,1699.27 950.04,1701.19 C952.78,1701.86 960.52,1703.88 961.33,1704.08 C964.85,1705.03 970.72,1708.74 973.97,1711.55 C980.48,1717.30 992.44,1729.69 995.52,1734.52 C997.12,1737.09 998.91,1740.83 999.29,1742.62 C999.38,1743.04 999.71,1746.52 1000.00,1748.48 C1000.23,1749.88 1001.22,1751.95 1002.10,1752.59 C1003.43,1753.49 1018.43,1753.59 1024.69,1753.62 C1058.57,1753.63 1123.90,1752.27 1128.79,1753.52" fill="none" stroke="rgb(255, 255, 255)" stroke-width="29.90" stroke-opacity="1.00" stroke-linejoin="round"/>
<path d="M1273.93,1556.13 C1276.30,1567.80 1281.50,1593.46 1282.57,1596.80 C1283.99,1601.08 1288.12,1609.06 1290.81,1612.70 C1293.54,1616.33 1300.38,1623.02 1304.25,1625.86 C1310.16,1630.15 1323.22,1636.71 1330.36,1639.28 C1337.51,1641.84 1353.80,1645.94 1362.93,1647.49 C1365.12,1647.85 1414.38,1654.85 1429.41,1657.11 C1438.33,1658.56 1459.11,1662.64 1466.31,1664.57 C1472.65,1666.29 1484.53,1671.17 1489.95,1673.83 C1496.48,1677.11 1507.67,1684.68 1513.86,1689.88 C1517.25,1692.76 1522.57,1698.02 1524.98,1700.91 C1527.27,1703.69 1531.32,1709.73 1532.39,1712.32 C1534.62,1717.83 1537.02,1727.93 1537.53,1734.02 C1538.23,1742.60 1538.66,1777.16 1537.90,1801.17 C1537.33,1816.78 1536.01,1850.65 1535.25,1868.92 C1534.18,1887.35 1530.73,1923.88 1529.04,1935.55 C1527.89,1942.55 1524.84,1958.47 1522.53,1966.61 C1519.54,1977.03 1512.42,1993.93 1508.29,2000.42 C1504.90,2005.69 1494.77,2016.57 1489.74,2020.97 C1484.68,2025.38 1472.91,2033.64 1467.62,2036.30 C1460.97,2039.62 1447.22,2044.69 1439.77,2046.58 C1433.95,2048.03 1416.47,2050.88 1408.43,2051.90 C1400.28,2052.73 1383.81,2053.88 1375.83,2053.73 C1367.96,2053.47 1351.92,2052.59 1343.75,2051.95 C1331.29,2050.80 1319.20,2049.00 1311.84,2046.91 C1304.52,2044.80 1290.48,2038.41 1285.17,2034.53 C1278.70,2029.75 1267.85,2018.15 1263.33,2011.19 C1259.31,2004.92 1251.85,1989.00 1249.44,1981.80 C1248.25,1978.20 1246.51,1971.54 1245.74,1967.63 C1245.06,1964.05 1244.66,1955.96 1244.80,1952.17 C1245.13,1944.30 1248.49,1930.07 1251.83,1921.91 C1254.81,1914.73 1262.44,1900.78 1266.26,1895.53 C1269.92,1890.55 1280.53,1879.19 1286.02,1874.37 C1292.06,1869.11 1304.14,1860.87 1311.65,1856.99 C1319.44,1852.99 1331.52,1848.29 1341.56,1844.97 C1356.19,1840.55 1393.51,1832.29 1405.73,1829.09 C1413.34,1826.92 1430.49,1821.30 1435.66,1819.30 C1444.41,1815.91 1460.42,1807.92 1467.29,1803.52 C1471.12,1801.07 1486.65,1789.67 1490.88,1786.09 C1496.59,1781.24 1507.22,1769.95 1510.34,1763.80 C1512.68,1759.09 1517.52,1744.33 1519.51,1735.33 C1521.73,1724.66 1526.24,1700.55 1526.69,1698.15" fill="none" stroke="rgb(255, 255, 255)" stroke-width="115.60" stroke-opacity="1.00" stroke-linejoin="miter"/>
<path d="M1266.62,1278.10 C1266.62,1278.10 1273.18,1523.38 1273.18,1523.38" fill="none" stroke="rgb(255, 255, 255)" stroke-width="110.85" stroke-opacity="1.00" stroke-linejoin="round"/>
<path d="M1032.02,1703.02 C1060.57,1708.81 1069.26,1709.70 1070.75,1709.48 C1071.77,1709.29 1072.24,1708.49 1071.61,1707.78 C1070.89,1707.01 1061.81,1701.38 1057.97,1698.39 C1054.34,1695.48 1042.89,1686.71 1038.08,1682.99 C1032.53,1678.60 1019.45,1668.19 1013.79,1665.07 C1010.05,1663.03 1001.68,1659.47 997.05,1657.94 C987.59,1654.87 969.85,1651.74 960.75,1650.81 C953.54,1650.23 938.25,1649.59 930.17,1649.54 C921.79,1649.67 904.17,1650.45 894.92,1651.11 C885.38,1651.95 866.85,1654.07 858.22,1655.33 C850.02,1656.72 833.80,1660.08 827.95,1661.70 C821.24,1663.56 807.99,1668.36 802.09,1671.48 C797.54,1673.92 789.70,1679.63 786.69,1682.70 C783.72,1685.79 779.44,1692.52 778.16,1696.11 C777.20,1698.89 774.09,1717.62 772.96,1724.29 C772.45,1727.29 770.58,1739.13 769.88,1752.42 C769.73,1757.54 769.85,1761.68 770.79,1764.64 C772.93,1771.12 780.66,1781.13 786.19,1787.02 C790.39,1791.32 800.01,1800.53 805.44,1805.42 C812.45,1811.59 824.87,1820.04 833.31,1824.31 C841.77,1828.57 858.95,1835.12 868.63,1838.14 C882.37,1842.17 910.44,1848.50 931.11,1852.15 C940.25,1853.53 958.47,1856.34 967.20,1857.93 C977.25,1860.04 992.35,1863.92 998.55,1865.94 C1005.67,1868.27 1018.12,1873.41 1024.21,1876.53 C1027.66,1878.32 1035.51,1883.17 1039.39,1886.12 C1043.13,1888.99 1049.64,1895.18 1052.42,1898.51 C1055.16,1901.84 1059.69,1908.96 1061.47,1912.74 C1063.65,1917.44 1069.30,1936.97 1070.65,1943.02 C1072.19,1949.94 1074.15,1963.81 1074.01,1969.44 C1073.88,1973.67 1072.76,1981.32 1071.77,1984.67 C1070.76,1988.02 1068.01,1993.49 1065.99,1996.28 C1062.08,2001.61 1049.47,2012.94 1043.27,2016.81 C1038.69,2019.64 1024.46,2027.54 1017.31,2031.18 C1006.52,2036.38 993.84,2041.93 985.95,2044.71 C978.13,2047.45 961.52,2051.77 954.59,2052.68 C945.55,2053.83 928.37,2054.25 919.91,2053.53 C916.27,2053.21 877.25,2048.11 862.44,2045.81 C855.89,2044.77 845.46,2041.24 834.02,2036.04 C829.67,2034.06 780.14,2009.36 769.12,2003.31 C761.99,1999.24 753.73,1993.31 752.02,1991.04 C751.29,1989.99 751.93,1988.32 753.51,1987.45 C756.19,1986.08 780.53,1989.27 790.92,1990.67 C794.55,1991.16 799.60,1991.85 801.02,1992.04" fill="none" stroke="rgb(255, 255, 255)" stroke-width="115.60" stroke-opacity="1.00" stroke-linejoin="miter"/>
<path d="M1017.02,1188.02 C1048.77,1186.27 1043.83,1185.80 1044.03,1185.33 C1044.03,1185.33 1057.98,1198.39 1050.47,1189.27 C1047.83,1186.07 1041.72,1183.40 1038.93,1180.47 C1031.62,1172.47 1014.88,1151.48 1011.99,1148.58 C1009.00,1145.61 1002.14,1140.23 998.28,1137.82 C990.51,1133.03 973.52,1126.53 964.62,1124.45 C958.05,1123.00 943.69,1120.99 935.89,1120.43 C929.58,1120.03 911.06,1119.78 902.16,1120.01 C889.27,1120.66 874.74,1122.22 866.43,1123.97 C858.13,1125.74 842.95,1130.85 836.06,1134.19 C829.19,1137.55 816.97,1145.75 811.76,1150.57 C806.67,1155.31 797.79,1166.22 794.01,1172.39 C790.24,1178.58 784.01,1192.39 781.55,1200.01 C779.54,1206.29 775.54,1224.16 773.99,1232.38 C772.65,1240.63 770.58,1257.19 769.86,1265.51 C769.34,1273.85 768.87,1294.44 769.02,1299.02 C769.17,1303.45 770.96,1323.86 772.01,1332.18 C773.25,1340.50 776.32,1357.20 778.16,1365.58 C780.19,1373.97 784.85,1390.78 787.41,1398.95 C790.07,1406.79 795.70,1421.56 798.71,1428.32 C801.75,1434.99 808.25,1447.02 811.71,1452.37 C815.89,1458.82 825.94,1470.51 832.38,1475.92 C835.59,1478.60 842.25,1483.19 845.69,1485.09 C852.65,1488.90 865.52,1492.77 874.78,1494.53 C882.19,1495.93 896.88,1497.61 904.15,1497.91 C912.56,1498.23 927.45,1497.21 935.21,1496.10 C943.21,1494.94 958.90,1491.41 966.74,1489.02 C974.45,1486.65 988.76,1481.08 995.37,1477.87 C1003.39,1473.96 1015.42,1466.29 1023.40,1459.56 C1029.49,1454.39 1038.48,1449.57 1044.43,1440.16 C1045.06,1439.17 1045.65,1438.13 1046.20,1437.04 C1046.65,1436.15 1047.07,1435.22 1047.46,1434.25 C1051.18,1425.04 1047.49,1428.75 1047.49,1428.75 C1046.83,1429.52 1053.57,1427.36 1051.82,1428.55 C1048.30,1430.92 1013.85,1427.31 1014.02,1437.02" fill="none" stroke="rgb(255, 255, 255)" stroke-width="106.01" stroke-opacity="1.00" stroke-linejoin="miter"/>
<path d="M1257.28,1116.08 C1264.07,1115.65 1260.24,1115.49 1265.22,1115.45 C1268.64,1115.42 1281.84,1119.74 1285.38,1120.11" fill="none" stroke="rgb(255, 255, 255)" stroke-width="102.86" stroke-opacity="1.00" stroke-linejoin="round"/>
<path d="M1616.02,1116.02 C1623.24,1114.93 1640.95,1114.56 1649.05,1115.33 C1657.15,1116.12 1672.45,1119.45 1680.73,1122.15 C1688.30,1124.63 1702.31,1130.71 1708.74,1134.29 C1716.18,1138.46 1726.19,1145.85 1732.29,1151.77 C1737.61,1156.94 1747.01,1168.47 1751.09,1174.81 C1755.00,1180.94 1762.25,1195.18 1765.39,1202.88 C1768.51,1210.60 1774.40,1228.96 1775.81,1235.55 C1777.29,1242.77 1779.88,1257.82 1780.99,1265.66 C1781.98,1273.70 1783.56,1290.40 1784.17,1299.07 C1784.64,1307.81 1785.04,1324.68 1784.98,1332.78 C1784.74,1340.67 1783.74,1355.78 1782.97,1363.01 C1781.90,1371.39 1778.05,1387.83 1775.34,1395.86 C1772.62,1403.87 1766.26,1417.57 1761.93,1424.79 C1757.47,1432.11 1749.65,1443.49 1745.20,1449.15 C1739.57,1456.28 1731.96,1464.27 1725.07,1470.18 C1719.43,1475.00 1707.31,1483.77 1701.24,1487.42 C1694.82,1491.26 1680.72,1496.98 1672.77,1498.97 C1663.69,1501.21 1651.03,1502.53 1641.87,1502.51 C1634.54,1502.48 1618.83,1501.32 1610.57,1500.30 C1598.90,1498.61 1584.77,1495.95 1576.67,1493.65 C1568.62,1491.35 1553.73,1485.43 1546.90,1481.82 C1539.17,1477.71 1527.40,1468.89 1521.91,1463.65 C1516.28,1458.25 1506.34,1446.05 1502.02,1439.25 C1499.42,1435.13 1490.41,1417.98 1487.05,1410.86 C1483.88,1403.75 1478.41,1389.59 1476.11,1382.54 C1474.18,1376.55 1470.70,1359.14 1469.73,1351.23 C1468.77,1343.32 1468.23,1330.47 1468.34,1319.72 C1468.58,1311.90 1469.26,1296.29 1469.71,1288.51 C1470.72,1275.53 1471.32,1270.56 1473.41,1257.77 C1474.80,1250.18 1477.78,1235.04 1479.38,1227.49 C1481.63,1217.64 1485.78,1205.29 1489.30,1198.33 C1492.85,1191.37 1502.67,1177.34 1507.44,1172.47 C1512.73,1167.11 1523.79,1157.75 1530.26,1153.16 C1536.75,1148.57 1551.29,1139.86 1559.21,1135.81 C1567.01,1131.83 1582.37,1125.30 1589.93,1122.74 C1597.49,1120.20 1611.91,1116.65 1616.02,1116.02 Z" fill="none" stroke="rgb(255, 255, 255)" stroke-width="106.01" stroke-opacity="1.00" stroke-linejoin="miter"/>
<path d="M1313.02,953.02 C1312.63,928.28 1311.71,866.53 1311.18,829.51 C1311.10,811.99 1311.16,775.97 1311.29,757.46 C1311.66,739.63 1312.82,697.21 1313.79,689.21 C1314.72,681.69 1317.84,668.01 1320.02,661.86 C1322.22,655.73 1328.53,643.61 1332.87,638.00 C1335.47,634.67 1341.30,628.72 1344.54,626.09 C1347.80,623.48 1354.94,618.96 1358.84,617.05 C1364.35,614.38 1385.01,607.85 1390.88,606.28 C1398.09,604.41 1412.59,601.79 1418.99,602.13 C1424.49,602.46 1432.64,604.78 1436.28,607.08 C1439.92,609.41 1443.98,610.67 1445.68,610.04 C1446.44,609.72 1448.02,608.25 1448.49,607.38 C1449.55,605.26 1450.08,598.23 1449.74,591.61 C1449.51,587.27 1449.16,579.95 1449.02,577.00" fill="none" stroke="rgb(255, 255, 255)" stroke-width="134.30" stroke-opacity="1.00" stroke-linejoin="miter"/>
<path d="M1643.02,574.00 C1643.02,574.00 1641.02,973.02 1641.02,973.02" fill="none" stroke="rgb(255, 255, 255)" stroke-width="110.85" stroke-opacity="1.00" stroke-linejoin="round"/>
<path d="M816.02,763.02 C840.47,762.54 901.43,761.35 937.96,760.64 C978.28,759.90 1048.00,758.69 1077.41,758.23 C1083.02,758.16 1094.43,758.06 1105.11,757.39 C1106.95,757.24 1108.64,756.71 1109.50,755.92 C1110.32,755.11 1111.69,752.17 1111.85,750.91 C1111.96,749.85 1109.05,735.93 1107.49,729.50 C1105.62,722.36 1100.47,704.21 1098.00,697.56 C1094.85,689.16 1086.88,672.83 1082.06,664.89 C1077.86,658.02 1067.68,644.67 1062.38,638.70 C1057.06,632.73 1046.07,621.90 1038.86,615.53 C1033.66,611.07 1018.02,598.88 1012.29,594.98 C1005.71,590.52 992.75,582.97 986.37,579.89 C978.77,576.33 964.44,571.62 956.82,570.17 C949.21,568.75 934.65,568.14 926.97,568.91 C919.57,569.67 904.70,572.85 897.17,575.27 C888.20,578.19 877.42,583.11 869.46,587.76 C863.15,591.45 850.44,600.09 844.05,604.92 C835.21,611.88 824.86,620.81 819.08,626.78 C813.33,632.74 803.03,645.58 798.49,652.45 C793.28,660.35 786.88,673.51 784.50,679.38 C781.78,686.13 777.24,700.28 775.42,707.68 C773.61,715.07 770.84,730.80 770.03,738.51 C769.22,746.43 768.74,762.58 769.07,770.80 C769.42,779.02 771.40,797.20 772.76,803.82 C774.42,811.45 778.45,826.88 780.82,834.68 C783.42,842.53 789.34,858.41 792.65,866.43 C796.19,874.51 803.79,890.36 807.70,897.78 C811.65,904.93 819.77,918.05 823.96,923.87 C828.15,929.67 837.53,940.73 842.27,945.12 C848.78,951.11 862.31,960.30 869.29,963.48 C876.31,966.64 890.06,969.94 898.22,970.73 C905.74,971.43 921.42,971.11 929.59,970.08 C938.49,968.93 954.20,965.00 960.89,962.87 C967.60,960.73 982.93,954.80 992.69,950.53 C1002.12,946.10 1044.67,935.60 1048.93,922.61 C1052.07,913.03 1064.47,911.35 1073.00,908.98 C1089.16,904.49 1086.86,903.36 1088.02,903.02" fill="none" stroke="rgb(255, 255, 255)" stroke-width="106.01" stroke-opacity="1.00" stroke-linejoin="miter"/>
<path d="M471.62,1105.57 C470.76,1107.03 480.17,1143.36 484.26,1158.39 C488.14,1172.75 496.08,1201.77 500.16,1216.44 C503.62,1229.31 505.23,1236.12 506.13,1239.64" fill="none" stroke="rgb(255, 255, 255)" stroke-width="23.63" stroke-opacity="1.00" stroke-linejoin="round"/>
<path d="M480.39,1156.11 C480.39,1156.11 480.49,1156.10 480.49,1156.10" fill="none" stroke="rgb(255, 255, 255)" stroke-width="23.63" stroke-opacity="1.00" stroke-linejoin="round"/>
<path d="M536.01,1158.90 C536.01,1158.90 537.23,1160.18 537.23,1160.18" fill="none" stroke="rgb(255, 255, 255)" stroke-width="23.63" stroke-opacity="1.00" stroke-linejoin="round"/>
<path d="M535.78,1159.26 C535.55,1159.67 535.27,1160.01 534.95,1160.30 C533.68,1161.41 518.04,1171.81 511.98,1176.05 C501.10,1184.08 473.15,1205.21 467.37,1209.28 C457.71,1216.05 441.57,1224.38 438.85,1225.71" fill="none" stroke="rgb(255, 255, 255)" stroke-width="23.63" stroke-opacity="1.00" stroke-linejoin="round"/>
<path d="M504.62,1239.52 C502.51,1237.81 491.54,1229.12 487.06,1225.70 C479.16,1219.44 454.56,1198.90 447.51,1192.99" fill="none" stroke="rgb(255, 255, 255)" stroke-width="23.63" stroke-opacity="1.00" stroke-linejoin="round"/>
<path d="M463.32,1163.24 C477.70,1163.67 506.09,1164.70 517.09,1163.50 C518.75,1163.30 519.89,1163.18 520.51,1163.14 C521.15,1163.09 522.46,1163.02 524.44,1162.92" fill="none" stroke="rgb(255, 255, 255)" stroke-width="23.63" stroke-opacity="1.00" stroke-linejoin="round"/>
<path d="M472.12,1106.32 C471.89,1107.03 471.67,1107.74 471.44,1108.44 C470.03,1112.91 449.52,1184.48 446.04,1195.51" fill="none" stroke="rgb(255, 255, 255)" stroke-width="23.63" stroke-opacity="1.00" stroke-linejoin="round"/>
<path d="M436.24,1224.76 C437.49,1223.91 454.07,1206.45 456.55,1204.06 C459.49,1201.25 475.68,1188.34 476.02,1188.06 C476.35,1187.79 476.96,1187.27 477.85,1186.50" fill="none" stroke="rgb(255, 255, 255)" stroke-width="23.63" stroke-opacity="1.00" stroke-linejoin="round"/>
<path d="M454.19,1203.91 C454.19,1203.91 454.54,1203.33 454.54,1203.33 C455.14,1202.57 483.04,1173.78 484.34,1172.53 C483.38,1174.85 479.17,1182.02 478.11,1184.10 C476.88,1186.53 474.95,1192.37 474.79,1194.61 C474.70,1195.91 475.31,1197.03 476.72,1198.60 C478.38,1198.83 482.13,1197.28 484.16,1195.52 C493.73,1187.01 498.97,1173.74 499.10,1172.45 C499.10,1172.45 498.22,1171.33 498.22,1171.33 C496.13,1171.49 492.79,1175.55 492.06,1177.57 C491.38,1179.67 491.73,1180.94 492.44,1182.53 C494.26,1183.32 495.43,1183.58 496.51,1183.25 C498.62,1182.58 502.19,1179.89 503.98,1177.80 C504.96,1176.64 507.82,1171.90 507.63,1170.45 C507.57,1170.05 507.21,1169.46 506.55,1168.68 C504.51,1168.35 503.35,1168.33 502.18,1168.77 C499.34,1169.84 495.05,1172.50 492.88,1174.74 C488.12,1179.74 485.35,1186.68 485.03,1187.78 C482.21,1181.81 480.50,1178.65 478.52,1176.42 C476.52,1174.23 471.40,1170.91 469.03,1170.53 C466.84,1170.21 462.35,1170.78 460.52,1171.74 C458.55,1172.80 455.13,1177.20 454.59,1178.52 C453.43,1181.57 453.71,1185.89 454.86,1187.54 C455.98,1189.02 459.28,1190.26 461.04,1189.78 C462.69,1189.29 465.57,1186.41 466.51,1184.40 C467.57,1182.04 468.48,1177.23 468.22,1175.05 C467.95,1173.11 465.61,1169.98 463.78,1168.90 C462.00,1167.90 457.94,1168.31 456.32,1169.85 C454.64,1171.53 452.77,1177.11 452.88,1179.82 C453.05,1182.55 455.45,1186.89 457.44,1188.05 C459.31,1189.08 463.03,1188.23 464.56,1186.66 C465.74,1185.40 467.55,1181.27 468.08,1178.89 C468.69,1175.99 468.77,1171.30 468.31,1168.67 C467.83,1166.04 465.97,1159.11 466.22,1158.45 C466.22,1158.45 468.33,1158.29 468.33,1158.29 C469.79,1157.40 470.97,1153.56 471.22,1150.50 C471.51,1146.19 470.05,1134.04 470.23,1131.64 C470.63,1132.10 470.51,1136.46 471.65,1137.94 C472.02,1138.41 473.02,1139.60 473.30,1140.17 C471.65,1145.76 469.81,1154.96 469.17,1161.62 C468.74,1165.97 468.14,1168.45 466.62,1169.47 C463.91,1171.17 454.83,1173.01 452.81,1173.40" fill="none" stroke="rgb(255, 255, 255)" stroke-width="23.63" stroke-opacity="1.00" stroke-linejoin="round"/>
<path d="M442.32,1175.78 C442.32,1175.78 442.49,1174.77 442.25,1174.17 C441.37,1172.12 435.04,1168.28 434.51,1168.72 C434.93,1170.50 441.04,1175.03 451.35,1182.31 C456.44,1185.98 466.39,1194.50 470.39,1198.61 C478.17,1206.64 490.35,1221.95 490.76,1222.36 C486.24,1214.56 482.48,1206.29 482.66,1203.85 C482.66,1203.85 490.99,1212.96 490.99,1212.96 C490.99,1212.96 483.76,1197.42 483.76,1197.42 C483.76,1197.42 494.62,1218.50 494.62,1218.50" fill="none" stroke="rgb(255, 255, 255)" stroke-width="23.63" stroke-opacity="1.00" stroke-linejoin="round"/>
<path d="M445.59,1177.10 C445.59,1178.19 445.56,1179.06 445.51,1179.70 C445.46,1180.35 445.32,1181.67 445.08,1183.66" fill="none" stroke="rgb(255, 255, 255)" stroke-width="23.63" stroke-opacity="1.00" stroke-linejoin="round"/>
<path d="M432.30,1232.74 C431.95,1233.63 431.57,1234.42 431.57,1234.42 C431.57,1234.42 431.20,1234.86 430.87,1235.06" fill="none" stroke="rgb(255, 255, 255)" stroke-width="23.63" stroke-opacity="1.00" stroke-linejoin="round"/>
<path d="M433.59,1231.88 C435.03,1231.26 436.00,1230.83 436.50,1230.59 C438.73,1229.50 453.13,1219.11 455.78,1217.40 C461.74,1213.65 476.22,1204.61 479.12,1202.98 C482.54,1201.07 487.21,1198.47 488.46,1197.77" fill="none" stroke="rgb(255, 255, 255)" stroke-width="23.63" stroke-opacity="1.00" stroke-linejoin="round"/>
<path d="M533.85,1159.94 C532.48,1160.20 529.59,1160.43 526.13,1160.59 C518.44,1160.92 499.95,1161.82 495.94,1162.19 C492.57,1162.50 473.73,1165.11 473.73,1165.11 C473.73,1165.11 473.19,1165.15 472.86,1165.15" fill="none" stroke="rgb(255, 255, 255)" stroke-width="15.20" stroke-opacity="1.00" stroke-linejoin="round"/>
<path d="M400.90,1154.31 C401.05,1154.78 413.48,1166.97 419.02,1172.38 C425.71,1178.78 435.03,1187.06 440.02,1190.88 C444.50,1194.29 446.41,1195.28 447.80,1195.82" fill="none" stroke="rgb(255, 255, 255)" stroke-width="15.20" stroke-opacity="1.00" stroke-linejoin="round"/>
<path d="M400.53,1155.19 C400.53,1155.19 401.63,1155.42 403.82,1155.66 C418.25,1157.17 454.20,1160.75 461.18,1160.93 C463.08,1160.98 476.66,1161.10 478.02,1161.15 C478.55,1161.18 479.08,1161.20 479.61,1161.23" fill="none" stroke="rgb(255, 255, 255)" stroke-width="15.20" stroke-opacity="1.00" stroke-linejoin="round"/>
<path d="M411.75,1158.72 C412.02,1159.05 415.36,1159.68 420.82,1160.45 C446.62,1163.94 461.13,1165.25 462.31,1165.30 C462.31,1165.30 442.94,1163.66 438.48,1162.95 C431.93,1161.83 423.94,1160.46 421.84,1160.83 C421.84,1160.83 421.89,1162.05 421.89,1162.05 C422.66,1163.09 426.57,1166.11 427.97,1166.84 C432.05,1168.91 443.91,1172.69 447.95,1173.77 C442.70,1172.45 426.87,1168.13 419.38,1166.05 C417.86,1165.61 416.99,1165.59 415.75,1165.84 C416.35,1167.66 420.64,1170.98 421.07,1171.26 C427.83,1175.57 447.94,1181.89 450.36,1182.57 C440.96,1179.41 420.76,1167.30 416.39,1164.87 C415.87,1165.99 427.56,1174.14 433.89,1177.18 C440.42,1180.30 449.62,1182.92 448.71,1182.86 C448.71,1182.86 447.32,1182.57 444.98,1182.03" fill="none" stroke="rgb(255, 255, 255)" stroke-width="15.20" stroke-opacity="1.00" stroke-linejoin="round"/>
<path d="M442.41,1178.76 C442.41,1178.76 442.42,1178.81 442.42,1178.81 C442.34,1179.41 442.24,1180.01 442.17,1180.61 C441.19,1189.28 433.05,1227.75 433.66,1230.77 C434.04,1227.81 439.06,1215.62 442.36,1209.21 C446.69,1201.10 457.09,1184.20 458.54,1181.82 C459.10,1180.87 459.56,1179.88 460.21,1178.36" fill="none" stroke="rgb(255, 255, 255)" stroke-width="15.20" stroke-opacity="1.00" stroke-linejoin="round"/>
<path d="M648.68,1307.48 C648.68,1307.48 289.91,1305.17 289.91,1305.17" fill="none" stroke="rgb(255, 255, 255)" stroke-width="25.80" stroke-opacity="1.00" stroke-linejoin="round"/>
<path d="M2270.46,1305.67 C2270.46,1305.67 1917.61,1307.13 1917.61,1307.13" fill="none" stroke="rgb(255, 255, 255)" stroke-width="25.80" stroke-opacity="1.00" stroke-linejoin="round"/>
<path d="M1653.46,1758.49 C1653.46,1758.49 1654.26,1803.35 1654.26,1803.35" fill="none" stroke="rgb(255, 255, 255)" stroke-width="9.49" stroke-opacity="1.00" stroke-linejoin="round"/>
<path d="M1654.26,1779.90 C1654.26,1779.90 1689.00,1779.49 1689.00,1779.49" fill="none" stroke="rgb(255, 255, 255)" stroke-width="9.49" stroke-opacity="1.00" stroke-linejoin="round"/>
<path d="M1689.00,1756.87 C1689.00,1756.87 1689.00,1802.14 1689.00,1802.14" fill="none" stroke="rgb(255, 255, 255)" stroke-width="9.49" stroke-opacity="1.00" stroke-linejoin="round"/>
<path d="M1813.45,1760.10 C1813.45,1760.10 1812.64,1800.52 1812.64,1800.52" fill="none" stroke="rgb(255, 255, 255)" stroke-width="9.49" stroke-opacity="1.00" stroke-linejoin="round"/>
<path d="M1813.45,1779.09 C1813.45,1779.09 1848.59,1779.90 1848.59,1779.90" fill="none" stroke="rgb(255, 255, 255)" stroke-width="9.49" stroke-opacity="1.00" stroke-linejoin="round"/>
<path d="M1848.19,1756.47 C1848.19,1756.47 1848.19,1803.35 1848.19,1803.35" fill="none" stroke="rgb(255, 255, 255)" stroke-width="9.49" stroke-opacity="1.00" stroke-linejoin="round"/>
<path d="M1710.01,1758.49 C1710.01,1758.49 1710.01,1800.92 1710.01,1800.92" fill="none" stroke="rgb(255, 255, 255)" stroke-width="9.49" stroke-opacity="1.00" stroke-linejoin="round"/>
<path d="M1710.41,1758.49 C1710.41,1758.49 1743.94,1759.29 1743.94,1759.29" fill="none" stroke="rgb(255, 255, 255)" stroke-width="9.49" stroke-opacity="1.00" stroke-linejoin="round"/>
<path d="M1711.63,1780.30 C1711.63,1780.30 1739.90,1781.51 1739.90,1781.51" fill="none" stroke="rgb(255, 255, 255)" stroke-width="9.49" stroke-opacity="1.00" stroke-linejoin="round"/>
<path d="M1709.61,1800.12 C1709.61,1800.12 1741.52,1800.92 1741.52,1800.92" fill="none" stroke="rgb(255, 255, 255)" stroke-width="9.49" stroke-opacity="1.00" stroke-linejoin="round"/>
<path d="M1768.99,1894.64 C1768.99,1894.64 1768.59,1849.80 1768.59,1849.80" fill="none" stroke="rgb(255, 255, 255)" stroke-width="9.49" stroke-opacity="1.00" stroke-linejoin="round"/>
<path d="M1768.99,1849.40 C1768.99,1849.40 1802.14,1895.45 1802.14,1895.45" fill="none" stroke="rgb(255, 255, 255)" stroke-width="9.49" stroke-opacity="1.00" stroke-linejoin="round"/>
<path d="M1801.73,1895.86 C1801.73,1895.86 1800.12,1850.61 1800.12,1850.61" fill="none" stroke="rgb(255, 255, 255)" stroke-width="9.49" stroke-opacity="1.00" stroke-linejoin="round"/>
<path d="M1710.82,1987.56 C1710.82,1987.56 1712.84,1940.70 1712.84,1940.70" fill="none" stroke="rgb(255, 255, 255)" stroke-width="9.49" stroke-opacity="1.00" stroke-linejoin="round"/>
<path d="M1713.65,1941.50 C1713.65,1941.50 1734.25,1968.17 1734.25,1968.17" fill="none" stroke="rgb(255, 255, 255)" stroke-width="9.49" stroke-opacity="1.00" stroke-linejoin="round"/>
<path d="M1733.44,1968.97 C1733.44,1968.97 1753.64,1945.95 1753.64,1945.95" fill="none" stroke="rgb(255, 255, 255)" stroke-width="9.49" stroke-opacity="1.00" stroke-linejoin="round"/>
<path d="M1754.45,1945.54 C1754.45,1945.54 1756.47,1986.75 1756.47,1986.75" fill="none" stroke="rgb(255, 255, 255)" stroke-width="9.49" stroke-opacity="1.00" stroke-linejoin="round"/>
<path d="M1838.90,1943.52 C1838.90,1943.52 1840.92,1987.96 1840.92,1987.96" fill="none" stroke="rgb(255, 255, 255)" stroke-width="9.49" stroke-opacity="1.00" stroke-linejoin="round"/>
<path d="M1856.27,1967.36 C1856.27,1967.36 1874.45,1986.34 1874.45,1986.34" fill="none" stroke="rgb(255, 255, 255)" stroke-width="9.49" stroke-opacity="1.00" stroke-linejoin="round"/>
<path d="M1649.82,1987.15 C1649.82,1987.15 1673.65,1941.91 1673.65,1941.91" fill="none" stroke="rgb(255, 255, 255)" stroke-width="9.49" stroke-opacity="1.00" stroke-linejoin="round"/>
<path d="M1674.46,1940.70 C1674.46,1940.70 1693.04,1988.77 1693.04,1988.77" fill="none" stroke="rgb(255, 255, 255)" stroke-width="9.49" stroke-opacity="1.00" stroke-linejoin="round"/>
<path d="M1660.32,1973.82 C1660.32,1973.82 1687.39,1974.63 1687.39,1974.63" fill="none" stroke="rgb(255, 255, 255)" stroke-width="9.49" stroke-opacity="1.00" stroke-linejoin="round"/>
<path d="M1682.95,1854.65 C1679.86,1853.95 1671.97,1852.28 1668.81,1852.63 C1667.08,1852.86 1663.79,1854.08 1662.42,1855.00 C1660.98,1856.01 1658.78,1858.62 1657.90,1860.31 C1656.65,1862.81 1655.54,1870.13 1655.61,1874.23 C1655.72,1878.01 1658.02,1885.65 1660.14,1888.23 C1661.30,1889.59 1664.22,1891.58 1666.05,1892.28 C1667.84,1892.92 1671.82,1893.62 1674.02,1893.70 C1678.33,1893.77 1682.59,1891.70 1687.79,1888.18" fill="none" stroke="rgb(255, 255, 255)" stroke-width="9.50" stroke-opacity="1.00" stroke-linejoin="miter"/>
<path d="M1725.36,1850.21 C1722.17,1850.56 1715.33,1853.33 1713.24,1855.46 C1711.18,1857.65 1708.49,1864.76 1707.99,1868.79 C1707.69,1871.44 1708.10,1879.99 1709.04,1882.81 C1709.63,1884.47 1711.22,1887.02 1712.41,1888.22 C1714.56,1890.32 1721.39,1893.42 1724.15,1893.84 C1728.01,1894.36 1736.44,1892.72 1739.50,1891.01 C1740.94,1890.17 1743.92,1887.59 1745.03,1886.25 C1747.37,1883.30 1749.08,1877.05 1748.96,1873.15 C1748.82,1869.90 1747.26,1862.75 1745.61,1859.79 C1743.91,1856.81 1738.82,1852.39 1735.65,1851.33 C1732.57,1850.37 1726.79,1850.07 1725.36,1850.21 Z" fill="none" stroke="rgb(255, 255, 255)" stroke-width="9.50" stroke-opacity="1.00" stroke-linejoin="miter"/>
<path d="M1889.39,1759.70 C1887.78,1759.84 1879.13,1761.90 1876.93,1763.60 C1875.56,1764.70 1873.63,1767.28 1872.87,1768.95 C1871.51,1772.12 1870.26,1780.12 1870.41,1783.84 C1870.52,1785.75 1871.22,1789.02 1871.91,1790.68 C1873.23,1793.72 1878.44,1798.53 1881.31,1799.69 C1884.26,1800.84 1891.24,1801.06 1895.18,1800.43 C1898.64,1799.81 1904.85,1796.47 1906.70,1793.90 C1908.50,1791.28 1909.91,1784.24 1909.85,1780.65 C1909.79,1778.99 1909.24,1775.18 1908.78,1773.84 C1907.49,1770.23 1901.80,1763.76 1899.49,1762.12 C1896.30,1759.95 1891.51,1759.55 1889.39,1759.70 Z" fill="none" stroke="rgb(255, 255, 255)" stroke-width="9.50" stroke-opacity="1.00" stroke-linejoin="miter"/>
<path d="M1796.46,1941.50 C1795.44,1941.58 1790.63,1942.57 1789.56,1942.90 C1787.44,1943.61 1784.59,1945.51 1783.13,1947.16 C1781.62,1948.93 1778.86,1955.84 1778.33,1959.30 C1777.83,1962.90 1778.78,1969.35 1780.30,1972.61 C1781.84,1975.79 1786.44,1981.27 1788.78,1982.71 C1790.31,1983.60 1793.66,1984.76 1795.47,1984.99 C1799.00,1985.37 1805.90,1983.78 1808.66,1981.77 C1811.34,1979.74 1815.70,1973.57 1816.68,1970.59 C1817.63,1967.53 1817.54,1960.98 1816.75,1957.37 C1815.96,1954.04 1812.65,1948.61 1809.79,1945.86 C1808.36,1944.55 1805.81,1942.97 1804.01,1942.33 C1802.41,1941.79 1798.40,1941.39 1796.46,1941.50 Z" fill="none" stroke="rgb(255, 255, 255)" stroke-width="9.50" stroke-opacity="1.00" stroke-linejoin="miter"/>
<path d="M1838.49,1943.12 C1852.08,1941.95 1859.16,1942.03 1862.33,1943.12 C1864.26,1943.84 1867.02,1945.83 1867.95,1947.23 C1868.67,1948.39 1869.77,1951.78 1869.98,1953.26 C1870.15,1954.78 1869.74,1957.79 1869.12,1959.26 C1868.41,1960.79 1865.93,1963.59 1864.38,1964.55 C1861.32,1966.35 1853.99,1967.20 1848.53,1966.89 C1846.76,1966.79 1843.76,1966.62 1842.53,1966.55" fill="none" stroke="rgb(255, 255, 255)" stroke-width="9.50" stroke-opacity="1.00" stroke-linejoin="miter"/>
<path d="M1792.02,1762.93 C1789.17,1762.47 1781.01,1761.13 1778.02,1761.24 C1776.02,1761.34 1772.51,1762.12 1770.84,1762.83 C1769.23,1763.56 1766.29,1765.62 1765.06,1766.88 C1762.67,1769.45 1760.32,1775.81 1760.08,1779.62 C1759.89,1783.50 1761.17,1790.81 1762.53,1793.23 C1763.43,1794.77 1765.72,1797.18 1767.15,1798.08 C1769.65,1799.58 1777.02,1801.24 1780.87,1800.76 C1783.16,1800.45 1789.64,1798.52 1791.21,1798.08" fill="none" stroke="rgb(255, 255, 255)" stroke-width="9.50" stroke-opacity="1.00" stroke-linejoin="miter"/>
<path d="M1618.32,431.49 C1618.32,431.49 1661.39,438.22 1661.39,438.22" fill="none" stroke="rgb(255, 255, 255)" stroke-width="78.72" stroke-opacity="1.00" stroke-linejoin="round"/>
<path d="M1797.52,1964.61 C1797.52,1964.61 1796.59,1963.94 1796.59,1963.94" fill="none" stroke="rgb(255, 255, 255)" stroke-width="13.97" stroke-opacity="1.00" stroke-linejoin="round"/>
<path d="M1890.00,1780.20 C1890.00,1780.20 1891.44,1781.88 1891.44,1781.88 C1891.44,1781.88 1891.37,1780.63 1891.37,1780.63 C1891.37,1780.63 1890.34,1780.11 1890.34,1780.11" fill="none" stroke="rgb(255, 255, 255)" stroke-width="13.97" stroke-opacity="1.00" stroke-linejoin="round"/>
<path d="M1727.73,1872.47 C1727.73,1872.47 1728.70,1873.25 1728.70,1873.25" fill="none" stroke="rgb(255, 255, 255)" stroke-width="13.97" stroke-opacity="1.00" stroke-linejoin="round"/>
<path d="M237.08,1091.05 L234.62,1103.35" fill="none" stroke="rgb(255, 255, 255)" stroke-width="21.28" stroke-opacity="1.00" stroke-linejoin="round"/>
<path d="M226.41,1146.83 L224.77,1159.95" fill="none" stroke="rgb(255, 255, 255)" stroke-width="21.28" stroke-opacity="1.00" stroke-linejoin="round"/>
<path d="M219.03,1197.69 L217.39,1212.46" fill="none" stroke="rgb(255, 255, 255)" stroke-width="21.28" stroke-opacity="1.00" stroke-linejoin="round"/>
<path d="M212.47,1257.57 L212.47,1269.06" fill="none" stroke="rgb(255, 255, 255)" stroke-width="21.28" stroke-opacity="1.00" stroke-linejoin="round"/>
<path d="M212.47,1314.18 L213.29,1328.12" fill="none" stroke="rgb(255, 255, 255)" stroke-width="21.28" stroke-opacity="1.00" stroke-linejoin="round"/>
<path d="M215.75,1384.73 L216.57,1394.57" fill="none" stroke="rgb(255, 255, 255)" stroke-width="21.28" stroke-opacity="1.00" stroke-linejoin="round"/>
<path d="M222.31,1433.95 L224.77,1444.61" fill="none" stroke="rgb(255, 255, 255)" stroke-width="21.28" stroke-opacity="1.00" stroke-linejoin="round"/>
<path d="M233.80,1483.99 L237.90,1498.75" fill="none" stroke="rgb(255, 255, 255)" stroke-width="21.28" stroke-opacity="1.00" stroke-linejoin="round"/>
<path d="M242.82,1540.59 L246.92,1553.72" fill="none" stroke="rgb(255, 255, 255)" stroke-width="21.28" stroke-opacity="1.00" stroke-linejoin="round"/>
<path d="M254.30,1584.89 L256.76,1592.27" fill="none" stroke="rgb(255, 255, 255)" stroke-width="21.28" stroke-opacity="1.00" stroke-linejoin="round"/>
<path d="M266.61,1630.83 L269.07,1639.03" fill="none" stroke="rgb(255, 255, 255)" stroke-width="21.28" stroke-opacity="1.00" stroke-linejoin="round"/>
<path d="M281.38,1671.02 L284.66,1681.69" fill="none" stroke="rgb(255, 255, 255)" stroke-width="21.28" stroke-opacity="1.00" stroke-linejoin="round"/>
<path d="M299.42,1716.96 L305.99,1730.91" fill="none" stroke="rgb(255, 255, 255)" stroke-width="21.28" stroke-opacity="1.00" stroke-linejoin="round"/>
<path d="M326.49,1761.26 L332.24,1774.39" fill="none" stroke="rgb(255, 255, 255)" stroke-width="21.28" stroke-opacity="1.00" stroke-linejoin="round"/>
<path d="M352.74,1805.56 L359.31,1817.86" fill="none" stroke="rgb(255, 255, 255)" stroke-width="21.28" stroke-opacity="1.00" stroke-linejoin="round"/>
<path d="M378.17,1853.96 L385.56,1864.62" fill="none" stroke="rgb(255, 255, 255)" stroke-width="21.28" stroke-opacity="1.00" stroke-linejoin="round"/>
<path d="M412.63,1895.79 L420.01,1905.64" fill="none" stroke="rgb(255, 255, 255)" stroke-width="21.28" stroke-opacity="1.00" stroke-linejoin="round"/>
<path d="M444.62,1938.45 L451.18,1945.84" fill="none" stroke="rgb(255, 255, 255)" stroke-width="21.28" stroke-opacity="1.00" stroke-linejoin="round"/>
<path d="M485.78,1984.55 L492.48,1991.87" fill="none" stroke="rgb(255, 255, 255)" stroke-width="21.28" stroke-opacity="1.00" stroke-linejoin="round"/>
<path d="M522.35,2026.00 L528.44,2030.88" fill="none" stroke="rgb(255, 255, 255)" stroke-width="21.28" stroke-opacity="1.00" stroke-linejoin="round"/>
<path d="M554.04,2057.69 L560.75,2061.96" fill="none" stroke="rgb(255, 255, 255)" stroke-width="21.28" stroke-opacity="1.00" stroke-linejoin="round"/>
<path d="M594.27,2091.83 L601.58,2097.92" fill="none" stroke="rgb(255, 255, 255)" stroke-width="21.28" stroke-opacity="1.00" stroke-linejoin="round"/>
<path d="M635.72,2128.40 L643.64,2133.88" fill="none" stroke="rgb(255, 255, 255)" stroke-width="21.28" stroke-opacity="1.00" stroke-linejoin="round"/>
<path d="M674.72,2160.09 L682.04,2164.97" fill="none" stroke="rgb(255, 255, 255)" stroke-width="21.28" stroke-opacity="1.00" stroke-linejoin="round"/>
<path d="M714.34,2185.08 L722.87,2189.96" fill="none" stroke="rgb(255, 255, 255)" stroke-width="21.28" stroke-opacity="1.00" stroke-linejoin="round"/>
<path d="M764.32,2208.85 L771.64,2211.90" fill="none" stroke="rgb(255, 255, 255)" stroke-width="21.28" stroke-opacity="1.00" stroke-linejoin="round"/>
<path d="M810.64,2232.62 L819.79,2236.28" fill="none" stroke="rgb(255, 255, 255)" stroke-width="21.28" stroke-opacity="1.00" stroke-linejoin="round"/>
<path d="M854.53,2252.74 L866.72,2256.39" fill="none" stroke="rgb(255, 255, 255)" stroke-width="21.28" stroke-opacity="1.00" stroke-linejoin="round"/>
<path d="M913.04,2274.07 L922.18,2277.12" fill="none" stroke="rgb(255, 255, 255)" stroke-width="21.28" stroke-opacity="1.00" stroke-linejoin="round"/>
<path d="M961.19,2289.31 L970.33,2292.35" fill="none" stroke="rgb(255, 255, 255)" stroke-width="21.28" stroke-opacity="1.00" stroke-linejoin="round"/>
<path d="M1006.90,2304.54 L1020.92,2308.81" fill="none" stroke="rgb(255, 255, 255)" stroke-width="21.28" stroke-opacity="1.00" stroke-linejoin="round"/>
<path d="M1060.54,2317.95 L1069.68,2319.78" fill="none" stroke="rgb(255, 255, 255)" stroke-width="21.28" stroke-opacity="1.00" stroke-linejoin="round"/>
<path d="M1105.64,2324.05 L1115.40,2325.27" fill="none" stroke="rgb(255, 255, 255)" stroke-width="21.28" stroke-opacity="1.00" stroke-linejoin="round"/>
<path d="M1151.36,2327.10 L1159.28,2328.32" fill="none" stroke="rgb(255, 255, 255)" stroke-width="21.28" stroke-opacity="1.00" stroke-linejoin="round"/>
<path d="M1201.95,2329.53 L1212.92,2329.53" fill="none" stroke="rgb(255, 255, 255)" stroke-width="21.28" stroke-opacity="1.00" stroke-linejoin="round"/>
<path d="M1247.05,2331.36 L1261.07,2331.36" fill="none" stroke="rgb(255, 255, 255)" stroke-width="21.28" stroke-opacity="1.00" stroke-linejoin="round"/>
<path d="M1296.42,2332.58 L1308.00,2333.80" fill="none" stroke="rgb(255, 255, 255)" stroke-width="21.28" stroke-opacity="1.00" stroke-linejoin="round"/>
<path d="M1343.35,2331.97 L1358.59,2332.58" fill="none" stroke="rgb(255, 255, 255)" stroke-width="21.28" stroke-opacity="1.00" stroke-linejoin="round"/>
<path d="M1393.94,2328.32 L1401.26,2327.71" fill="none" stroke="rgb(255, 255, 255)" stroke-width="21.28" stroke-opacity="1.00" stroke-linejoin="round"/>
<path d="M1432.34,2321.61 L1442.70,2320.39" fill="none" stroke="rgb(255, 255, 255)" stroke-width="21.28" stroke-opacity="1.00" stroke-linejoin="round"/>
<path d="M1479.27,2311.25 L1489.02,2309.42" fill="none" stroke="rgb(255, 255, 255)" stroke-width="21.28" stroke-opacity="1.00" stroke-linejoin="round"/>
<path d="M1526.20,2300.28 L1537.18,2298.45" fill="none" stroke="rgb(255, 255, 255)" stroke-width="21.28" stroke-opacity="1.00" stroke-linejoin="round"/>
<path d="M1562.17,2290.53 L1574.97,2285.65" fill="none" stroke="rgb(255, 255, 255)" stroke-width="21.28" stroke-opacity="1.00" stroke-linejoin="round"/>
<path d="M1610.32,2272.24 L1620.07,2269.19" fill="none" stroke="rgb(255, 255, 255)" stroke-width="21.28" stroke-opacity="1.00" stroke-linejoin="round"/>
<path d="M1658.47,2257.61 L1665.17,2255.78" fill="none" stroke="rgb(255, 255, 255)" stroke-width="21.28" stroke-opacity="1.00" stroke-linejoin="round"/>
<path d="M1696.26,2241.77 L1707.84,2238.11" fill="none" stroke="rgb(255, 255, 255)" stroke-width="21.28" stroke-opacity="1.00" stroke-linejoin="round"/>
<path d="M1737.70,2222.26 L1746.24,2219.21" fill="none" stroke="rgb(255, 255, 255)" stroke-width="21.28" stroke-opacity="1.00" stroke-linejoin="round"/>
<path d="M1774.88,2200.32 L1782.81,2196.05" fill="none" stroke="rgb(255, 255, 255)" stroke-width="21.28" stroke-opacity="1.00" stroke-linejoin="round"/>
<path d="M1809.63,2179.60 L1818.77,2174.11" fill="none" stroke="rgb(255, 255, 255)" stroke-width="21.28" stroke-opacity="1.00" stroke-linejoin="round"/>
<path d="M1845.59,2155.22 L1855.34,2150.95" fill="none" stroke="rgb(255, 255, 255)" stroke-width="21.28" stroke-opacity="1.00" stroke-linejoin="round"/>
<path d="M1877.89,2133.88 L1885.81,2127.18" fill="none" stroke="rgb(255, 255, 255)" stroke-width="21.28" stroke-opacity="1.00" stroke-linejoin="round"/>
<path d="M1905.93,2108.28 L1913.85,2103.41" fill="none" stroke="rgb(255, 255, 255)" stroke-width="21.28" stroke-opacity="1.00" stroke-linejoin="round"/>
<path d="M1939.45,2083.29 L1946.76,2077.20" fill="none" stroke="rgb(255, 255, 255)" stroke-width="21.28" stroke-opacity="1.00" stroke-linejoin="round"/>
<path d="M1972.97,2056.48 L1980.90,2048.55" fill="none" stroke="rgb(255, 255, 255)" stroke-width="21.28" stroke-opacity="1.00" stroke-linejoin="round"/>
<path d="M2004.06,2023.56 L2010.15,2018.69" fill="none" stroke="rgb(255, 255, 255)" stroke-width="21.28" stroke-opacity="1.00" stroke-linejoin="round"/>
<path d="M2036.36,1996.13 L2043.07,1989.43" fill="none" stroke="rgb(255, 255, 255)" stroke-width="21.28" stroke-opacity="1.00" stroke-linejoin="round"/>
<path d="M2064.40,1966.27 L2069.27,1959.56" fill="none" stroke="rgb(255, 255, 255)" stroke-width="21.28" stroke-opacity="1.00" stroke-linejoin="round"/>
<path d="M2089.39,1932.75 L2094.87,1926.04" fill="none" stroke="rgb(255, 255, 255)" stroke-width="21.28" stroke-opacity="1.00" stroke-linejoin="round"/>
<path d="M2119.86,1896.17 L2125.96,1889.47" fill="none" stroke="rgb(255, 255, 255)" stroke-width="21.28" stroke-opacity="1.00" stroke-linejoin="round"/>
<path d="M2139.98,1863.87 L2145.46,1854.73" fill="none" stroke="rgb(255, 255, 255)" stroke-width="21.28" stroke-opacity="1.00" stroke-linejoin="round"/>
<path d="M2162.53,1821.21 L2168.01,1813.28" fill="none" stroke="rgb(255, 255, 255)" stroke-width="21.28" stroke-opacity="1.00" stroke-linejoin="round"/>
<path d="M2187.52,1785.24 L2191.18,1776.71" fill="none" stroke="rgb(255, 255, 255)" stroke-width="21.28" stroke-opacity="1.00" stroke-linejoin="round"/>
<path d="M2205.19,1753.55 L2208.85,1745.63" fill="none" stroke="rgb(255, 255, 255)" stroke-width="21.28" stroke-opacity="1.00" stroke-linejoin="round"/>
<path d="M2226.53,1713.93 L2228.97,1707.23" fill="none" stroke="rgb(255, 255, 255)" stroke-width="21.28" stroke-opacity="1.00" stroke-linejoin="round"/>
<path d="M2239.94,1668.83 L2242.98,1659.69" fill="none" stroke="rgb(255, 255, 255)" stroke-width="21.28" stroke-opacity="1.00" stroke-linejoin="round"/>
<path d="M2251.52,1628.60 L2252.74,1622.51" fill="none" stroke="rgb(255, 255, 255)" stroke-width="21.28" stroke-opacity="1.00" stroke-linejoin="round"/>
<path d="M2261.27,1594.47 L2263.71,1582.89" fill="none" stroke="rgb(255, 255, 255)" stroke-width="21.28" stroke-opacity="1.00" stroke-linejoin="round"/>
<path d="M2272.85,1554.85 L2274.68,1543.88" fill="none" stroke="rgb(255, 255, 255)" stroke-width="21.28" stroke-opacity="1.00" stroke-linejoin="round"/>
<path d="M2281.99,1516.45 L2284.43,1506.70" fill="none" stroke="rgb(255, 255, 255)" stroke-width="21.28" stroke-opacity="1.00" stroke-linejoin="round"/>
<path d="M2293.57,1476.22 L2296.62,1467.08" fill="none" stroke="rgb(255, 255, 255)" stroke-width="21.28" stroke-opacity="1.00" stroke-linejoin="round"/>
<path d="M2302.11,1445.75 L2303.93,1434.78" fill="none" stroke="rgb(255, 255, 255)" stroke-width="21.28" stroke-opacity="1.00" stroke-linejoin="round"/>
<path d="M2306.98,1409.79 L2307.59,1401.87" fill="none" stroke="rgb(255, 255, 255)" stroke-width="21.28" stroke-opacity="1.00" stroke-linejoin="round"/>
<path d="M2310.03,1378.70 L2310.03,1369.56" fill="none" stroke="rgb(255, 255, 255)" stroke-width="21.28" stroke-opacity="1.00" stroke-linejoin="round"/>
<path d="M2312.47,1337.26 L2313.69,1326.29" fill="none" stroke="rgb(255, 255, 255)" stroke-width="21.28" stroke-opacity="1.00" stroke-linejoin="round"/>
<path d="M2314.30,1295.20 L2314.30,1290.33" fill="none" stroke="rgb(255, 255, 255)" stroke-width="21.28" stroke-opacity="1.00" stroke-linejoin="round"/>
<path d="M2314.30,1252.54 L2314.30,1242.78" fill="none" stroke="rgb(255, 255, 255)" stroke-width="21.28" stroke-opacity="1.00" stroke-linejoin="round"/>
<path d="M2313.08,1208.04 L2312.47,1197.68" fill="none" stroke="rgb(255, 255, 255)" stroke-width="21.28" stroke-opacity="1.00" stroke-linejoin="round"/>
<path d="M2311.25,1165.38 L2309.42,1153.80" fill="none" stroke="rgb(255, 255, 255)" stroke-width="21.28" stroke-opacity="1.00" stroke-linejoin="round"/>
<path d="M2305.15,1120.27 L2303.93,1106.25" fill="none" stroke="rgb(255, 255, 255)" stroke-width="21.28" stroke-opacity="1.00" stroke-linejoin="round"/>
<path d="M2298.45,1080.66 L2296.01,1069.07" fill="none" stroke="rgb(255, 255, 255)" stroke-width="21.28" stroke-opacity="1.00" stroke-linejoin="round"/>
<path d="M2286.87,1037.99 L2285.04,1026.41" fill="none" stroke="rgb(255, 255, 255)" stroke-width="21.28" stroke-opacity="1.00" stroke-linejoin="round"/>
<path d="M2275.29,999.59 L2272.24,991.06" fill="none" stroke="rgb(255, 255, 255)" stroke-width="21.28" stroke-opacity="1.00" stroke-linejoin="round"/>
<path d="M2259.44,944.74 L2261.88,951.44" fill="none" stroke="rgb(255, 255, 255)" stroke-width="21.28" stroke-opacity="1.00" stroke-linejoin="round"/>
<path d="M2241.77,895.37 L2244.81,902.07" fill="none" stroke="rgb(255, 255, 255)" stroke-width="21.28" stroke-opacity="1.00" stroke-linejoin="round"/>
<path d="M2227.75,855.75 L2230.79,861.84" fill="none" stroke="rgb(255, 255, 255)" stroke-width="21.28" stroke-opacity="1.00" stroke-linejoin="round"/>
<path d="M2209.46,811.25 L2213.73,819.79" fill="none" stroke="rgb(255, 255, 255)" stroke-width="21.28" stroke-opacity="1.00" stroke-linejoin="round"/>
<path d="M2183.25,760.05 L2186.91,766.15" fill="none" stroke="rgb(255, 255, 255)" stroke-width="21.28" stroke-opacity="1.00" stroke-linejoin="round"/>
<path d="M2152.78,705.81 L2155.82,711.90" fill="none" stroke="rgb(255, 255, 255)" stroke-width="21.28" stroke-opacity="1.00" stroke-linejoin="round"/>
<path d="M2121.08,663.14 L2128.40,671.07" fill="none" stroke="rgb(255, 255, 255)" stroke-width="21.28" stroke-opacity="1.00" stroke-linejoin="round"/>
<path d="M2088.17,619.26 L2094.26,625.96" fill="none" stroke="rgb(255, 255, 255)" stroke-width="21.28" stroke-opacity="1.00" stroke-linejoin="round"/>
<path d="M2057.08,571.72 L2061.35,577.81" fill="none" stroke="rgb(255, 255, 255)" stroke-width="21.28" stroke-opacity="1.00" stroke-linejoin="round"/>
<path d="M2021.12,526.61 L2026.61,531.49" fill="none" stroke="rgb(255, 255, 255)" stroke-width="21.28" stroke-opacity="1.00" stroke-linejoin="round"/>
<path d="M1980.29,483.34 L1985.77,490.04" fill="none" stroke="rgb(255, 255, 255)" stroke-width="21.28" stroke-opacity="1.00" stroke-linejoin="round"/>
<path d="M1941.28,449.21 L1948.59,454.69" fill="none" stroke="rgb(255, 255, 255)" stroke-width="21.28" stroke-opacity="1.00" stroke-linejoin="round"/>
<path d="M1894.96,410.20 L1902.88,415.07" fill="none" stroke="rgb(255, 255, 255)" stroke-width="21.28" stroke-opacity="1.00" stroke-linejoin="round"/>
<path d="M1848.63,378.50 L1855.34,384.60" fill="none" stroke="rgb(255, 255, 255)" stroke-width="21.28" stroke-opacity="1.00" stroke-linejoin="round"/>
<path d="M1807.80,349.25 L1816.33,354.12" fill="none" stroke="rgb(255, 255, 255)" stroke-width="21.28" stroke-opacity="1.00" stroke-linejoin="round"/>
<path d="M1760.86,320.60 L1768.79,325.48" fill="none" stroke="rgb(255, 255, 255)" stroke-width="21.28" stroke-opacity="1.00" stroke-linejoin="round"/>
<path d="M1716.98,297.44 L1726.73,301.10" fill="none" stroke="rgb(255, 255, 255)" stroke-width="21.28" stroke-opacity="1.00" stroke-linejoin="round"/>
<path d="M1666.39,275.50 L1676.14,277.94" fill="none" stroke="rgb(255, 255, 255)" stroke-width="21.28" stroke-opacity="1.00" stroke-linejoin="round"/>
<path d="M1624.94,257.21 L1633.48,259.65" fill="none" stroke="rgb(255, 255, 255)" stroke-width="21.28" stroke-opacity="1.00" stroke-linejoin="round"/>
<path d="M1577.40,237.10 L1586.55,241.36" fill="none" stroke="rgb(255, 255, 255)" stroke-width="21.28" stroke-opacity="1.00" stroke-linejoin="round"/>
<path d="M1531.69,220.64 L1540.22,223.08" fill="none" stroke="rgb(255, 255, 255)" stroke-width="21.28" stroke-opacity="1.00" stroke-linejoin="round"/>
<path d="M1493.90,206.01 L1500.61,208.45" fill="none" stroke="rgb(255, 255, 255)" stroke-width="21.28" stroke-opacity="1.00" stroke-linejoin="round"/>
<path d="M1440.87,196.87 L1451.84,199.92" fill="none" stroke="rgb(255, 255, 255)" stroke-width="21.28" stroke-opacity="1.00" stroke-linejoin="round"/>
<path d="M1383.58,192.60 L1391.50,193.82" fill="none" stroke="rgb(255, 255, 255)" stroke-width="21.28" stroke-opacity="1.00" stroke-linejoin="round"/>
<path d="M1325.07,185.29 L1335.43,184.68" fill="none" stroke="rgb(255, 255, 255)" stroke-width="21.28" stroke-opacity="1.00" stroke-linejoin="round"/>
<path d="M1261.68,182.85 L1276.31,182.24" fill="none" stroke="rgb(255, 255, 255)" stroke-width="21.28" stroke-opacity="1.00" stroke-linejoin="round"/>
<path d="M1204.39,179.80 L1212.31,179.19" fill="none" stroke="rgb(255, 255, 255)" stroke-width="21.28" stroke-opacity="1.00" stroke-linejoin="round"/>
<path d="M1159.28,181.02 L1166.60,180.41" fill="none" stroke="rgb(255, 255, 255)" stroke-width="21.28" stroke-opacity="1.00" stroke-linejoin="round"/>
<path d="M1105.04,190.78 L1114.79,189.56" fill="none" stroke="rgb(255, 255, 255)" stroke-width="21.28" stroke-opacity="1.00" stroke-linejoin="round"/>
<path d="M1050.18,201.75 L1059.32,199.92" fill="none" stroke="rgb(255, 255, 255)" stroke-width="21.28" stroke-opacity="1.00" stroke-linejoin="round"/>
<path d="M988.62,215.77 L999.59,212.72" fill="none" stroke="rgb(255, 255, 255)" stroke-width="21.28" stroke-opacity="1.00" stroke-linejoin="round"/>
<path d="M930.11,235.27 L940.47,231.00" fill="none" stroke="rgb(255, 255, 255)" stroke-width="21.28" stroke-opacity="1.00" stroke-linejoin="round"/>
<path d="M877.08,254.77 L888.05,249.29" fill="none" stroke="rgb(255, 255, 255)" stroke-width="21.28" stroke-opacity="1.00" stroke-linejoin="round"/>
<path d="M828.32,277.33 L838.07,272.45" fill="none" stroke="rgb(255, 255, 255)" stroke-width="21.28" stroke-opacity="1.00" stroke-linejoin="round"/>
<path d="M789.92,296.83 L797.84,292.56" fill="none" stroke="rgb(255, 255, 255)" stroke-width="21.28" stroke-opacity="1.00" stroke-linejoin="round"/>
<path d="M745.43,327.94 L755.31,323.57" fill="none" stroke="rgb(255, 255, 255)" stroke-width="21.28" stroke-opacity="1.00" stroke-linejoin="round"/>
<path d="M697.62,361.29 L704.93,357.03" fill="none" stroke="rgb(255, 255, 255)" stroke-width="21.28" stroke-opacity="1.00" stroke-linejoin="round"/>
<path d="M651.47,392.33 L660.61,385.02" fill="none" stroke="rgb(255, 255, 255)" stroke-width="21.28" stroke-opacity="1.00" stroke-linejoin="round"/>
<path d="M612.38,428.10 L620.28,420.46" fill="none" stroke="rgb(255, 255, 255)" stroke-width="21.28" stroke-opacity="1.00" stroke-linejoin="round"/>
<path d="M517.47,527.83 L527.22,518.08" fill="none" stroke="rgb(255, 255, 255)" stroke-width="21.28" stroke-opacity="1.00" stroke-linejoin="round"/>
<path d="M553.43,488.26 L561.36,479.73" fill="none" stroke="rgb(255, 255, 255)" stroke-width="21.28" stroke-opacity="1.00" stroke-linejoin="round"/>
<path d="M581.47,454.69 L586.95,449.82" fill="none" stroke="rgb(255, 255, 255)" stroke-width="21.28" stroke-opacity="1.00" stroke-linejoin="round"/>
<path d="M2064.05,1139.01 C2065.96,1138.30 2067.50,1135.68 2070.10,1128.83 C2071.59,1124.97 2076.96,1119.01 2080.15,1116.98 C2083.21,1115.11 2090.84,1112.30 2094.87,1111.57 C2098.98,1110.87 2106.26,1111.61 2109.19,1113.01 C2112.06,1114.45 2116.88,1119.70 2118.71,1123.38 C2120.52,1127.14 2122.49,1134.87 2122.52,1138.38 C2122.50,1141.84 2120.47,1148.42 2118.54,1151.36 C2117.60,1152.76 2102.98,1168.60 2098.23,1174.16 C2091.73,1181.90 2083.44,1194.09 2080.54,1200.44 C2080.44,1200.65 2077.80,1206.82 2077.21,1207.86 C2076.44,1209.17 2074.58,1210.90 2073.70,1211.08 C2072.82,1211.22 2070.68,1210.22 2069.68,1209.23 C2068.93,1208.46 2062.98,1200.81 2058.84,1196.97 C2051.01,1189.78 2026.05,1175.01 2019.32,1171.24 C2015.67,1169.13 2010.08,1164.39 2007.58,1161.30 C2005.55,1158.75 2001.88,1152.16 2000.42,1148.43 C1998.85,1144.31 1997.69,1137.65 1998.03,1134.50 C1998.25,1132.83 1999.18,1130.13 2000.07,1128.65 C2001.84,1125.85 2007.57,1121.61 2011.58,1119.90 C2015.05,1118.46 2021.85,1117.24 2025.45,1117.57 C2029.13,1117.95 2035.17,1120.52 2039.26,1122.97 C2046.37,1127.30 2057.49,1137.30 2058.87,1138.17 C2060.30,1139.04 2062.80,1139.40 2064.05,1139.01 Z" fill="none" stroke="rgb(255, 255, 255)" stroke-width="12.77" stroke-opacity="1.00" stroke-linejoin="miter"/>
<path d="M2020.95,1141.24 C2040.29,1153.96 2053.24,1163.93 2058.77,1169.51 C2060.68,1171.45 2066.47,1178.26 2068.17,1179.85 C2068.92,1180.52 2069.98,1180.75 2069.89,1180.03 C2069.77,1178.96 2068.17,1174.07 2068.51,1172.19 C2069.21,1168.36 2074.93,1160.41 2076.89,1158.25 C2079.70,1155.20 2092.79,1143.38 2095.99,1140.50" fill="none" stroke="rgb(255, 255, 255)" stroke-width="54.45" stroke-opacity="1.00" stroke-linejoin="miter"/>
</g>
</svg>
