<?xml version="1.0" encoding="UTF-8" standalone="no"?>
<!DOCTYPE svg PUBLIC "-//W3C//DTD SVG 1.1//EN" "http://www.w3.org/Graphics/SVG/1.1/DTD/svg11.dtd">
<svg width="514.29" height="514.29" viewBox="0.00 0.00 2500.00 2500.00" xmlns="http://www.w3.org/2000/svg" xmlns:xlink="http://www.w3.org/1999/xlink">
<g stroke-linecap="round" id="Ericiosa_logo_1_-_copia_3">
<path d="M1666.33,1597.53 C1633.20,1597.60 1549.09,1597.79 1498.13,1597.89 C1454.66,1597.81 1336.53,1596.04 1333.03,1596.17 C1326.24,1596.53 1320.08,1599.62 1318.74,1601.86 C1317.57,1603.95 1316.65,1611.45 1313.68,1618.42 C1311.27,1624.07 1302.63,1637.99 1297.09,1644.70 C1285.33,1658.78 1256.42,1682.37 1230.71,1700.71 C1224.47,1705.18 1204.28,1712.54 1184.03,1716.96 C1163.63,1721.11 1132.41,1723.62 1105.30,1724.22 C1079.83,1724.35 1043.54,1721.89 1026.07,1718.32 C1005.38,1714.06 967.89,1698.75 953.19,1688.95 C936.60,1677.77 901.67,1641.86 893.11,1631.48 C887.91,1625.14 877.56,1610.25 874.69,1604.19 C866.41,1586.37 845.33,1504.14 843.47,1490.42 C841.67,1476.68 841.80,1462.32 843.03,1450.04 C843.81,1440.95 841.91,1428.59 843.47,1427.73 C843.47,1427.73 1062.09,1425.77 1157.33,1425.28 C1246.59,1425.17 1437.63,1425.41 1539.37,1425.75 C1621.16,1426.29 1700.29,1425.12 1700.29,1425.12 C1702.25,1424.13 1703.42,1422.58 1703.87,1420.55 C1704.31,1418.17 1702.95,1399.10 1703.55,1390.79 C1705.48,1371.85 1709.30,1330.79 1708.12,1304.96 C1707.44,1291.01 1701.49,1243.39 1697.88,1220.97 C1694.30,1201.01 1685.92,1156.95 1681.66,1140.54 C1677.72,1125.57 1661.78,1081.79 1657.50,1071.66 C1649.37,1053.24 1631.45,1013.59 1621.92,996.71 C1615.10,984.70 1587.39,942.98 1576.83,928.98 C1564.53,912.96 1537.83,882.71 1524.35,869.60 C1509.31,855.05 1482.48,833.26 1462.55,819.05 C1445.52,807.48 1406.10,782.85 1394.68,776.87 C1378.98,768.66 1332.22,748.60 1322.98,744.89 C1301.29,736.30 1280.24,730.21 1255.01,724.70 C1234.63,720.70 1187.11,712.03 1175.78,710.62 C1153.68,708.03 1120.68,706.18 1102.09,706.70 C1091.53,707.04 1042.40,711.53 1022.12,714.17 C1002.04,717.15 962.72,725.59 943.57,731.18 C921.92,737.58 886.24,751.45 866.91,759.63 C847.42,768.32 812.78,786.06 793.89,798.05 C777.02,808.81 742.15,834.68 729.16,846.22 C714.77,859.20 686.27,887.86 673.00,901.97 C660.02,916.23 635.25,947.63 625.74,961.84 C614.22,979.16 599.33,1006.30 587.53,1030.10 C579.35,1047.23 562.68,1084.25 555.58,1104.36 C547.90,1126.23 537.89,1165.57 533.56,1187.01 C529.17,1210.42 513.65,1321.20 512.37,1347.14 C511.69,1362.56 514.23,1396.41 517.62,1422.82 C520.76,1443.74 527.52,1486.27 531.18,1507.87 C536.38,1535.96 543.72,1569.18 549.28,1584.96 C557.56,1608.11 600.09,1699.56 614.09,1723.91 C624.28,1741.56 648.55,1773.85 661.53,1790.13 C675.30,1806.95 703.22,1836.55 720.36,1851.67 C730.29,1860.39 774.38,1894.67 783.89,1900.91 C799.61,1911.18 840.52,1933.17 848.70,1937.12 C855.52,1940.38 903.35,1960.91 920.25,1966.61 C938.01,1972.56 979.28,1982.96 999.53,1987.48 C1025.00,1992.84 1064.83,1998.69 1083.80,1999.81 C1102.95,2000.88 1140.98,1999.47 1164.94,1996.88 C1184.11,1994.56 1220.97,1989.26 1240.51,1985.13 C1260.18,1980.82 1296.77,1969.98 1315.01,1963.89 C1325.27,1960.31 1374.36,1939.26 1383.42,1934.74 C1400.58,1926.17 1432.35,1906.19 1452.80,1890.80 C1466.07,1880.51 1503.45,1848.90 1518.58,1835.42 C1538.12,1817.35 1562.94,1791.72 1573.02,1778.24 C1583.99,1763.48 1600.58,1735.82 1614.84,1709.88 C1644.70,1652.77 1654.89,1629.68 1664.13,1602.31 C1666.33,1596.12 1660.58,1607.11 1663.95,1605.70" fill="none" stroke="rgb(255, 255, 255)" stroke-width="64.78" stroke-opacity="1.00" stroke-linejoin="round"/>
<path d="M1057.68,978.43 C1065.20,977.80 1122.15,976.47 1134.97,976.83 C1157.78,977.51 1189.02,982.27 1211.56,989.71 C1231.26,996.22 1252.31,1004.52 1271.59,1016.72 C1282.09,1023.49 1297.87,1035.48 1304.69,1042.14 C1318.06,1055.38 1340.09,1084.80 1347.90,1100.86 C1355.68,1117.14 1363.18,1154.78 1366.08,1180.22 C1368.74,1206.47 1368.87,1246.36 1365.92,1250.10 C1364.90,1251.27 1348.13,1250.07 1342.44,1250.02 C1265.66,1249.99 1083.80,1250.20 978.74,1250.49 C939.21,1250.44 856.04,1250.10 854.94,1250.15 C849.33,1250.33 846.87,1249.37 846.30,1246.18 C846.09,1245.00 845.62,1225.70 845.22,1217.63 C844.81,1200.81 853.56,1158.07 859.15,1140.38 C864.58,1123.41 880.57,1092.16 894.02,1073.04 C901.15,1062.96 911.18,1050.68 918.84,1042.66 C926.10,1035.14 941.56,1023.28 950.60,1018.13 C963.82,1010.69 1008.33,990.05 1021.65,985.24 C1029.62,982.45 1044.02,979.63 1057.68,978.43 Z" fill="none" stroke="rgb(255, 255, 255)" stroke-width="64.78" stroke-opacity="1.00" stroke-linejoin="round"/>
<path d="M795.15,1335.00 C859.02,1333.74 1018.26,1330.63 1113.68,1328.78 C1219.01,1326.85 1401.13,1323.69 1477.96,1322.48 C1492.61,1322.30 1522.42,1322.04 1550.32,1320.29 C1555.12,1319.90 1559.54,1318.51 1561.79,1316.45 C1563.93,1314.33 1567.51,1306.65 1567.92,1303.36 C1568.21,1300.59 1560.61,1264.23 1556.54,1247.43 C1551.65,1228.78 1538.20,1181.37 1531.75,1164.00 C1523.52,1142.06 1502.70,1099.40 1490.11,1078.66 C1479.13,1060.71 1452.54,1025.84 1438.70,1010.24 C1424.80,994.65 1396.09,966.36 1377.26,949.72 C1363.67,938.07 1322.82,906.22 1307.85,896.04 C1290.66,884.39 1256.81,864.66 1240.14,856.62 C1220.29,847.32 1182.86,835.01 1162.95,831.23 C1143.07,827.52 1105.04,825.92 1084.97,827.94 C1065.64,829.92 1026.80,838.23 1007.13,844.55 C983.70,852.18 955.54,865.03 934.75,877.18 C918.26,886.82 885.06,909.39 868.37,922.00 C845.28,940.18 818.24,963.51 803.14,979.11 C788.12,994.67 761.21,1028.22 749.36,1046.16 C735.75,1066.80 719.03,1101.18 712.81,1116.51 C705.70,1134.14 693.85,1171.10 689.09,1190.44 C684.36,1209.74 677.13,1250.83 675.01,1270.97 C672.90,1291.66 671.64,1333.85 672.50,1355.32 C673.42,1376.79 678.59,1424.28 682.14,1441.58 C686.48,1461.51 697.01,1501.81 703.20,1522.19 C709.99,1542.70 725.45,1584.18 734.10,1605.13 C743.35,1626.23 763.20,1667.64 773.41,1687.02 C783.73,1705.70 804.94,1739.97 815.89,1755.17 C826.83,1770.33 851.34,1799.22 863.72,1810.68 C880.72,1826.33 916.07,1850.34 934.30,1858.64 C952.64,1866.90 988.56,1875.52 1009.87,1877.58 C1029.52,1879.41 1070.48,1878.58 1091.82,1875.89 C1115.07,1872.88 1156.11,1862.62 1173.58,1857.05 C1191.11,1851.46 1231.16,1835.97 1256.65,1824.82 C1281.28,1813.24 1392.43,1785.82 1403.56,1751.88 C1411.77,1726.86 1444.16,1722.47 1466.44,1716.28 C1508.65,1704.55 1502.64,1701.60 1505.68,1700.71" fill="none" stroke="rgb(255, 255, 255)" stroke-width="276.92" stroke-opacity="1.00" stroke-linejoin="miter"/>
<path d="M1750.51,647.48 C1755.50,645.62 1759.52,638.78 1766.31,620.89 C1770.20,610.80 1784.23,595.23 1792.56,589.93 C1800.56,585.05 1820.49,577.71 1831.01,575.80 C1841.75,573.97 1860.77,575.90 1868.42,579.56 C1875.92,583.32 1888.51,597.04 1893.29,606.65 C1898.02,616.47 1903.16,636.66 1903.24,645.83 C1903.19,654.87 1897.89,672.06 1892.85,679.74 C1890.39,683.40 1852.20,724.77 1839.79,739.30 C1822.81,759.52 1801.16,791.36 1793.58,807.95 C1793.58,807.95 1786.42,824.61 1784.88,827.33 C1782.87,830.75 1778.01,835.27 1775.71,835.74 C1773.42,836.11 1767.82,833.50 1765.21,830.91 C1763.25,828.90 1747.71,808.91 1736.90,798.88 C1716.44,780.10 1651.24,741.52 1633.66,731.67 C1624.13,726.16 1609.52,713.78 1602.99,705.71 C1597.69,699.04 1588.10,681.83 1584.29,672.09 C1580.19,661.32 1577.16,643.93 1578.05,635.70 C1578.62,631.33 1581.05,624.28 1583.38,620.42 C1588.00,613.10 1602.97,602.03 1613.44,597.56 C1622.51,593.80 1640.27,590.61 1649.67,591.47 C1659.29,592.46 1675.06,599.18 1685.75,605.58 C1704.32,616.89 1733.37,643.01 1736.97,645.28 C1740.71,647.56 1747.24,648.50 1750.51,647.48 Z" fill="none" stroke="rgb(255, 255, 255)" stroke-width="33.36" stroke-opacity="1.00" stroke-linejoin="miter"/>
<path d="M1637.92,653.30 C1688.44,686.53 1722.27,712.58 1736.71,727.15 C1741.70,732.22 1756.83,750.01 1761.27,754.16 C1763.23,755.91 1766.00,756.51 1765.76,754.63 C1765.45,751.84 1761.27,739.06 1762.16,734.15 C1763.98,724.15 1778.93,703.38 1784.05,697.74 C1791.39,689.77 1825.58,658.89 1833.94,651.37" fill="none" stroke="rgb(255, 255, 255)" stroke-width="142.24" stroke-opacity="1.00" stroke-linejoin="miter"/>
</g>
</svg>
