<?xml version="1.0" encoding="UTF-8" standalone="no"?>
<!DOCTYPE svg PUBLIC "-//W3C//DTD SVG 1.1//EN" "http://www.w3.org/Graphics/SVG/1.1/DTD/svg11.dtd">
<svg width="514.29" height="514.29" viewBox="0.00 0.00 2500.00 2500.00" xmlns="http://www.w3.org/2000/svg" xmlns:xlink="http://www.w3.org/1999/xlink">
<g stroke-linecap="round" id="Ericiosa_logo_1_-_copia_3">
<path d="M1930.02,729.73 C1943.56,730.89 1973.31,736.16 1981.48,739.47 C1986.93,741.73 1996.65,747.99 2000.62,751.79 C2004.51,755.60 2011.28,765.29 2013.95,770.89 C2017.04,777.53 2026.90,813.02 2027.37,815.85 C2028.69,823.96 2028.74,837.89 2027.39,841.87 C2026.63,843.97 2024.31,847.05 2022.82,848.08 C2020.66,849.43 2013.92,850.03 2008.97,849.22 C1999.70,847.70 1968.26,847.58 1956.60,847.71 C1927.48,848.74 1856.42,851.28 1853.90,851.12 C1851.87,850.95 1846.05,849.70 1844.68,848.95 C1841.30,846.93 1839.24,838.87 1838.56,830.59 C1837.38,812.44 1838.27,737.97 1838.63,736.97 C1839.63,734.51 1844.25,730.92 1847.57,729.92 C1850.87,728.98 1916.37,728.59 1930.02,729.73 Z" fill="none" stroke="rgb(255, 255, 255)" stroke-width="39.35" stroke-opacity="1.00" stroke-linejoin="round"/>
<path d="M1714.24,939.62 C1719.22,939.19 1722.89,939.64 1723.76,941.21 C1724.21,942.08 1724.27,1091.04 1724.02,1146.59 C1723.95,1151.09 1723.76,1163.40 1723.76,1163.40 C1722.99,1165.34 1717.18,1164.97 1709.88,1164.62 C1699.07,1164.15 1674.52,1163.15 1660.89,1162.94 C1645.12,1163.05 1621.70,1164.56 1608.78,1166.51 C1593.97,1168.76 1573.63,1174.78 1563.95,1180.30 C1558.94,1183.24 1549.21,1190.96 1544.75,1195.79 C1537.51,1203.72 1522.68,1229.78 1519.81,1237.84 C1517.22,1245.31 1515.17,1257.25 1515.01,1265.20 C1514.90,1271.13 1514.30,1281.65 1513.98,1287.16 C1513.76,1290.17 1510.93,1311.56 1510.30,1325.75 C1509.60,1346.20 1509.24,1473.68 1509.11,1530.69 C1509.14,1587.83 1509.49,1698.52 1509.95,1702.07 C1510.40,1705.91 1509.78,1708.47 1507.95,1709.28 C1505.87,1710.10 1334.65,1709.34 1334.02,1709.37 C1330.62,1709.43 1329.02,1708.77 1328.65,1706.85 C1328.65,1706.85 1329.37,1581.55 1329.64,1529.09 C1329.95,1463.73 1330.76,1342.97 1331.24,1287.59 C1331.54,1265.24 1332.46,1207.20 1332.54,1205.34 C1333.37,1187.73 1336.68,1158.64 1338.97,1149.01 C1341.25,1139.98 1347.89,1117.84 1350.09,1112.60 C1354.38,1102.72 1365.67,1079.03 1370.50,1071.62 C1378.16,1059.97 1392.00,1045.12 1403.08,1035.63 C1410.88,1028.91 1433.29,1012.14 1444.13,1004.87 C1455.01,997.83 1474.31,986.66 1488.37,979.93 C1501.21,974.03 1518.74,967.12 1534.39,961.74 C1548.13,957.41 1568.70,951.92 1580.98,949.49 C1599.27,946.02 1657.37,941.08 1678.14,940.45 C1690.06,940.27 1713.13,939.73 1714.24,939.62 Z" fill="none" stroke="rgb(255, 255, 255)" stroke-width="39.35" stroke-opacity="1.00" stroke-linejoin="round"/>
<path d="M1852.30,945.97 C1854.38,945.14 2025.61,945.91 2026.23,945.87 C2029.63,945.83 2031.23,946.48 2031.60,948.41 C2031.60,948.41 2031.60,1063.38 2031.61,1108.97 C2031.66,1165.59 2031.75,1289.44 2031.82,1356.69 C2031.87,1420.15 2031.90,1536.01 2031.88,1588.37 C2031.80,1629.68 2031.60,1703.29 2031.63,1703.96 C2031.75,1707.29 2031.14,1708.91 2029.22,1709.28 C2029.22,1709.28 1959.87,1709.15 1929.55,1709.16 C1905.41,1709.21 1855.93,1709.77 1854.87,1709.64 C1852.79,1709.37 1851.41,1708.72 1850.71,1707.69 C1850.71,1707.69 1850.11,1590.48 1850.00,1543.53 C1850.00,1484.72 1850.12,1358.50 1850.25,1291.09 C1850.35,1232.33 1850.54,1125.98 1850.62,1078.41 C1850.65,1058.79 1850.74,1020.50 1850.82,1001.83 C1851.30,966.93 1849.98,948.83 1849.98,948.83 C1850.31,947.46 1851.09,946.51 1852.30,945.97 Z" fill="none" stroke="rgb(255, 255, 255)" stroke-width="39.35" stroke-opacity="1.00" stroke-linejoin="round"/>
<path d="M1419.88,1616.44 C1419.26,1577.19 1417.80,1479.20 1416.96,1420.45 C1416.83,1392.65 1416.93,1335.49 1417.14,1306.12 C1417.72,1277.83 1419.56,1210.51 1421.10,1197.82 C1422.58,1185.89 1427.53,1164.18 1430.99,1154.42 C1434.48,1144.69 1444.49,1125.46 1451.38,1116.56 C1455.51,1111.27 1464.76,1101.83 1469.90,1097.66 C1475.07,1093.51 1486.40,1086.34 1492.59,1083.31 C1501.33,1079.07 1534.12,1068.71 1543.43,1066.22 C1554.87,1063.25 1577.88,1059.10 1588.04,1059.64 C1596.77,1060.16 1609.70,1063.84 1615.48,1067.49 C1621.25,1071.19 1627.70,1073.19 1630.39,1072.19 C1631.60,1071.68 1634.11,1069.35 1634.85,1067.97 C1636.53,1064.60 1637.37,1053.45 1636.84,1042.94 C1636.47,1036.05 1635.92,1024.44 1635.69,1019.76" fill="none" stroke="rgb(255, 255, 255)" stroke-width="213.11" stroke-opacity="1.00" stroke-linejoin="miter"/>
<path d="M1943.54,1015.00 C1943.54,1015.00 1940.37,1648.18 1940.37,1648.18" fill="none" stroke="rgb(255, 255, 255)" stroke-width="175.90" stroke-opacity="1.00" stroke-linejoin="round"/>
<path d="M1904.35,788.86 C1904.35,788.86 1972.69,799.54 1972.69,799.54" fill="none" stroke="rgb(255, 255, 255)" stroke-width="124.92" stroke-opacity="1.00" stroke-linejoin="round"/>
<path d="M1115.62,1449.22 C1094.62,1449.27 1041.30,1449.39 1009.00,1449.45 C981.44,1449.40 906.57,1448.28 904.35,1448.36 C900.04,1448.59 896.14,1450.55 895.29,1451.97 C894.55,1453.30 893.97,1458.05 892.08,1462.47 C890.56,1466.05 885.08,1474.87 881.57,1479.13 C874.11,1488.05 855.78,1503.00 839.49,1514.63 C835.53,1517.46 822.73,1522.13 809.90,1524.93 C796.97,1527.56 777.18,1529.15 759.99,1529.53 C743.85,1529.61 720.85,1528.06 709.77,1525.79 C696.66,1523.09 672.90,1513.39 663.58,1507.18 C653.06,1500.09 630.92,1477.32 625.49,1470.75 C622.20,1466.72 615.64,1457.29 613.82,1453.44 C608.57,1442.15 595.21,1390.03 594.03,1381.33 C592.89,1372.62 592.97,1363.52 593.75,1355.73 C594.25,1349.97 593.04,1342.14 594.03,1341.59 C594.03,1341.59 732.61,1340.35 792.98,1340.04 C849.56,1339.97 970.65,1340.12 1035.14,1340.33 C1086.99,1340.68 1137.14,1339.94 1137.14,1339.94 C1138.38,1339.31 1139.13,1338.33 1139.41,1337.04 C1139.69,1335.53 1138.83,1323.45 1139.21,1318.18 C1140.44,1306.18 1142.86,1280.15 1142.11,1263.77 C1141.68,1254.93 1137.90,1224.74 1135.62,1210.53 C1133.35,1197.88 1128.04,1169.95 1125.34,1159.55 C1122.84,1150.06 1112.74,1122.31 1110.02,1115.89 C1104.87,1104.21 1093.51,1079.08 1087.47,1068.38 C1083.15,1060.76 1065.58,1034.32 1058.89,1025.45 C1051.09,1015.30 1034.17,996.12 1025.62,987.81 C1016.08,978.59 999.08,964.78 986.45,955.77 C975.65,948.43 950.66,932.82 943.43,929.03 C933.48,923.83 903.84,911.11 897.97,908.76 C884.23,903.31 870.89,899.45 854.89,895.96 C841.97,893.43 811.85,887.93 804.67,887.04 C790.66,885.40 769.75,884.22 757.96,884.55 C751.27,884.77 720.12,887.61 707.27,889.29 C694.54,891.17 669.62,896.52 657.48,900.07 C643.76,904.12 621.14,912.92 608.88,918.10 C596.53,923.61 574.57,934.86 562.60,942.46 C551.91,949.28 529.80,965.67 521.57,972.99 C512.45,981.22 494.38,999.38 485.97,1008.32 C477.74,1017.37 462.04,1037.27 456.02,1046.28 C448.72,1057.25 439.28,1074.46 431.79,1089.54 C426.61,1100.41 416.05,1123.87 411.54,1136.62 C406.67,1150.48 400.33,1175.41 397.58,1189.01 C394.80,1203.84 384.97,1274.07 384.15,1290.51 C383.72,1300.28 385.33,1321.74 387.48,1338.48 C389.47,1351.74 393.76,1378.70 396.08,1392.39 C399.37,1410.19 404.02,1431.26 407.55,1441.26 C412.80,1455.93 439.76,1513.90 448.63,1529.33 C455.09,1540.52 470.47,1560.99 478.70,1571.31 C487.43,1581.97 505.13,1600.73 515.99,1610.32 C522.28,1615.85 550.23,1637.57 556.26,1641.53 C566.23,1648.04 592.16,1661.98 597.34,1664.48 C601.66,1666.55 631.98,1679.56 642.70,1683.17 C653.96,1686.95 680.12,1693.54 692.95,1696.40 C709.09,1699.80 734.35,1703.51 746.37,1704.22 C758.50,1704.90 782.61,1704.00 797.80,1702.37 C809.95,1700.89 833.31,1697.53 845.70,1694.91 C858.17,1692.18 881.37,1685.31 892.92,1681.45 C899.43,1679.18 930.54,1665.84 936.29,1662.97 C947.17,1657.54 967.30,1644.87 980.27,1635.12 C988.68,1628.60 1012.38,1608.56 1021.96,1600.02 C1034.35,1588.56 1050.08,1572.32 1056.47,1563.77 C1063.42,1554.42 1073.94,1536.88 1082.98,1520.44 C1101.91,1484.24 1108.36,1469.61 1114.23,1452.25 C1115.62,1448.33 1111.97,1455.30 1114.11,1454.40" fill="none" stroke="rgb(255, 255, 255)" stroke-width="41.06" stroke-opacity="1.00" stroke-linejoin="round"/>
<path d="M729.81,1056.79 C734.58,1056.39 770.67,1055.55 778.80,1055.78 C793.26,1056.21 813.06,1059.22 827.35,1063.94 C839.84,1068.07 853.18,1073.33 865.40,1081.07 C872.06,1085.35 882.06,1092.95 886.38,1097.18 C894.86,1105.57 908.82,1124.22 913.77,1134.40 C918.71,1144.72 923.46,1168.58 925.30,1184.70 C926.98,1201.34 927.07,1226.63 925.20,1229.00 C924.55,1229.74 913.92,1228.98 910.31,1228.95 C861.65,1228.93 746.37,1229.06 679.77,1229.25 C654.72,1229.21 602.00,1229.00 601.30,1229.03 C597.74,1229.15 596.18,1228.53 595.82,1226.51 C595.69,1225.77 595.39,1213.53 595.14,1208.41 C594.88,1197.75 600.42,1170.66 603.97,1159.45 C607.41,1148.69 617.54,1128.89 626.07,1116.76 C630.59,1110.37 636.95,1102.59 641.80,1097.51 C646.40,1092.74 656.21,1085.22 661.94,1081.96 C670.31,1077.24 698.53,1064.16 706.97,1061.11 C712.03,1059.34 721.15,1057.55 729.81,1056.79 Z" fill="none" stroke="rgb(255, 255, 255)" stroke-width="41.06" stroke-opacity="1.00" stroke-linejoin="round"/>
<path d="M563.40,1282.81 C603.88,1282.02 704.82,1280.05 765.31,1278.87 C832.07,1277.65 947.52,1275.64 996.21,1274.88 C1005.50,1274.76 1024.40,1274.60 1042.08,1273.49 C1045.13,1273.24 1047.93,1272.36 1049.35,1271.05 C1050.71,1269.71 1052.98,1264.85 1053.24,1262.76 C1053.42,1261.00 1048.61,1237.95 1046.02,1227.31 C1042.93,1215.49 1034.40,1185.43 1030.31,1174.42 C1025.09,1160.51 1011.90,1133.47 1003.91,1120.32 C996.96,1108.95 980.10,1086.84 971.33,1076.96 C962.52,1067.07 944.32,1049.14 932.38,1038.59 C923.77,1031.21 897.88,1011.02 888.39,1004.57 C877.49,997.18 856.03,984.68 845.47,979.58 C832.88,973.68 809.16,965.89 796.54,963.48 C783.94,961.13 759.83,960.12 747.11,961.40 C734.86,962.66 710.24,967.92 697.77,971.93 C682.92,976.76 665.07,984.91 651.89,992.61 C641.44,998.72 620.39,1013.03 609.81,1021.02 C595.17,1032.55 578.04,1047.34 568.46,1057.22 C558.94,1067.09 541.89,1088.35 534.37,1099.73 C525.74,1112.81 515.15,1134.60 511.21,1144.32 C506.70,1155.49 499.18,1178.92 496.17,1191.18 C493.17,1203.41 488.59,1229.46 487.25,1242.23 C485.91,1255.34 485.11,1282.08 485.66,1295.69 C486.24,1309.30 489.51,1339.41 491.77,1350.37 C494.52,1363.00 501.19,1388.55 505.11,1401.47 C509.42,1414.47 519.22,1440.76 524.70,1454.04 C530.56,1467.42 543.15,1493.66 549.62,1505.95 C556.16,1517.79 569.61,1539.51 576.55,1549.15 C583.48,1558.76 599.01,1577.07 606.86,1584.34 C617.64,1594.26 640.05,1609.47 651.60,1614.74 C663.23,1619.97 686.00,1625.44 699.51,1626.74 C711.96,1627.90 737.92,1627.37 751.45,1625.67 C766.19,1623.76 792.20,1617.26 803.28,1613.73 C814.39,1610.19 839.77,1600.37 855.93,1593.30 C871.55,1585.96 942.00,1568.57 949.06,1547.06 C954.26,1531.20 974.79,1528.42 988.91,1524.50 C1015.67,1517.06 1011.86,1515.19 1013.78,1514.63" fill="none" stroke="rgb(255, 255, 255)" stroke-width="175.53" stroke-opacity="1.00" stroke-linejoin="miter"/>
<path d="M1168.98,847.01 C1172.14,845.84 1174.69,841.50 1178.99,830.15 C1181.46,823.76 1190.35,813.89 1195.63,810.53 C1200.70,807.44 1213.33,802.78 1220.01,801.58 C1226.81,800.42 1238.87,801.64 1243.72,803.96 C1248.47,806.34 1256.45,815.04 1259.48,821.13 C1262.48,827.36 1265.74,840.16 1265.79,845.97 C1265.76,851.70 1262.40,862.59 1259.20,867.46 C1257.64,869.78 1233.44,896.01 1225.57,905.21 C1214.81,918.03 1201.08,938.21 1196.28,948.73 C1196.28,948.73 1191.74,959.29 1190.77,961.01 C1189.49,963.18 1186.41,966.05 1184.95,966.35 C1183.50,966.58 1179.95,964.92 1178.30,963.28 C1177.06,962.01 1167.20,949.34 1160.35,942.98 C1147.38,931.08 1106.05,906.62 1094.91,900.38 C1088.87,896.88 1079.61,889.04 1075.47,883.92 C1072.11,879.70 1066.03,868.79 1063.61,862.61 C1061.02,855.79 1059.09,844.76 1059.66,839.54 C1060.02,836.78 1061.56,832.31 1063.04,829.86 C1065.97,825.22 1075.45,818.20 1082.09,815.37 C1087.84,812.98 1099.10,810.96 1105.06,811.51 C1111.15,812.14 1121.15,816.39 1127.93,820.45 C1139.70,827.62 1158.11,844.18 1160.40,845.62 C1162.77,847.06 1166.91,847.66 1168.98,847.01 Z" fill="none" stroke="rgb(134, 182, 184)" stroke-width="21.14" stroke-opacity="1.00" stroke-linejoin="miter"/>
<path d="M1097.61,850.70 C1129.63,871.77 1151.08,888.27 1160.23,897.51 C1163.40,900.73 1172.98,912.00 1175.80,914.64 C1177.04,915.74 1178.79,916.13 1178.65,914.93 C1178.45,913.16 1175.80,905.06 1176.36,901.95 C1177.52,895.61 1186.99,882.45 1190.24,878.87 C1194.89,873.82 1216.56,854.25 1221.86,849.48" fill="none" stroke="rgb(134, 182, 184)" stroke-width="90.16" stroke-opacity="1.00" stroke-linejoin="miter"/>
</g>
</svg>
