<?xml version="1.0" encoding="UTF-8" standalone="no"?>
<!DOCTYPE svg PUBLIC "-//W3C//DTD SVG 1.1//EN" "http://www.w3.org/Graphics/SVG/1.1/DTD/svg11.dtd">
<svg width="514.29" height="514.29" viewBox="0.00 0.00 2500.00 2500.00" xmlns="http://www.w3.org/2000/svg" xmlns:xlink="http://www.w3.org/1999/xlink">
<g stroke-linecap="round" id="Ericiosa_logo_1_-_copia_2">
<path d="M1634.51,394.23 C1643.04,394.96 1661.79,398.28 1666.94,400.37 C1670.37,401.79 1676.50,405.74 1679.00,408.13 C1681.45,410.53 1685.72,416.64 1687.40,420.17 C1689.35,424.35 1695.56,446.72 1695.86,448.50 C1696.69,453.61 1696.72,462.39 1695.87,464.90 C1695.39,466.22 1693.93,468.16 1692.99,468.81 C1691.63,469.66 1687.38,470.04 1684.26,469.53 C1678.42,468.57 1658.61,468.50 1651.26,468.58 C1632.91,469.23 1588.13,470.83 1586.54,470.73 C1585.26,470.62 1581.59,469.83 1580.73,469.36 C1578.60,468.09 1577.30,463.01 1576.87,457.79 C1576.13,446.35 1576.69,399.42 1576.92,398.79 C1577.55,397.24 1580.46,394.98 1582.55,394.35 C1584.63,393.76 1625.91,393.51 1634.51,394.23 Z" fill="none" stroke="rgb(255, 255, 255)" stroke-width="24.80" stroke-opacity="1.00" stroke-linejoin="round"/>
<path d="M1149.53,863.53 C1136.85,863.56 1104.65,863.63 1085.14,863.67 C1068.50,863.64 1023.28,862.96 1021.94,863.01 C1019.34,863.15 1016.98,864.33 1016.47,865.19 C1016.02,865.99 1015.67,868.86 1014.53,871.53 C1013.61,873.69 1010.30,879.02 1008.18,881.59 C1003.68,886.98 992.61,896.01 982.77,903.03 C980.38,904.74 972.65,907.56 964.90,909.25 C957.09,910.84 945.14,911.80 934.76,912.03 C925.01,912.08 911.12,911.14 904.43,909.77 C896.51,908.14 882.16,902.28 876.53,898.53 C870.18,894.25 856.81,880.50 853.53,876.53 C851.54,874.10 847.58,868.40 846.48,866.08 C843.31,859.26 835.24,827.78 834.53,822.53 C833.84,817.27 833.89,811.77 834.36,807.07 C834.66,803.59 833.93,798.86 834.53,798.53 C834.53,798.53 918.22,797.78 954.68,797.59 C988.85,797.55 1061.98,797.64 1100.93,797.77 C1132.24,797.98 1162.53,797.53 1162.53,797.53 C1163.28,797.15 1163.73,796.56 1163.90,795.78 C1164.07,794.87 1163.55,787.57 1163.78,784.39 C1164.52,777.14 1165.98,761.42 1165.53,751.53 C1165.27,746.19 1162.99,727.96 1161.61,719.38 C1160.24,711.74 1157.03,694.87 1155.40,688.59 C1153.89,682.86 1147.79,666.10 1146.15,662.22 C1143.04,655.17 1136.18,639.99 1132.53,633.53 C1129.92,628.93 1119.31,612.96 1115.27,607.60 C1110.56,601.47 1100.34,589.88 1095.18,584.86 C1089.42,579.29 1079.15,570.95 1071.52,565.51 C1065.00,561.08 1049.91,551.65 1045.54,549.36 C1039.53,546.22 1021.63,538.54 1018.09,537.12 C1009.79,533.83 1001.73,531.50 992.07,529.39 C984.27,527.86 966.08,524.54 961.74,524.00 C953.28,523.01 940.65,522.30 933.53,522.50 C929.49,522.63 910.68,524.35 902.92,525.36 C895.23,526.50 880.18,529.73 872.85,531.87 C864.56,534.32 850.90,539.63 843.50,542.76 C836.04,546.09 822.78,552.88 815.55,557.47 C809.09,561.59 795.74,571.49 790.77,575.91 C785.26,580.88 774.35,591.85 769.27,597.25 C764.30,602.72 754.82,614.74 751.18,620.18 C746.77,626.81 741.07,637.20 736.55,646.31 C733.42,652.87 727.04,667.04 724.32,674.74 C721.38,683.11 717.55,698.17 715.89,706.38 C714.21,715.34 708.27,757.75 707.78,767.68 C707.52,773.58 708.49,786.54 709.79,796.65 C710.99,804.66 713.58,820.94 714.98,829.21 C716.97,839.96 719.78,852.68 721.91,858.72 C725.08,867.58 741.36,902.59 746.72,911.91 C750.62,918.67 759.91,931.03 764.88,937.26 C770.15,943.70 780.84,955.03 787.40,960.82 C791.20,964.16 808.08,977.28 811.72,979.67 C817.74,983.60 833.40,992.02 836.53,993.53 C839.14,994.78 857.45,1002.64 863.92,1004.82 C870.72,1007.10 886.52,1011.08 894.27,1012.81 C904.02,1014.86 919.27,1017.10 926.53,1017.53 C933.86,1017.94 948.42,1017.40 957.59,1016.41 C964.93,1015.52 979.04,1013.49 986.52,1011.91 C994.05,1010.26 1008.06,1006.11 1015.04,1003.78 C1018.97,1002.41 1037.76,994.35 1041.23,992.62 C1047.80,989.34 1059.96,981.69 1067.79,975.80 C1072.87,971.86 1087.18,959.76 1092.97,954.60 C1100.45,947.68 1109.95,937.87 1113.81,932.71 C1118.01,927.06 1124.36,916.47 1129.82,906.54 C1141.25,884.68 1145.15,875.84 1148.69,865.36 C1149.53,862.99 1147.33,867.20 1148.62,866.66" fill="none" stroke="rgb(255, 255, 255)" stroke-width="24.80" stroke-opacity="1.00" stroke-linejoin="round"/>
<path d="M1498.53,526.50 C1501.67,526.23 1503.98,526.51 1504.53,527.50 C1504.81,528.05 1504.85,621.93 1504.69,656.94 C1504.65,659.77 1504.53,667.53 1504.53,667.53 C1504.04,668.75 1500.38,668.52 1495.78,668.30 C1488.97,668.00 1473.50,667.37 1464.91,667.24 C1454.97,667.31 1440.21,668.26 1432.07,669.49 C1422.74,670.91 1409.92,674.70 1403.82,678.18 C1400.66,680.03 1394.53,684.90 1391.72,687.94 C1387.16,692.94 1377.81,709.36 1376.00,714.44 C1374.37,719.15 1373.08,726.67 1372.98,731.68 C1372.91,735.42 1372.53,742.05 1372.33,745.52 C1372.19,747.42 1370.41,760.90 1370.01,769.84 C1369.57,782.73 1369.34,863.06 1369.26,898.99 C1369.28,935.00 1369.50,1004.75 1369.79,1006.99 C1370.07,1009.41 1369.68,1011.02 1368.53,1011.53 C1367.22,1012.05 1259.32,1011.57 1258.92,1011.59 C1256.78,1011.63 1255.77,1011.21 1255.54,1010.00 C1255.54,1010.00 1255.99,931.04 1256.16,897.98 C1256.36,856.79 1256.87,780.69 1257.17,745.79 C1257.36,731.71 1257.94,695.13 1257.99,693.96 C1258.51,682.86 1260.60,664.53 1262.04,658.46 C1263.48,652.77 1267.66,638.82 1269.05,635.52 C1271.75,629.29 1278.87,614.36 1281.91,609.69 C1286.74,602.35 1295.46,592.98 1302.44,587.00 C1307.36,582.77 1321.48,572.20 1328.31,567.62 C1335.17,563.18 1347.33,556.14 1356.19,551.90 C1364.28,548.18 1375.33,543.83 1385.19,540.44 C1393.85,537.71 1406.81,534.25 1414.55,532.72 C1426.08,530.53 1462.69,527.42 1475.78,527.02 C1483.29,526.91 1497.83,526.57 1498.53,526.50 Z" fill="none" stroke="rgb(255, 255, 255)" stroke-width="24.80" stroke-opacity="1.00" stroke-linejoin="round"/>
<path d="M1585.53,530.50 C1586.84,529.98 1694.75,530.46 1695.14,530.44 C1697.28,530.41 1698.29,530.82 1698.52,532.04 C1698.52,532.04 1698.52,604.50 1698.53,633.23 C1698.56,668.91 1698.62,746.96 1698.66,789.34 C1698.69,829.33 1698.71,902.34 1698.70,935.34 C1698.65,961.37 1698.52,1007.76 1698.54,1008.18 C1698.62,1010.28 1698.23,1011.30 1697.02,1011.53 C1697.02,1011.53 1653.32,1011.45 1634.21,1011.46 C1619.00,1011.49 1587.82,1011.84 1587.15,1011.76 C1585.84,1011.59 1584.97,1011.18 1584.53,1010.53 C1584.53,1010.53 1584.15,936.67 1584.08,907.08 C1584.08,870.02 1584.16,790.48 1584.24,748.00 C1584.30,710.97 1584.42,643.95 1584.47,613.97 C1584.49,601.61 1584.55,577.47 1584.60,565.70 C1584.90,543.71 1584.07,532.30 1584.07,532.30 C1584.28,531.44 1584.77,530.84 1585.53,530.50 Z" fill="none" stroke="rgb(255, 255, 255)" stroke-width="24.80" stroke-opacity="1.00" stroke-linejoin="round"/>
<path d="M916.53,626.53 C919.41,626.29 941.21,625.78 946.12,625.92 C954.85,626.18 966.81,628.00 975.44,630.85 C982.98,633.34 991.04,636.52 998.42,641.19 C1002.44,643.78 1008.48,648.37 1011.09,650.92 C1016.21,655.99 1024.64,667.25 1027.63,673.40 C1030.61,679.63 1033.48,694.04 1034.59,703.78 C1035.61,713.83 1035.66,729.10 1034.53,730.53 C1034.14,730.98 1027.72,730.52 1025.54,730.50 C996.15,730.49 926.53,730.57 886.31,730.68 C871.18,730.66 839.34,730.53 838.92,730.55 C836.77,730.62 835.83,730.25 835.61,729.03 C835.53,728.58 835.35,721.19 835.20,718.10 C835.04,711.66 838.39,695.30 840.53,688.53 C842.61,682.03 848.73,670.07 853.88,662.75 C856.61,658.89 860.45,654.19 863.38,651.12 C866.16,648.24 872.08,643.70 875.54,641.73 C880.60,638.88 897.64,630.98 902.74,629.14 C905.79,628.07 911.30,626.99 916.53,626.53 Z" fill="none" stroke="rgb(255, 255, 255)" stroke-width="24.80" stroke-opacity="1.00" stroke-linejoin="round"/>
<path d="M1313.03,953.03 C1312.64,928.29 1311.72,866.54 1311.19,829.52 C1311.11,812.00 1311.17,775.98 1311.30,757.47 C1311.67,739.64 1312.83,697.22 1313.80,689.22 C1314.73,681.70 1317.85,668.02 1320.03,661.87 C1322.23,655.74 1328.54,643.62 1332.88,638.01 C1335.48,634.68 1341.31,628.73 1344.55,626.10 C1347.81,623.49 1354.95,618.97 1358.85,617.06 C1364.36,614.39 1385.02,607.86 1390.89,606.29 C1398.10,604.42 1412.60,601.80 1419.00,602.14 C1424.50,602.47 1432.65,604.79 1436.29,607.09 C1439.93,609.42 1443.99,610.68 1445.69,610.05 C1446.45,609.73 1448.03,608.26 1448.50,607.39 C1449.56,605.27 1450.09,598.23 1449.75,591.61 C1449.52,587.27 1449.17,579.95 1449.03,577.00" fill="none" stroke="rgb(255, 255, 255)" stroke-width="134.30" stroke-opacity="1.00" stroke-linejoin="miter"/>
<path d="M1643.03,574.00 C1643.03,574.00 1641.03,973.03 1641.03,973.03" fill="none" stroke="rgb(255, 255, 255)" stroke-width="110.85" stroke-opacity="1.00" stroke-linejoin="round"/>
<path d="M816.03,763.03 C840.48,762.55 901.44,761.36 937.97,760.65 C978.29,759.91 1048.01,758.70 1077.42,758.24 C1083.03,758.17 1094.44,758.07 1105.12,757.40 C1106.96,757.25 1108.65,756.72 1109.51,755.93 C1110.33,755.12 1111.70,752.18 1111.86,750.92 C1111.97,749.86 1109.06,735.94 1107.50,729.51 C1105.63,722.37 1100.48,704.22 1098.01,697.57 C1094.86,689.17 1086.89,672.84 1082.07,664.90 C1077.87,658.03 1067.69,644.68 1062.39,638.71 C1057.07,632.74 1046.08,621.91 1038.87,615.54 C1033.67,611.08 1018.03,598.88 1012.30,594.98 C1005.72,590.52 992.76,582.97 986.38,579.89 C978.78,576.33 964.45,571.62 956.83,570.17 C949.22,568.75 934.66,568.14 926.98,568.91 C919.58,569.67 904.71,572.85 897.18,575.27 C888.21,578.19 877.43,583.11 869.47,587.76 C863.16,591.45 850.45,600.10 844.06,604.93 C835.22,611.89 824.87,620.82 819.09,626.79 C813.34,632.75 803.04,645.59 798.50,652.46 C793.29,660.36 786.89,673.52 784.51,679.39 C781.79,686.14 777.25,700.29 775.43,707.69 C773.62,715.08 770.85,730.81 770.04,738.52 C769.23,746.44 768.75,762.59 769.08,770.81 C769.43,779.03 771.41,797.21 772.77,803.83 C774.43,811.46 778.46,826.89 780.83,834.69 C783.43,842.54 789.35,858.42 792.66,866.44 C796.20,874.52 803.80,890.37 807.71,897.79 C811.66,904.94 819.78,918.06 823.97,923.88 C828.16,929.68 837.54,940.74 842.28,945.13 C848.79,951.12 862.32,960.31 869.30,963.49 C876.32,966.65 890.07,969.95 898.23,970.74 C905.75,971.44 921.43,971.12 929.60,970.09 C938.50,968.94 954.21,965.01 960.90,962.88 C967.61,960.74 982.94,954.81 992.70,950.54 C1002.13,946.11 1044.68,935.61 1048.94,922.62 C1052.08,913.04 1064.48,911.36 1073.01,908.99 C1089.17,904.50 1086.87,903.37 1088.03,903.03" fill="none" stroke="rgb(255, 255, 255)" stroke-width="106.01" stroke-opacity="1.00" stroke-linejoin="miter"/>
<path d="M1618.33,431.49 C1618.33,431.49 1661.40,438.22 1661.40,438.22" fill="none" stroke="rgb(255, 255, 255)" stroke-width="78.72" stroke-opacity="1.00" stroke-linejoin="round"/>
<path d="M765.99,1127.89 C771.13,1128.78 778.34,1131.20 781.54,1133.05 C784.45,1134.78 789.98,1139.01 792.51,1141.59 C795.06,1144.23 800.14,1150.60 801.79,1153.60 C803.85,1157.42 805.62,1163.86 805.86,1168.38 C805.98,1170.86 805.37,1180.97 805.46,1184.29 C805.53,1185.95 806.36,1198.68 805.67,1199.78 C804.81,1201.05 802.59,1201.87 800.59,1201.88 C800.59,1201.88 780.48,1202.08 772.48,1201.99 C752.98,1201.29 709.26,1199.91 706.15,1200.00 C702.90,1200.09 698.98,1201.08 697.74,1201.37 C695.98,1201.76 693.94,1201.19 693.05,1200.04 C691.45,1197.79 690.86,1192.29 690.86,1186.95 C691.26,1171.25 692.46,1140.99 692.43,1139.70 C692.30,1135.39 691.73,1128.58 692.30,1127.67 C692.97,1126.67 695.31,1125.56 696.84,1125.37 C698.22,1125.23 753.87,1126.64 759.65,1127.15 C761.28,1127.32 764.90,1127.71 765.99,1127.89 Z" fill="none" stroke="rgb(134, 182, 184)" stroke-width="24.80" stroke-opacity="1.00" stroke-linejoin="round"/>
<path d="M1088.53,1108.53 C1097.67,1107.93 1133.02,1110.95 1144.02,1113.45 C1148.64,1114.51 1165.36,1119.76 1173.11,1122.44 C1181.34,1125.38 1197.26,1132.61 1203.85,1136.39 C1211.32,1140.77 1223.68,1149.10 1229.86,1153.92 C1236.15,1158.85 1248.35,1170.06 1253.23,1175.46 C1258.67,1181.50 1267.55,1193.02 1273.02,1201.08 C1277.35,1207.58 1286.48,1222.29 1288.75,1226.57 C1292.96,1234.57 1297.48,1245.34 1301.08,1255.20 C1303.51,1262.25 1307.60,1277.00 1309.57,1284.73 C1311.33,1292.21 1314.65,1306.83 1315.89,1314.23 C1317.45,1324.52 1318.54,1335.98 1318.56,1344.53 C1318.56,1354.13 1315.34,1392.27 1313.22,1404.63 C1311.43,1413.98 1308.32,1427.08 1306.48,1433.96 C1304.49,1440.93 1299.37,1455.41 1296.42,1462.17 C1293.08,1469.81 1287.89,1479.71 1282.48,1489.05 C1276.95,1498.18 1269.55,1509.33 1265.53,1514.53 C1260.99,1520.37 1252.36,1529.79 1244.54,1537.70 C1237.55,1544.57 1228.02,1552.93 1222.28,1557.00 C1217.12,1560.63 1201.32,1569.78 1197.50,1571.79 C1190.32,1575.57 1179.75,1580.17 1169.93,1583.91 C1161.25,1586.96 1147.93,1591.06 1141.52,1592.44 C1134.79,1593.87 1119.85,1595.75 1113.53,1596.53 C1102.82,1597.58 1095.49,1597.78 1086.92,1596.91 C1079.10,1595.96 1063.36,1593.55 1056.65,1592.04 C1049.72,1590.40 1037.32,1586.29 1028.90,1582.89 C1021.56,1579.81 1004.29,1572.03 998.80,1569.25 C991.66,1565.58 979.67,1557.61 973.29,1552.41 C967.63,1547.70 956.92,1537.19 951.49,1531.47 C943.50,1522.82 939.35,1517.99 933.00,1509.95 C928.50,1504.12 921.55,1492.64 917.52,1484.66 C914.37,1478.20 907.68,1463.48 904.44,1455.71 C901.40,1447.98 896.30,1432.95 894.10,1424.35 C892.31,1417.30 889.27,1400.87 887.98,1393.56 C886.46,1384.25 884.98,1372.54 884.66,1365.22 C884.49,1358.92 885.07,1343.36 885.40,1335.59 C885.76,1327.21 886.63,1319.11 888.70,1308.38 C890.34,1300.27 893.83,1283.67 895.64,1276.03 C897.79,1267.34 901.45,1256.81 905.23,1247.57 C910.70,1234.57 925.97,1207.22 933.53,1196.53 C937.31,1191.20 947.61,1178.58 953.53,1172.53 C956.03,1169.98 971.18,1156.18 975.83,1152.31 C982.34,1146.98 994.00,1139.01 1000.14,1135.60 C1006.12,1132.30 1017.15,1127.21 1026.46,1123.58 C1033.50,1121.05 1050.97,1115.46 1054.53,1114.53 C1069.88,1110.55 1087.39,1108.61 1088.53,1108.53 Z" fill="none" stroke="rgb(134, 182, 184)" stroke-width="24.80" stroke-opacity="1.00" stroke-linejoin="round"/>
<path d="M586.53,1430.53 C585.39,1435.70 582.47,1448.50 578.53,1458.53 C577.16,1462.00 569.38,1478.83 565.55,1486.49 C561.76,1493.74 553.38,1508.63 549.61,1514.24 C545.77,1519.90 533.83,1534.06 531.53,1536.53 C526.51,1541.89 515.11,1552.36 509.53,1556.53 C506.67,1558.66 490.49,1569.12 484.37,1572.85 C478.63,1576.30 465.31,1582.88 457.53,1585.53 C454.45,1586.57 434.96,1591.92 426.98,1593.87 C419.17,1595.66 403.27,1598.30 397.64,1598.59 C390.14,1598.95 375.25,1597.65 367.48,1596.55 C359.44,1595.26 342.73,1591.94 336.89,1590.24 C329.97,1588.22 311.80,1580.68 307.76,1578.79 C298.65,1574.44 290.10,1569.80 282.31,1564.59 C273.61,1558.62 263.80,1551.10 260.51,1548.22 C257.39,1545.46 244.52,1532.37 240.73,1527.92 C236.42,1522.84 225.28,1507.28 222.56,1503.05 C218.29,1496.40 210.81,1482.38 207.33,1474.21 C205.33,1469.49 198.89,1452.02 196.53,1445.53 C192.98,1434.91 190.30,1425.49 188.94,1418.64 C187.66,1411.79 185.10,1397.21 184.01,1389.44 C183.39,1384.61 182.06,1365.43 181.75,1357.61 C181.49,1347.67 181.72,1336.69 182.48,1329.84 C183.75,1319.80 190.62,1279.93 193.53,1269.55 C195.07,1264.10 199.66,1251.08 203.60,1241.32 C208.09,1230.65 213.96,1218.15 217.46,1212.15 C221.34,1205.53 229.72,1193.61 233.73,1187.98 C237.64,1182.60 247.59,1171.09 253.53,1165.53 C255.35,1163.84 271.36,1150.37 275.39,1147.42 C282.29,1142.40 294.87,1135.06 301.66,1131.55 C309.72,1127.54 323.32,1121.67 329.53,1119.53 C337.26,1116.89 352.35,1113.29 360.75,1111.95 C369.16,1110.63 382.92,1109.81 391.89,1110.04 C404.03,1110.45 413.27,1110.98 418.61,1111.59 C425.20,1112.36 439.39,1116.16 447.10,1118.42 C454.94,1120.88 469.35,1125.84 476.90,1129.38 C483.30,1132.40 495.68,1139.76 502.65,1144.91 C509.17,1149.75 520.67,1159.61 526.62,1165.53 C533.89,1173.04 542.11,1182.31 547.07,1189.09 C550.72,1194.10 558.71,1206.96 563.35,1215.27 C567.14,1222.29 574.18,1237.81 576.79,1244.93 C579.49,1252.33 586.24,1275.52 586.53,1276.53" fill="none" stroke="rgb(134, 182, 184)" stroke-width="24.80" stroke-opacity="1.00" stroke-linejoin="round"/>
<path d="M772.45,1283.35 C777.83,1285.31 785.44,1290.12 787.89,1293.09 C790.65,1296.53 796.14,1313.60 797.18,1319.98 C798.57,1328.63 798.74,1354.92 798.34,1372.83 C797.67,1406.18 796.10,1475.72 795.19,1511.92 C794.39,1542.12 793.34,1579.98 792.39,1585.52 C791.91,1588.37 791.45,1599.38 791.45,1599.38 C790.81,1601.13 788.76,1602.21 786.66,1602.23 C786.66,1602.23 764.87,1602.85 755.01,1602.79 C745.09,1602.63 727.55,1602.32 719.93,1602.17 C717.24,1602.09 709.02,1601.33 706.49,1600.04 C705.22,1599.35 703.45,1596.83 703.04,1595.27 C702.84,1594.43 701.17,1509.84 700.60,1473.21 C700.13,1435.51 699.30,1370.18 698.94,1342.55 C698.85,1322.18 698.46,1294.08 698.15,1286.36 C698.12,1285.02 696.90,1281.80 696.65,1280.37 C696.42,1278.98 696.58,1278.05 697.15,1277.57 C697.15,1277.57 716.79,1277.58 725.10,1277.72 C739.42,1278.11 754.65,1279.31 762.21,1280.76 C765.25,1281.35 771.29,1282.94 772.45,1283.35 Z" fill="none" stroke="rgb(134, 182, 184)" stroke-width="24.80" stroke-opacity="1.00" stroke-linejoin="round"/>
<path d="M578.82,1437.79 C577.82,1438.59 583.36,1437.90 581.62,1438.39 C574.72,1440.31 579.29,1432.82 576.02,1432.97 C540.52,1434.60 471.32,1431.48 470.94,1431.47 C468.83,1431.46 467.39,1431.85 466.67,1432.87 C466.67,1432.87 457.44,1454.42 453.72,1459.87 C452.08,1462.24 447.33,1467.89 444.62,1470.36 C442.40,1472.37 435.37,1477.72 432.63,1479.29 C429.61,1481.01 423.88,1483.47 421.04,1484.33 C413.45,1486.52 402.81,1487.70 393.54,1487.79 C382.64,1487.69 368.79,1486.91 362.66,1485.68 C358.52,1484.83 352.95,1482.77 348.32,1480.80 C345.28,1479.48 339.37,1475.96 337.44,1474.38 C333.50,1471.11 320.78,1454.63 318.47,1451.07 C313.84,1443.86 308.01,1429.82 305.84,1421.38 C303.50,1411.91 301.24,1399.27 300.59,1391.41 C299.53,1376.53 298.17,1347.44 299.12,1331.42 C299.76,1323.70 301.51,1306.48 302.08,1302.52 C303.41,1293.62 306.06,1283.34 309.03,1275.93 C312.47,1267.41 319.63,1253.80 324.40,1247.73 C326.51,1245.07 332.17,1238.97 334.46,1236.60 C337.02,1233.96 342.11,1229.95 345.35,1228.18 C348.34,1226.57 355.49,1223.62 356.55,1223.22 C363.10,1220.82 378.34,1219.91 386.51,1219.95 C394.45,1220.11 410.36,1220.76 416.63,1222.05 C419.78,1222.73 426.32,1225.32 429.59,1227.18 C432.89,1229.08 439.84,1233.81 442.79,1236.24 C446.15,1239.03 451.44,1244.62 453.92,1248.10 C455.99,1251.03 460.15,1258.48 461.53,1261.53 C463.29,1265.46 465.63,1272.69 466.48,1274.72 C467.07,1276.05 468.63,1277.61 469.68,1277.72 C469.68,1277.72 475.80,1276.50 480.46,1276.40 C495.74,1276.45 527.86,1276.48 544.68,1276.46 C553.96,1276.23 573.56,1275.61 578.21,1275.77 C580.40,1275.86 579.31,1272.86 582.51,1274.44 C584.54,1275.45 576.61,1272.48 577.69,1273.50" fill="none" stroke="rgb(134, 182, 184)" stroke-width="24.80" stroke-opacity="1.00" stroke-linejoin="round"/>
<path d="M1084.53,1220.53 C1093.91,1219.78 1124.22,1221.35 1129.40,1222.34 C1134.02,1223.24 1148.53,1229.13 1151.95,1231.27 C1155.89,1233.77 1167.79,1246.12 1173.39,1252.29 C1179.65,1259.40 1187.10,1270.15 1189.87,1277.46 C1193.34,1286.88 1197.56,1300.32 1198.05,1302.28 C1199.73,1309.05 1200.72,1324.61 1200.96,1335.32 C1200.95,1351.97 1199.59,1393.37 1198.42,1402.39 C1197.64,1408.25 1193.50,1424.49 1192.80,1427.10 C1190.54,1435.59 1186.74,1443.81 1181.79,1452.27 C1177.23,1460.03 1168.41,1471.26 1163.04,1476.76 C1159.53,1480.26 1155.38,1483.75 1152.05,1485.55 C1148.86,1487.21 1140.74,1491.50 1139.48,1492.19 C1134.65,1494.80 1128.80,1497.01 1123.22,1497.90 C1117.62,1498.76 1103.65,1498.56 1091.76,1497.81 C1082.13,1497.02 1068.22,1494.34 1061.70,1491.88 C1058.59,1490.68 1052.89,1487.28 1050.30,1485.13 C1044.78,1480.51 1031.83,1466.08 1029.66,1463.33 C1024.56,1456.82 1017.69,1443.29 1015.12,1436.29 C1012.64,1429.46 1008.48,1414.97 1006.85,1406.75 C1003.39,1389.09 1001.51,1365.56 1001.54,1355.35 C1001.66,1346.73 1002.22,1326.38 1002.53,1322.53 C1003.28,1313.53 1006.13,1300.64 1007.53,1294.53 C1009.61,1286.07 1013.40,1274.05 1017.11,1267.72 C1020.76,1261.56 1030.16,1248.92 1034.53,1244.53 C1039.68,1239.41 1053.09,1230.23 1058.53,1227.53 C1065.32,1224.20 1077.25,1221.14 1084.53,1220.53 Z" fill="none" stroke="rgb(134, 182, 184)" stroke-width="24.80" stroke-opacity="1.00" stroke-linejoin="round"/>
<path d="M1860.53,1270.53 C1858.82,1264.78 1854.58,1250.53 1852.02,1242.58 C1848.66,1232.83 1843.49,1221.40 1839.21,1214.25 C1835.68,1208.40 1824.92,1194.79 1823.27,1192.78 C1816.81,1184.85 1809.81,1177.78 1803.26,1172.25 C1796.69,1166.73 1784.44,1158.18 1777.69,1153.73 C1770.32,1149.05 1757.51,1142.43 1749.90,1139.30 C1742.93,1136.44 1728.92,1131.85 1720.73,1129.71 C1713.63,1128.00 1698.70,1124.92 1691.13,1123.64 C1683.59,1122.49 1668.12,1120.98 1660.28,1120.45 C1653.04,1120.09 1640.13,1119.53 1631.35,1119.49 C1625.83,1119.57 1611.73,1120.47 1604.64,1121.35 C1597.29,1122.35 1581.89,1124.77 1575.67,1126.19 C1568.60,1127.86 1549.05,1132.63 1549.05,1132.63 C1541.91,1134.65 1526.52,1141.59 1519.62,1144.87 C1508.77,1150.21 1497.91,1156.04 1490.62,1160.54 C1483.50,1165.02 1471.69,1174.72 1465.83,1180.88 C1460.38,1186.65 1451.58,1197.86 1447.34,1204.78 C1443.52,1211.06 1437.07,1224.46 1434.33,1232.81 C1433.06,1236.71 1428.28,1253.97 1427.67,1260.80 C1427.48,1263.23 1429.59,1283.76 1430.53,1287.53 C1431.59,1291.70 1439.47,1313.60 1441.29,1317.43 C1443.99,1322.98 1451.29,1331.63 1458.57,1339.34 C1464.79,1345.73 1475.30,1355.08 1482.29,1359.80 C1487.20,1363.11 1501.11,1371.06 1508.66,1374.39 C1512.56,1376.10 1527.32,1381.86 1535.20,1384.64 C1549.03,1389.40 1583.07,1398.11 1597.60,1401.65 C1614.81,1405.66 1648.07,1413.59 1664.13,1417.50 C1680.70,1422.02 1699.52,1428.81 1705.24,1431.54 C1708.59,1433.16 1714.62,1437.43 1716.89,1440.02 C1719.21,1442.72 1722.98,1448.89 1724.34,1452.28 C1725.82,1456.06 1727.06,1462.28 1727.28,1466.52 C1727.44,1470.01 1727.02,1477.76 1726.58,1481.33 C1726.01,1485.70 1724.35,1492.01 1722.58,1495.34 C1721.27,1497.75 1716.60,1503.68 1713.94,1505.82 C1710.97,1508.15 1704.59,1511.88 1700.53,1513.56 C1696.01,1515.41 1680.09,1519.72 1670.53,1520.56 C1664.86,1521.04 1647.21,1520.91 1638.83,1520.59 C1627.77,1519.93 1615.39,1518.49 1609.09,1516.64 C1602.94,1514.79 1591.37,1508.94 1584.43,1504.42 C1580.76,1502.01 1575.50,1497.80 1572.88,1495.15 C1570.27,1492.46 1565.42,1485.50 1563.55,1481.56 C1562.23,1478.75 1558.61,1469.09 1558.53,1468.56 C1558.34,1467.30 1558.46,1465.98 1558.12,1464.76 C1557.67,1463.22 1556.25,1462.41 1554.63,1462.41 C1554.63,1462.41 1461.77,1462.61 1429.50,1462.54 C1420.02,1462.51 1412.83,1463.32 1412.53,1463.56 C1411.64,1464.36 1411.91,1465.84 1413.31,1468.67 C1414.87,1471.77 1416.92,1479.83 1417.53,1481.56 C1417.74,1482.16 1427.97,1503.47 1430.17,1507.56 C1434.40,1515.37 1443.23,1528.56 1448.62,1534.82 C1452.97,1539.85 1465.18,1551.68 1470.54,1556.08 C1476.45,1560.93 1488.62,1569.09 1494.58,1572.80 C1500.33,1576.29 1515.72,1583.86 1522.67,1587.21 C1526.19,1588.89 1542.24,1595.49 1548.31,1597.49 C1555.09,1599.69 1569.98,1604.44 1578.83,1606.51 C1583.83,1607.67 1600.83,1610.63 1608.42,1611.74 C1616.27,1612.74 1634.78,1614.38 1639.53,1614.56 C1644.33,1614.73 1662.56,1614.41 1670.20,1613.96 C1689.11,1612.51 1715.73,1608.50 1731.46,1605.04 C1741.32,1602.67 1752.49,1599.17 1760.15,1596.13 C1771.21,1591.60 1775.58,1589.64 1785.47,1584.79 C1792.93,1581.05 1804.00,1573.85 1810.90,1568.35 C1816.58,1563.63 1830.10,1551.60 1834.56,1546.79 C1840.41,1540.44 1849.04,1528.08 1852.71,1520.54 C1855.16,1515.45 1860.85,1499.28 1862.73,1493.30 C1863.74,1490.00 1865.59,1481.64 1865.94,1478.26 C1866.55,1471.96 1864.90,1460.16 1862.21,1448.98 C1858.86,1435.65 1856.31,1427.21 1853.55,1422.11 C1851.72,1418.76 1840.95,1403.15 1837.26,1398.82 C1832.73,1393.55 1821.14,1383.13 1814.95,1378.40 C1808.62,1373.58 1795.81,1365.54 1789.11,1362.22 C1782.58,1359.00 1771.56,1354.67 1760.75,1350.89 C1748.29,1346.75 1714.59,1337.03 1698.82,1332.63 C1666.67,1324.40 1612.98,1311.99 1608.45,1310.31 C1606.38,1309.53 1594.79,1305.37 1585.81,1300.60 C1581.49,1298.28 1575.31,1293.59 1573.06,1290.84 C1570.85,1288.05 1568.10,1281.80 1567.25,1277.79 C1565.92,1271.30 1566.22,1255.22 1567.13,1246.45 C1567.36,1244.40 1568.09,1240.92 1568.75,1239.02 C1569.57,1236.73 1574.62,1231.40 1576.69,1229.68 C1580.88,1226.20 1585.21,1222.87 1588.58,1221.23 C1594.00,1218.63 1608.04,1215.84 1616.64,1215.07 C1623.28,1214.49 1637.93,1214.37 1647.39,1214.70 C1658.08,1215.27 1667.36,1216.28 1675.05,1218.20 C1677.79,1218.87 1685.53,1220.89 1686.34,1221.09 C1689.86,1222.04 1695.73,1225.75 1698.98,1228.56 C1705.49,1234.31 1717.45,1246.70 1720.53,1251.53 C1722.13,1254.10 1723.92,1257.84 1724.30,1259.63 C1724.39,1260.05 1724.72,1263.53 1725.01,1265.49 C1725.24,1266.89 1726.23,1268.96 1727.11,1269.60 C1728.44,1270.50 1743.44,1270.60 1749.70,1270.63 C1783.58,1270.64 1848.91,1269.28 1853.80,1270.53" fill="none" stroke="rgb(134, 182, 184)" stroke-width="29.90" stroke-opacity="1.00" stroke-linejoin="round"/>
<path d="M1976.94,1215.15 C1973.31,1230.02 1979.49,1207.67 1998.58,1195.86 C2002.34,1193.54 2039.79,1174.78 2047.37,1174.50 C2058.52,1174.08 2095.39,1169.38 2099.94,1169.96 C2108.26,1171.02 2139.39,1175.99 2163.42,1183.83 C2171.97,1186.61 2190.24,1195.89 2199.32,1198.49 C2206.54,1200.56 2213.54,1207.60 2218.96,1210.12 C2225.49,1213.24 2238.68,1221.37 2241.87,1228.20 C2243.67,1232.05 2247.58,1237.81 2249.99,1240.56 C2252.28,1243.19 2256.33,1248.92 2257.40,1251.38 C2259.63,1256.61 2262.03,1266.19 2262.54,1271.97 C2263.24,1280.11 2263.67,1312.89 2262.91,1335.67 C2262.34,1350.48 2261.02,1382.61 2260.26,1399.94 C2259.19,1417.43 2255.74,1452.08 2254.05,1463.15 C2252.90,1469.79 2249.85,1484.89 2247.54,1492.62 C2244.55,1502.50 2237.43,1518.53 2233.30,1524.69 C2229.91,1529.69 2219.78,1540.01 2214.75,1544.19 C2209.69,1548.37 2197.92,1556.21 2192.63,1558.73 C2185.98,1561.88 2172.23,1566.69 2164.78,1568.48 C2158.96,1569.86 2141.48,1572.56 2133.44,1573.53 C2125.29,1574.32 2108.82,1575.41 2100.84,1575.26 C2092.97,1575.02 2076.93,1574.18 2068.76,1573.58 C2056.30,1572.48 2044.21,1570.78 2036.85,1568.79 C2029.53,1566.79 2015.49,1560.73 2010.18,1557.05 C2003.71,1552.52 1992.86,1541.51 1988.34,1534.91 C1984.32,1528.96 1976.86,1513.86 1974.45,1507.03 C1973.26,1503.61 1971.52,1497.29 1970.75,1493.58 C1970.07,1490.19 1969.67,1482.51 1969.81,1478.92 C1970.14,1471.45 1973.50,1457.95 1976.84,1450.21 C1979.82,1443.40 1987.45,1430.17 1991.27,1425.19 C1994.93,1420.46 2005.54,1409.68 2011.03,1405.11 C2017.07,1400.12 2029.15,1392.30 2036.66,1388.62 C2044.45,1384.83 2056.53,1380.37 2066.57,1377.22 C2081.20,1373.03 2118.52,1365.19 2130.74,1362.16 C2138.35,1360.10 2155.50,1354.77 2160.67,1352.87 C2169.42,1349.65 2185.43,1342.07 2192.30,1337.90 C2196.13,1335.57 2211.66,1324.76 2215.89,1321.36 C2221.60,1316.76 2232.23,1306.05 2235.35,1300.22 C2237.69,1295.75 2242.53,1281.75 2244.52,1273.21 C2246.74,1263.09 2251.25,1240.21 2251.70,1237.94" fill="none" stroke="rgb(134, 182, 184)" stroke-width="115.60" stroke-opacity="1.00" stroke-linejoin="miter"/>
<path d="M741.63,1324.11 C741.63,1324.11 748.19,1569.39 748.19,1569.39" fill="none" stroke="rgb(134, 182, 184)" stroke-width="110.85" stroke-opacity="1.00" stroke-linejoin="round"/>
<path d="M1757.03,1220.03 C1785.58,1225.82 1794.27,1226.71 1795.76,1226.49 C1796.78,1226.30 1797.25,1225.50 1796.62,1224.79 C1795.90,1224.02 1786.82,1218.39 1782.98,1215.40 C1779.35,1212.49 1767.90,1203.72 1763.09,1200.00 C1757.54,1195.61 1744.46,1185.20 1738.80,1182.08 C1735.06,1180.04 1726.69,1176.48 1722.06,1174.95 C1712.60,1171.88 1694.86,1168.75 1685.76,1167.82 C1678.55,1167.24 1663.26,1166.60 1655.18,1166.55 C1646.80,1166.68 1629.18,1167.46 1619.93,1168.12 C1610.39,1168.96 1591.86,1171.08 1583.23,1172.34 C1575.03,1173.73 1558.81,1177.09 1552.96,1178.71 C1546.25,1180.57 1533.00,1185.37 1527.10,1188.49 C1522.55,1190.93 1514.71,1196.64 1511.70,1199.71 C1508.73,1202.80 1504.45,1209.53 1503.17,1213.12 C1502.21,1215.90 1499.10,1234.63 1497.97,1241.30 C1497.46,1244.30 1495.59,1256.14 1494.89,1269.43 C1494.74,1274.55 1494.86,1278.69 1495.80,1281.65 C1497.94,1288.13 1505.67,1298.14 1511.20,1304.03 C1515.40,1308.33 1525.02,1317.55 1530.45,1322.44 C1537.46,1328.61 1549.88,1337.06 1558.32,1341.33 C1566.78,1345.59 1583.96,1352.14 1593.64,1355.16 C1607.38,1359.19 1635.45,1365.52 1656.12,1369.17 C1665.26,1370.55 1683.48,1373.36 1692.21,1374.95 C1702.26,1377.06 1717.36,1380.94 1723.56,1382.96 C1730.68,1385.29 1743.13,1390.43 1749.22,1393.55 C1752.67,1395.34 1760.52,1400.19 1764.40,1403.14 C1768.14,1406.01 1774.65,1412.20 1777.43,1415.53 C1780.17,1418.86 1784.70,1425.98 1786.48,1429.76 C1788.66,1434.46 1794.31,1453.99 1795.66,1460.04 C1797.20,1466.96 1799.16,1480.83 1799.02,1486.46 C1798.89,1490.69 1797.77,1498.34 1796.78,1501.69 C1795.77,1505.04 1793.02,1510.51 1791.00,1513.30 C1787.09,1518.63 1774.48,1529.96 1768.28,1533.83 C1763.70,1536.66 1749.47,1544.56 1742.32,1548.20 C1731.53,1553.40 1718.85,1558.95 1710.96,1561.73 C1703.14,1564.47 1686.53,1568.79 1679.60,1569.70 C1670.56,1570.85 1653.38,1571.27 1644.92,1570.55 C1641.28,1570.23 1602.26,1565.13 1587.45,1562.83 C1580.90,1561.79 1570.47,1558.26 1559.03,1553.06 C1554.68,1551.08 1505.15,1526.38 1494.13,1520.33 C1487.00,1516.26 1478.74,1510.33 1477.03,1508.06 C1476.30,1507.01 1476.94,1505.34 1478.52,1504.47 C1481.20,1503.10 1505.54,1506.29 1515.93,1507.69 C1519.56,1508.18 1524.61,1508.87 1526.03,1509.06" fill="none" stroke="rgb(134, 182, 184)" stroke-width="115.60" stroke-opacity="1.00" stroke-linejoin="miter"/>
<path d="M492.03,1234.03 C523.78,1232.28 518.84,1231.81 519.04,1231.34 C519.04,1231.34 532.99,1244.40 525.48,1235.28 C522.84,1232.08 516.73,1229.41 513.94,1226.48 C506.63,1218.48 489.89,1197.49 487.00,1194.59 C484.01,1191.62 477.15,1186.24 473.29,1183.83 C465.52,1179.04 448.53,1172.54 439.63,1170.46 C433.06,1169.01 418.70,1167.00 410.90,1166.44 C404.59,1166.04 386.07,1165.79 377.17,1166.02 C364.28,1166.67 349.75,1168.23 341.44,1169.98 C333.14,1171.75 317.96,1176.86 311.07,1180.20 C304.20,1183.56 291.98,1191.76 286.77,1196.58 C281.68,1201.32 272.80,1212.23 269.02,1218.40 C265.25,1224.59 259.02,1238.40 256.56,1246.02 C254.55,1252.30 250.55,1270.17 249.00,1278.39 C247.66,1286.64 245.59,1303.20 244.87,1311.52 C244.35,1319.86 243.88,1340.45 244.03,1345.03 C244.18,1349.46 245.97,1369.87 247.02,1378.19 C248.26,1386.51 251.33,1403.21 253.17,1411.59 C255.20,1419.98 259.86,1436.79 262.42,1444.96 C265.08,1452.80 270.71,1467.57 273.72,1474.33 C276.76,1481.00 283.26,1493.03 286.72,1498.38 C290.90,1504.83 300.95,1516.52 307.39,1521.93 C310.60,1524.61 317.26,1529.20 320.70,1531.10 C327.66,1534.91 340.53,1538.78 349.79,1540.54 C357.20,1541.94 371.89,1543.62 379.16,1543.92 C387.57,1544.24 402.46,1543.22 410.22,1542.11 C418.22,1540.95 433.91,1537.42 441.75,1535.03 C449.46,1532.66 463.77,1527.09 470.38,1523.88 C478.40,1519.97 490.43,1512.30 498.41,1505.57 C504.50,1500.40 513.49,1495.58 519.44,1486.17 C520.07,1485.18 520.66,1484.14 521.21,1483.05 C521.66,1482.16 522.08,1481.23 522.47,1480.26 C526.19,1471.05 522.50,1474.76 522.50,1474.76 C521.84,1475.53 528.58,1473.37 526.83,1474.56 C523.31,1476.93 488.86,1473.32 489.03,1483.03" fill="none" stroke="rgb(134, 182, 184)" stroke-width="106.01" stroke-opacity="1.00" stroke-linejoin="miter"/>
<path d="M732.29,1162.09 C739.08,1161.66 735.25,1161.50 740.23,1161.46 C743.65,1161.43 756.85,1165.75 760.39,1166.12" fill="none" stroke="rgb(134, 182, 184)" stroke-width="102.86" stroke-opacity="1.00" stroke-linejoin="round"/>
<path d="M1091.03,1162.03 C1098.25,1160.94 1115.96,1160.57 1124.06,1161.34 C1132.16,1162.13 1147.46,1165.46 1155.74,1168.16 C1163.31,1170.64 1177.32,1176.72 1183.75,1180.30 C1191.19,1184.47 1201.20,1191.86 1207.30,1197.78 C1212.62,1202.95 1222.02,1214.48 1226.10,1220.82 C1230.01,1226.95 1237.26,1241.19 1240.40,1248.89 C1243.52,1256.61 1249.41,1274.97 1250.82,1281.56 C1252.30,1288.78 1254.89,1303.83 1256.00,1311.67 C1256.99,1319.71 1258.57,1336.41 1259.18,1345.08 C1259.65,1353.82 1260.05,1370.69 1259.99,1378.79 C1259.75,1386.68 1258.75,1401.79 1257.98,1409.02 C1256.91,1417.40 1253.06,1433.84 1250.35,1441.87 C1247.63,1449.88 1241.27,1463.58 1236.94,1470.80 C1232.48,1478.12 1224.66,1489.50 1220.21,1495.16 C1214.58,1502.29 1206.97,1510.28 1200.08,1516.19 C1194.44,1521.01 1182.32,1529.78 1176.25,1533.43 C1169.83,1537.27 1155.73,1542.99 1147.78,1544.98 C1138.70,1547.22 1126.04,1548.54 1116.88,1548.52 C1109.55,1548.49 1093.84,1547.33 1085.58,1546.31 C1073.91,1544.62 1059.78,1541.96 1051.68,1539.66 C1043.63,1537.36 1028.74,1531.44 1021.91,1527.83 C1014.18,1523.72 1002.41,1514.90 996.92,1509.66 C991.29,1504.26 981.35,1492.06 977.03,1485.26 C974.43,1481.14 965.42,1463.99 962.06,1456.87 C958.89,1449.76 953.42,1435.60 951.12,1428.55 C949.19,1422.56 945.71,1405.15 944.74,1397.24 C943.78,1389.33 943.24,1376.48 943.35,1365.73 C943.59,1357.91 944.27,1342.30 944.72,1334.52 C945.73,1321.54 946.33,1316.57 948.42,1303.78 C949.81,1296.19 952.79,1281.05 954.39,1273.50 C956.64,1263.65 960.79,1251.30 964.31,1244.34 C967.86,1237.38 977.68,1223.35 982.45,1218.48 C987.74,1213.12 998.80,1203.76 1005.27,1199.17 C1011.76,1194.58 1026.30,1185.87 1034.22,1181.82 C1042.02,1177.84 1057.38,1171.31 1064.94,1168.75 C1072.50,1166.21 1086.92,1162.66 1091.03,1162.03 Z" fill="none" stroke="rgb(134, 182, 184)" stroke-width="106.01" stroke-opacity="1.00" stroke-linejoin="miter"/>
<path d="M1197.07,460.02 C1198.98,459.31 1200.52,456.69 1203.12,449.84 C1204.61,445.98 1209.98,440.02 1213.17,437.99 C1216.23,436.12 1223.86,433.31 1227.89,432.58 C1232.00,431.88 1239.28,432.62 1242.21,434.02 C1245.08,435.46 1249.90,440.71 1251.73,444.39 C1253.54,448.15 1255.51,455.88 1255.54,459.39 C1255.52,462.85 1253.49,469.43 1251.56,472.37 C1250.62,473.77 1236.00,489.61 1231.25,495.17 C1224.75,502.91 1216.46,515.10 1213.56,521.45 C1213.56,521.45 1210.82,527.83 1210.23,528.87 C1209.46,530.18 1207.60,531.91 1206.72,532.09 C1205.84,532.23 1203.70,531.23 1202.70,530.24 C1201.95,529.47 1196.00,521.82 1191.86,517.98 C1184.03,510.79 1159.07,496.02 1152.34,492.25 C1148.69,490.14 1143.10,485.40 1140.60,482.31 C1138.57,479.76 1134.90,473.17 1133.44,469.44 C1131.87,465.32 1130.71,458.66 1131.05,455.51 C1131.27,453.84 1132.20,451.14 1133.09,449.66 C1134.86,446.86 1140.59,442.62 1144.60,440.91 C1148.07,439.47 1154.87,438.25 1158.47,438.58 C1162.15,438.96 1168.19,441.53 1172.28,443.98 C1179.39,448.31 1190.51,458.31 1191.89,459.18 C1193.32,460.05 1195.82,460.41 1197.07,460.02 Z" fill="none" stroke="rgb(134, 182, 184)" stroke-width="12.77" stroke-opacity="1.00" stroke-linejoin="miter"/>
<path d="M1153.97,462.25 C1173.31,474.97 1186.26,484.94 1191.79,490.52 C1193.70,492.46 1199.49,499.27 1201.19,500.86 C1201.94,501.53 1203.00,501.76 1202.91,501.04 C1202.79,499.97 1201.19,495.08 1201.53,493.20 C1202.23,489.37 1207.95,481.42 1209.91,479.26 C1212.72,476.21 1225.81,464.39 1229.01,461.51" fill="none" stroke="rgb(134, 182, 184)" stroke-width="54.45" stroke-opacity="1.00" stroke-linejoin="miter"/>
</g>
</svg>
