<?xml version="1.0" encoding="UTF-8" standalone="no"?>
<!DOCTYPE svg PUBLIC "-//W3C//DTD SVG 1.1//EN" "http://www.w3.org/Graphics/SVG/1.1/DTD/svg11.dtd">
<svg width="514.29" height="514.29" viewBox="0.00 0.00 2500.00 2500.00" xmlns="http://www.w3.org/2000/svg" xmlns:xlink="http://www.w3.org/1999/xlink">
<g stroke-linecap="round" transform="translate(9.00, -614.00)" id="Ericiosa_logo_1_-_copia">
<path d="M1301.30,1452.27 C1305.12,1453.12 1310.48,1455.42 1312.86,1457.18 C1315.03,1458.83 1319.14,1462.85 1321.02,1465.31 C1322.92,1467.82 1326.70,1473.88 1327.92,1476.74 C1329.46,1480.37 1330.77,1486.50 1330.95,1490.80 C1331.04,1493.16 1330.59,1502.79 1330.65,1505.95 C1330.71,1507.53 1331.32,1519.64 1330.81,1520.69 C1330.17,1521.90 1328.52,1522.68 1327.03,1522.69 C1327.03,1522.69 1312.07,1522.88 1306.12,1522.79 C1291.62,1522.12 1259.10,1520.81 1256.79,1520.90 C1254.37,1520.98 1251.46,1521.93 1250.53,1522.20 C1249.23,1522.57 1247.71,1522.03 1247.05,1520.94 C1245.86,1518.79 1245.42,1513.56 1245.42,1508.48 C1245.72,1493.54 1246.61,1464.74 1246.59,1463.51 C1246.49,1459.41 1246.06,1452.93 1246.49,1452.06 C1246.99,1451.11 1248.73,1450.05 1249.87,1449.87 C1250.89,1449.74 1292.28,1451.08 1296.58,1451.56 C1297.79,1451.73 1300.49,1452.10 1301.30,1452.27 Z" fill="none" stroke="rgb(134, 182, 184)" stroke-width="18.45" stroke-opacity="1.00" stroke-linejoin="round"/>
<path d="M1541.19,1557.88 C1547.99,1557.43 1574.29,1559.68 1582.47,1561.54 C1585.90,1562.33 1598.34,1566.23 1604.10,1568.22 C1610.22,1570.41 1622.07,1575.79 1626.97,1578.60 C1632.52,1581.86 1641.72,1588.05 1646.31,1591.64 C1650.99,1595.30 1660.07,1603.64 1663.69,1607.66 C1667.74,1612.15 1674.35,1620.72 1678.41,1626.71 C1681.63,1631.55 1688.42,1642.49 1690.11,1645.67 C1693.24,1651.62 1696.60,1659.63 1699.28,1666.97 C1701.08,1672.21 1704.13,1683.18 1705.59,1688.93 C1706.90,1694.49 1709.37,1705.37 1710.29,1710.87 C1711.45,1718.53 1712.26,1727.05 1712.28,1733.41 C1712.28,1740.55 1709.88,1768.92 1708.31,1778.11 C1706.98,1785.06 1704.66,1794.81 1703.29,1799.92 C1701.81,1805.11 1698.01,1815.88 1695.81,1820.91 C1693.33,1826.59 1689.47,1833.95 1685.44,1840.90 C1681.33,1847.69 1675.83,1855.98 1672.84,1859.85 C1669.47,1864.19 1663.05,1871.20 1657.23,1877.08 C1652.03,1882.19 1644.94,1888.41 1640.67,1891.44 C1636.84,1894.14 1625.09,1900.94 1622.24,1902.44 C1616.90,1905.25 1609.04,1908.67 1601.74,1911.45 C1595.28,1913.72 1585.38,1916.77 1580.61,1917.80 C1575.60,1918.86 1564.49,1920.26 1559.79,1920.84 C1551.82,1921.62 1546.37,1921.77 1540.00,1921.12 C1534.18,1920.42 1522.47,1918.62 1517.48,1917.50 C1512.33,1916.28 1503.11,1913.22 1496.84,1910.69 C1491.38,1908.40 1478.54,1902.62 1474.46,1900.55 C1469.15,1897.82 1460.23,1891.89 1455.48,1888.02 C1451.27,1884.52 1443.31,1876.70 1439.27,1872.45 C1433.33,1866.02 1430.24,1862.42 1425.52,1856.44 C1422.17,1852.11 1417.00,1843.57 1414.00,1837.63 C1411.66,1832.83 1406.68,1821.88 1404.27,1816.10 C1402.01,1810.35 1398.22,1799.17 1396.58,1792.78 C1395.25,1787.53 1392.99,1775.31 1392.03,1769.88 C1390.90,1762.95 1389.80,1754.24 1389.56,1748.80 C1389.44,1744.11 1389.87,1732.54 1390.11,1726.76 C1390.38,1720.53 1391.03,1714.50 1392.57,1706.52 C1393.79,1700.49 1396.38,1688.14 1397.73,1682.46 C1399.33,1676.00 1402.05,1668.16 1404.86,1661.29 C1408.93,1651.62 1420.29,1631.28 1425.91,1623.33 C1428.72,1619.37 1436.38,1609.98 1440.79,1605.48 C1442.64,1603.58 1453.91,1593.32 1457.37,1590.44 C1462.21,1586.48 1470.89,1580.55 1475.45,1578.01 C1479.90,1575.56 1488.10,1571.77 1495.03,1569.07 C1500.26,1567.19 1513.26,1563.03 1515.91,1562.34 C1527.32,1559.38 1540.35,1557.94 1541.19,1557.88 Z" fill="none" stroke="rgb(134, 182, 184)" stroke-width="18.45" stroke-opacity="1.00" stroke-linejoin="round"/>
<path d="M1167.82,1797.37 C1166.97,1801.22 1164.80,1810.74 1161.87,1818.20 C1160.85,1820.78 1155.06,1833.30 1152.22,1838.99 C1149.40,1844.39 1143.16,1855.46 1140.36,1859.63 C1137.50,1863.84 1128.62,1874.38 1126.91,1876.21 C1123.18,1880.20 1114.70,1887.99 1110.55,1891.09 C1108.42,1892.67 1096.39,1900.45 1091.84,1903.23 C1087.57,1905.79 1077.66,1910.69 1071.87,1912.66 C1069.58,1913.43 1055.09,1917.41 1049.15,1918.86 C1043.34,1920.19 1031.52,1922.16 1027.33,1922.37 C1021.75,1922.64 1010.67,1921.67 1004.90,1920.85 C998.92,1919.90 986.49,1917.43 982.14,1916.16 C977.00,1914.66 963.48,1909.05 960.48,1907.65 C953.70,1904.41 947.34,1900.96 941.55,1897.08 C935.08,1892.64 927.78,1887.05 925.33,1884.91 C923.01,1882.86 913.44,1873.12 910.62,1869.81 C907.42,1866.03 899.13,1854.46 897.11,1851.31 C893.93,1846.37 888.37,1835.94 885.78,1829.86 C884.29,1826.35 879.50,1813.36 877.75,1808.53 C875.11,1800.63 873.11,1793.62 872.10,1788.53 C871.15,1783.43 869.25,1772.59 868.44,1766.81 C867.97,1763.22 866.98,1748.95 866.75,1743.14 C866.56,1735.74 866.73,1727.58 867.30,1722.48 C868.24,1715.01 873.35,1685.36 875.52,1677.64 C876.66,1673.59 880.08,1663.90 883.01,1656.64 C886.35,1648.71 890.71,1639.41 893.31,1634.95 C896.20,1630.02 902.43,1621.16 905.42,1616.97 C908.32,1612.97 915.72,1604.41 920.14,1600.27 C921.50,1599.02 933.40,1589.00 936.40,1586.80 C941.53,1583.07 950.89,1577.61 955.94,1575.00 C961.94,1572.02 972.05,1567.65 976.67,1566.06 C982.42,1564.10 993.64,1561.42 999.89,1560.42 C1006.15,1559.44 1016.38,1558.83 1023.05,1559.00 C1032.08,1559.31 1038.95,1559.70 1042.93,1560.15 C1047.83,1560.73 1058.38,1563.55 1064.12,1565.23 C1069.95,1567.06 1080.66,1570.75 1086.28,1573.39 C1091.04,1575.63 1100.25,1581.11 1105.43,1584.94 C1110.28,1588.54 1118.83,1595.87 1123.26,1600.27 C1128.67,1605.86 1134.78,1612.75 1138.47,1617.80 C1141.19,1621.52 1147.13,1631.09 1150.58,1637.27 C1153.40,1642.49 1158.63,1654.03 1160.58,1659.33 C1162.58,1664.83 1167.60,1682.08 1167.82,1682.83" fill="none" stroke="rgb(134, 182, 184)" stroke-width="18.45" stroke-opacity="1.00" stroke-linejoin="round"/>
<path d="M1306.10,1575.14 C1310.10,1577.14 1315.76,1582.04 1317.59,1585.07 C1319.64,1588.57 1323.72,1605.97 1324.50,1612.47 C1325.53,1621.29 1325.66,1648.08 1325.36,1666.34 C1324.86,1700.33 1323.69,1771.20 1323.02,1808.10 C1322.42,1838.88 1321.64,1877.47 1320.93,1883.11 C1320.58,1886.02 1320.23,1897.24 1320.23,1897.24 C1319.76,1899.02 1318.23,1900.12 1316.67,1900.14 C1316.67,1900.14 1300.46,1900.78 1293.13,1900.71 C1285.75,1900.55 1272.71,1900.24 1267.04,1900.08 C1265.04,1900.00 1258.92,1899.23 1257.04,1897.91 C1256.10,1897.21 1254.78,1894.64 1254.48,1893.05 C1254.33,1892.19 1253.09,1805.98 1252.66,1768.65 C1252.31,1730.22 1251.70,1663.64 1251.43,1635.48 C1251.36,1614.71 1251.07,1586.08 1250.84,1578.21 C1250.82,1576.84 1249.91,1573.56 1249.72,1572.10 C1249.55,1570.69 1249.67,1569.74 1250.10,1569.25 C1250.10,1569.25 1264.70,1569.26 1270.88,1569.40 C1281.54,1569.80 1292.86,1571.02 1298.49,1572.50 C1300.75,1573.10 1305.24,1574.72 1306.10,1575.14 Z" fill="none" stroke="rgb(134, 182, 184)" stroke-width="18.45" stroke-opacity="1.00" stroke-linejoin="round"/>
<path d="M1162.09,1802.77 C1161.34,1803.37 1165.46,1802.85 1164.17,1803.22 C1159.04,1804.65 1162.43,1799.08 1160.00,1799.19 C1133.60,1800.40 1082.13,1798.08 1081.85,1798.07 C1080.28,1798.06 1079.21,1798.35 1078.67,1799.11 C1078.67,1799.11 1071.81,1815.14 1069.04,1819.20 C1067.82,1820.96 1064.29,1825.16 1062.27,1827.00 C1060.62,1828.49 1055.39,1832.47 1053.35,1833.64 C1051.11,1834.92 1046.84,1836.75 1044.73,1837.39 C1039.09,1839.02 1031.17,1839.89 1024.28,1839.96 C1016.17,1839.89 1005.87,1839.31 1001.31,1838.39 C998.23,1837.76 994.09,1836.23 990.65,1834.76 C988.38,1833.78 983.99,1831.16 982.55,1829.99 C979.62,1827.56 970.16,1815.30 968.44,1812.65 C965.00,1807.29 960.66,1796.85 959.05,1790.57 C957.31,1783.52 955.63,1774.12 955.14,1768.28 C954.36,1757.21 953.34,1735.57 954.05,1723.66 C954.53,1717.92 955.83,1705.11 956.25,1702.16 C957.24,1695.54 959.21,1687.90 961.42,1682.39 C963.98,1676.05 969.31,1665.93 972.85,1661.41 C974.42,1659.43 978.63,1654.90 980.34,1653.13 C982.24,1651.17 986.03,1648.19 988.44,1646.87 C990.66,1645.67 995.98,1643.48 996.77,1643.18 C1001.64,1641.40 1012.97,1640.72 1019.05,1640.75 C1024.96,1640.87 1036.79,1641.35 1041.45,1642.31 C1043.80,1642.82 1048.66,1644.74 1051.09,1646.13 C1053.55,1647.54 1058.72,1651.06 1060.91,1652.87 C1063.41,1654.94 1067.34,1659.10 1069.19,1661.69 C1070.73,1663.87 1073.82,1669.41 1074.85,1671.68 C1076.16,1674.60 1077.90,1679.98 1078.53,1681.49 C1078.97,1682.47 1080.13,1683.64 1080.91,1683.72 C1080.91,1683.72 1085.46,1682.81 1088.93,1682.74 C1100.29,1682.77 1124.18,1682.79 1136.69,1682.78 C1143.59,1682.61 1158.17,1682.15 1161.63,1682.27 C1163.26,1682.33 1162.45,1680.10 1164.83,1681.28 C1166.34,1682.03 1160.44,1679.82 1161.24,1680.58" fill="none" stroke="rgb(134, 182, 184)" stroke-width="18.45" stroke-opacity="1.00" stroke-linejoin="round"/>
<path d="M1538.22,1641.18 C1545.20,1640.62 1567.74,1641.79 1571.59,1642.53 C1575.03,1643.20 1585.82,1647.58 1588.37,1649.17 C1591.30,1651.03 1600.15,1660.21 1604.31,1664.80 C1608.97,1670.09 1614.51,1678.09 1616.57,1683.52 C1619.15,1690.53 1622.29,1700.53 1622.65,1701.98 C1623.90,1707.02 1624.64,1718.59 1624.82,1726.56 C1624.81,1738.94 1623.80,1769.73 1622.93,1776.44 C1622.35,1780.80 1619.27,1792.88 1618.75,1794.82 C1617.07,1801.14 1614.24,1807.25 1610.56,1813.54 C1607.17,1819.31 1600.61,1827.67 1596.61,1831.76 C1594.00,1834.36 1590.92,1836.96 1588.44,1838.30 C1586.07,1839.53 1580.03,1842.72 1579.09,1843.23 C1575.50,1845.18 1571.15,1846.82 1567.00,1847.48 C1562.83,1848.12 1552.44,1847.97 1543.60,1847.41 C1536.43,1846.83 1526.09,1844.83 1521.24,1843.00 C1518.93,1842.11 1514.69,1839.58 1512.76,1837.98 C1508.65,1834.55 1499.02,1823.81 1497.41,1821.77 C1493.62,1816.93 1488.51,1806.86 1486.59,1801.66 C1484.75,1796.58 1481.66,1785.80 1480.44,1779.69 C1477.87,1766.55 1476.47,1749.05 1476.49,1741.46 C1476.58,1735.04 1477.00,1719.91 1477.23,1717.05 C1477.79,1710.35 1479.91,1700.76 1480.95,1696.22 C1482.50,1689.93 1485.32,1680.99 1488.07,1676.28 C1490.79,1671.70 1497.78,1662.30 1501.03,1659.03 C1504.86,1655.22 1514.84,1648.39 1518.88,1646.39 C1523.93,1643.91 1532.81,1641.63 1538.22,1641.18 Z" fill="none" stroke="rgb(134, 182, 184)" stroke-width="18.45" stroke-opacity="1.00" stroke-linejoin="round"/>
<path d="M2115.38,1678.37 C2114.11,1674.10 2110.96,1663.50 2109.05,1657.58 C2106.55,1650.33 2102.71,1641.83 2099.52,1636.51 C2096.90,1632.16 2088.90,1622.04 2087.67,1620.54 C2082.86,1614.65 2077.66,1609.39 2072.79,1605.27 C2067.90,1601.17 2058.79,1594.81 2053.77,1591.50 C2048.29,1588.02 2038.76,1583.09 2033.10,1580.77 C2027.91,1578.64 2017.49,1575.23 2011.40,1573.63 C2006.12,1572.36 1995.02,1570.07 1989.39,1569.12 C1983.78,1568.26 1972.27,1567.14 1966.44,1566.75 C1961.06,1566.48 1951.45,1566.06 1944.92,1566.03 C1940.82,1566.09 1930.33,1566.76 1925.06,1567.42 C1919.59,1568.16 1908.14,1569.96 1903.51,1571.02 C1898.25,1572.26 1883.71,1575.81 1883.71,1575.81 C1878.40,1577.31 1866.95,1582.47 1861.82,1584.91 C1853.75,1588.88 1845.67,1593.22 1840.25,1596.56 C1834.96,1599.90 1826.17,1607.11 1821.81,1611.69 C1817.76,1615.98 1811.21,1624.32 1808.06,1629.47 C1805.22,1634.14 1800.42,1644.11 1798.38,1650.32 C1797.44,1653.22 1793.88,1666.06 1793.43,1671.14 C1793.29,1672.94 1794.86,1688.21 1795.56,1691.02 C1796.35,1694.12 1802.21,1710.41 1803.56,1713.25 C1805.57,1717.38 1811.00,1723.81 1816.41,1729.54 C1821.04,1734.30 1828.86,1741.25 1834.06,1744.76 C1837.71,1747.22 1848.05,1753.14 1853.67,1755.61 C1856.57,1756.89 1867.55,1761.17 1873.41,1763.24 C1883.70,1766.78 1909.01,1773.26 1919.82,1775.89 C1932.62,1778.87 1957.36,1784.77 1969.30,1787.68 C1981.63,1791.04 1995.63,1796.09 1999.88,1798.12 C2002.37,1799.33 2006.86,1802.50 2008.55,1804.43 C2010.27,1806.44 2013.08,1811.02 2014.09,1813.55 C2015.19,1816.36 2016.11,1820.98 2016.27,1824.14 C2016.39,1826.73 2016.08,1832.50 2015.75,1835.15 C2015.33,1838.40 2014.09,1843.10 2012.78,1845.57 C2011.80,1847.37 2008.33,1851.78 2006.35,1853.37 C2004.14,1855.10 1999.40,1857.88 1996.38,1859.12 C1993.02,1860.50 1981.17,1863.71 1974.06,1864.33 C1969.85,1864.69 1956.72,1864.59 1950.49,1864.35 C1942.26,1863.86 1933.05,1862.79 1928.37,1861.42 C1923.79,1860.04 1915.19,1855.69 1910.03,1852.33 C1907.30,1850.53 1903.38,1847.40 1901.43,1845.43 C1899.49,1843.43 1895.89,1838.25 1894.50,1835.32 C1893.51,1833.23 1890.82,1826.05 1890.76,1825.65 C1890.62,1824.72 1890.71,1823.74 1890.46,1822.83 C1890.12,1821.68 1889.07,1821.08 1887.86,1821.08 C1887.86,1821.08 1818.79,1821.23 1794.79,1821.18 C1787.74,1821.15 1782.39,1821.76 1782.17,1821.94 C1781.51,1822.53 1781.71,1823.63 1782.75,1825.74 C1783.91,1828.04 1785.44,1834.04 1785.89,1835.32 C1786.05,1835.77 1793.65,1851.62 1795.29,1854.66 C1798.44,1860.47 1805.00,1870.28 1809.01,1874.94 C1812.25,1878.68 1821.33,1887.48 1825.32,1890.75 C1829.71,1894.36 1838.76,1900.43 1843.20,1903.19 C1847.47,1905.78 1858.92,1911.41 1864.09,1913.90 C1866.71,1915.15 1878.65,1920.06 1883.16,1921.55 C1888.20,1923.19 1899.28,1926.72 1905.86,1928.26 C1909.58,1929.12 1922.22,1931.32 1927.87,1932.15 C1933.71,1932.89 1947.47,1934.11 1951.01,1934.25 C1954.58,1934.37 1968.14,1934.13 1973.82,1933.80 C1987.88,1932.72 2007.68,1929.74 2019.38,1927.17 C2026.72,1925.40 2035.02,1922.80 2040.72,1920.54 C2048.95,1917.17 2052.20,1915.71 2059.55,1912.10 C2065.10,1909.32 2073.34,1903.97 2078.47,1899.88 C2082.69,1896.37 2092.75,1887.42 2096.07,1883.84 C2100.42,1879.12 2106.84,1869.92 2109.57,1864.32 C2111.39,1860.53 2115.62,1848.50 2117.02,1844.06 C2117.77,1841.60 2119.15,1835.38 2119.41,1832.87 C2119.86,1828.18 2118.63,1819.41 2116.63,1811.09 C2114.14,1801.18 2112.24,1794.90 2110.19,1791.11 C2108.83,1788.61 2100.82,1777.00 2098.07,1773.78 C2094.70,1769.86 2086.08,1762.11 2081.48,1758.60 C2076.77,1755.01 2067.24,1749.03 2062.26,1746.56 C2057.40,1744.17 2049.21,1740.95 2041.17,1738.13 C2031.90,1735.06 2006.84,1727.83 1995.11,1724.55 C1971.19,1718.43 1931.26,1709.21 1927.89,1707.96 C1926.35,1707.38 1917.73,1704.29 1911.05,1700.74 C1907.84,1699.01 1903.24,1695.52 1901.57,1693.48 C1899.92,1691.40 1897.88,1686.75 1897.25,1683.77 C1896.26,1678.95 1896.48,1666.99 1897.16,1660.46 C1897.33,1658.94 1897.87,1656.35 1898.36,1654.94 C1898.97,1653.23 1902.73,1649.27 1904.27,1647.99 C1907.38,1645.40 1910.61,1642.92 1913.11,1641.70 C1917.14,1639.77 1927.59,1637.70 1933.98,1637.12 C1938.92,1636.69 1949.82,1636.60 1956.85,1636.85 C1964.80,1637.27 1971.71,1638.02 1977.43,1639.45 C1979.46,1639.95 1985.22,1641.45 1985.82,1641.60 C1988.44,1642.31 1992.81,1645.07 1995.22,1647.16 C2000.07,1651.43 2008.96,1660.65 2011.25,1664.24 C2012.44,1666.15 2013.77,1668.93 2014.06,1670.27 C2014.12,1670.58 2014.37,1673.17 2014.59,1674.62 C2014.76,1675.67 2015.49,1677.20 2016.15,1677.68 C2017.14,1678.35 2028.29,1678.42 2032.95,1678.45 C2058.15,1678.45 2106.74,1677.44 2110.38,1678.37" fill="none" stroke="rgb(134, 182, 184)" stroke-width="22.24" stroke-opacity="1.00" stroke-linejoin="round"/>
<path d="M2201.96,1637.18 C2199.26,1648.24 2203.86,1631.62 2218.06,1622.84 C2220.86,1621.10 2248.71,1607.16 2254.35,1606.95 C2262.64,1606.64 2290.07,1603.13 2293.45,1603.57 C2299.63,1604.36 2322.79,1608.05 2340.66,1613.88 C2347.02,1615.95 2360.61,1622.85 2367.37,1624.79 C2372.73,1626.33 2377.94,1631.56 2381.97,1633.44 C2386.83,1635.75 2396.64,1641.80 2399.01,1646.88 C2400.35,1649.75 2403.26,1654.04 2405.05,1656.08 C2406.76,1658.04 2409.77,1662.30 2410.56,1664.13 C2412.22,1668.01 2414.01,1675.14 2414.39,1679.44 C2414.91,1685.49 2415.23,1709.88 2414.66,1726.82 C2414.24,1737.83 2413.26,1761.73 2412.69,1774.62 C2411.90,1787.63 2409.33,1813.40 2408.07,1821.63 C2407.22,1826.57 2404.95,1837.81 2403.23,1843.55 C2401.01,1850.90 2395.71,1862.83 2392.64,1867.41 C2390.12,1871.12 2382.58,1878.80 2378.84,1881.91 C2375.08,1885.02 2366.32,1890.85 2362.39,1892.72 C2357.44,1895.06 2347.22,1898.64 2341.68,1899.98 C2337.35,1901.00 2324.35,1903.01 2318.37,1903.73 C2312.30,1904.32 2300.05,1905.13 2294.12,1905.02 C2288.26,1904.84 2276.33,1904.22 2270.26,1903.76 C2260.99,1902.95 2252.00,1901.68 2246.52,1900.21 C2241.08,1898.72 2230.64,1894.21 2226.69,1891.47 C2221.88,1888.10 2213.81,1879.92 2210.44,1875.01 C2207.45,1870.58 2201.91,1859.35 2200.11,1854.27 C2199.23,1851.73 2197.93,1847.03 2197.36,1844.27 C2196.85,1841.74 2196.56,1836.04 2196.66,1833.36 C2196.91,1827.81 2199.41,1817.77 2201.89,1812.01 C2204.11,1806.94 2209.78,1797.10 2212.62,1793.40 C2215.35,1789.88 2223.24,1781.87 2227.32,1778.47 C2231.81,1774.76 2240.80,1768.94 2246.38,1766.20 C2252.18,1763.38 2261.16,1760.06 2268.63,1757.72 C2279.51,1754.60 2307.27,1748.78 2316.36,1746.52 C2322.02,1744.99 2334.77,1741.02 2338.62,1739.61 C2345.13,1737.22 2357.03,1731.58 2362.14,1728.48 C2364.99,1726.75 2376.54,1718.70 2379.69,1716.18 C2383.94,1712.76 2391.84,1704.79 2394.16,1700.45 C2395.90,1697.13 2399.50,1686.71 2400.98,1680.36 C2402.64,1672.83 2405.99,1655.82 2406.32,1654.13" fill="none" stroke="rgb(134, 182, 184)" stroke-width="85.98" stroke-opacity="1.00" stroke-linejoin="miter"/>
<path d="M1283.18,1616.68 C1283.18,1616.68 1288.06,1866.67 1288.06,1866.67" fill="none" stroke="rgb(134, 182, 184)" stroke-width="82.45" stroke-opacity="1.00" stroke-linejoin="round"/>
<path d="M2038.40,1640.81 C2059.64,1645.12 2066.10,1645.78 2067.21,1645.62 C2067.97,1645.48 2068.32,1644.88 2067.85,1644.35 C2067.31,1643.78 2060.56,1639.59 2057.70,1637.37 C2055.00,1635.20 2046.49,1628.68 2042.91,1625.91 C2038.78,1622.65 2029.05,1614.91 2024.84,1612.59 C2022.06,1611.07 2015.83,1608.42 2012.39,1607.28 C2005.36,1605.00 1992.16,1602.67 1985.39,1601.98 C1980.03,1601.55 1968.66,1601.07 1962.65,1601.03 C1956.41,1601.13 1943.31,1601.71 1936.43,1602.20 C1929.33,1602.83 1915.55,1604.40 1909.13,1605.34 C1903.03,1606.37 1890.97,1608.87 1886.62,1610.08 C1881.63,1611.46 1871.77,1615.03 1867.38,1617.35 C1864.00,1619.17 1858.17,1623.41 1855.93,1625.70 C1853.72,1628.00 1850.54,1633.00 1849.59,1635.67 C1848.87,1637.74 1846.56,1651.67 1845.72,1656.63 C1845.34,1658.86 1843.95,1667.67 1843.43,1677.55 C1843.32,1681.36 1843.41,1684.44 1844.10,1686.64 C1845.70,1691.46 1851.45,1698.91 1855.56,1703.29 C1858.68,1706.49 1865.84,1713.34 1869.88,1716.97 C1875.09,1721.56 1884.33,1727.85 1890.61,1731.02 C1896.90,1734.19 1909.68,1739.06 1916.88,1741.31 C1927.09,1744.31 1947.97,1749.02 1963.35,1751.73 C1970.14,1752.76 1983.70,1754.85 1990.19,1756.03 C1997.66,1757.60 2008.90,1760.49 2013.51,1761.99 C2018.80,1763.72 2028.06,1767.54 2032.59,1769.86 C2035.16,1771.20 2041.00,1774.80 2043.88,1777.00 C2046.66,1779.13 2051.51,1783.74 2053.57,1786.21 C2055.61,1788.69 2058.98,1793.98 2060.31,1796.80 C2061.93,1800.29 2066.13,1814.82 2067.13,1819.32 C2068.28,1824.46 2069.74,1834.78 2069.63,1838.97 C2069.54,1842.11 2068.70,1847.80 2067.97,1850.30 C2067.21,1852.79 2065.17,1856.86 2063.67,1858.93 C2060.76,1862.90 2051.38,1871.32 2046.77,1874.20 C2043.36,1876.31 2032.78,1882.18 2027.46,1884.89 C2019.43,1888.76 2010.00,1892.88 2004.14,1894.95 C1998.32,1896.99 1985.96,1900.20 1980.81,1900.88 C1974.09,1901.74 1961.31,1902.05 1955.02,1901.51 C1952.31,1901.27 1923.29,1897.48 1912.27,1895.77 C1907.40,1895.00 1899.64,1892.37 1891.13,1888.50 C1887.90,1887.03 1851.06,1868.66 1842.86,1864.16 C1837.56,1861.13 1831.42,1856.72 1830.14,1855.03 C1829.60,1854.25 1830.08,1853.01 1831.25,1852.36 C1833.25,1851.34 1851.35,1853.72 1859.08,1854.76 C1861.78,1855.12 1865.53,1855.64 1866.59,1855.78" fill="none" stroke="rgb(134, 182, 184)" stroke-width="85.98" stroke-opacity="1.00" stroke-linejoin="miter"/>
<path d="M1097.53,1651.22 C1121.15,1649.92 1117.47,1649.57 1117.62,1649.22 C1117.62,1649.22 1128.00,1658.93 1122.41,1652.15 C1120.45,1649.77 1115.90,1647.79 1113.83,1645.61 C1108.39,1639.66 1095.94,1624.04 1093.79,1621.89 C1091.57,1619.68 1086.47,1615.68 1083.59,1613.88 C1077.82,1610.32 1065.18,1605.49 1058.56,1603.94 C1053.67,1602.86 1042.99,1601.37 1037.19,1600.95 C1032.50,1600.65 1018.72,1600.47 1012.10,1600.64 C1002.52,1601.12 991.71,1602.28 985.53,1603.58 C979.35,1604.90 968.06,1608.70 962.94,1611.18 C957.83,1613.68 948.74,1619.78 944.87,1623.37 C941.08,1626.89 934.48,1635.01 931.66,1639.60 C928.86,1644.20 924.23,1654.47 922.40,1660.14 C920.90,1664.81 917.93,1678.10 916.77,1684.22 C915.78,1690.35 914.24,1702.67 913.70,1708.86 C913.31,1715.06 912.97,1730.37 913.08,1733.78 C913.19,1737.08 914.52,1752.26 915.30,1758.44 C916.22,1764.63 918.51,1777.05 919.87,1783.29 C921.38,1789.53 924.85,1802.03 926.75,1808.11 C928.73,1813.94 932.92,1824.92 935.16,1829.95 C937.42,1834.91 942.26,1843.86 944.83,1847.84 C947.94,1852.64 955.41,1861.33 960.20,1865.35 C962.59,1867.35 967.54,1870.76 970.10,1872.17 C975.28,1875.01 984.85,1877.89 991.74,1879.20 C997.25,1880.24 1008.18,1881.49 1013.58,1881.71 C1019.84,1881.95 1030.91,1881.19 1036.68,1880.36 C1042.63,1879.50 1054.30,1876.88 1060.14,1875.10 C1065.87,1873.33 1076.51,1869.19 1081.43,1866.80 C1087.40,1863.90 1096.34,1858.19 1102.28,1853.19 C1106.81,1849.34 1113.49,1845.76 1117.92,1838.76 C1118.39,1838.02 1118.83,1837.25 1119.24,1836.44 C1119.57,1835.77 1119.88,1835.08 1120.17,1834.36 C1122.94,1827.51 1120.20,1830.27 1120.20,1830.27 C1119.70,1830.84 1124.72,1829.24 1123.42,1830.12 C1120.80,1831.88 1095.18,1829.20 1095.30,1836.42" fill="none" stroke="rgb(134, 182, 184)" stroke-width="78.85" stroke-opacity="1.00" stroke-linejoin="miter"/>
<path d="M1276.23,1484.82 C1281.28,1484.41 1278.43,1484.26 1282.14,1484.22 C1284.68,1484.19 1294.50,1488.30 1297.13,1488.65" fill="none" stroke="rgb(134, 182, 184)" stroke-width="76.50" stroke-opacity="1.00" stroke-linejoin="round"/>
<path d="M1543.05,1597.67 C1548.42,1596.86 1561.60,1596.58 1567.62,1597.16 C1573.65,1597.74 1585.03,1600.22 1591.18,1602.23 C1596.81,1604.07 1607.23,1608.60 1612.02,1611.26 C1617.55,1614.36 1625.00,1619.86 1629.53,1624.26 C1633.49,1628.10 1640.48,1636.68 1643.52,1641.40 C1646.42,1645.96 1651.82,1656.55 1654.15,1662.27 C1656.47,1668.02 1660.85,1681.67 1661.90,1686.57 C1663.00,1691.94 1664.93,1703.14 1665.75,1708.97 C1666.49,1714.95 1667.67,1727.37 1668.12,1733.82 C1668.47,1740.32 1668.77,1752.87 1668.72,1758.89 C1668.54,1764.76 1667.80,1776.00 1667.23,1781.37 C1666.43,1787.61 1663.57,1799.84 1661.55,1805.81 C1659.53,1811.77 1654.80,1821.95 1651.58,1827.32 C1648.26,1832.77 1642.45,1841.23 1639.14,1845.44 C1634.95,1850.75 1629.29,1856.69 1624.16,1861.08 C1619.97,1864.67 1610.95,1871.19 1606.44,1873.91 C1601.66,1876.76 1591.18,1881.02 1585.26,1882.50 C1578.51,1884.16 1569.09,1885.15 1562.28,1885.13 C1556.83,1885.11 1545.14,1884.25 1539.00,1883.49 C1530.32,1882.23 1519.81,1880.25 1513.79,1878.54 C1507.80,1876.83 1496.72,1872.43 1491.64,1869.74 C1485.90,1866.69 1477.14,1860.13 1473.06,1856.23 C1468.87,1852.21 1461.48,1843.14 1458.26,1838.08 C1456.33,1835.02 1449.63,1822.26 1447.13,1816.96 C1444.77,1811.68 1440.70,1801.14 1438.99,1795.90 C1437.56,1791.45 1434.97,1778.50 1434.25,1772.61 C1433.53,1766.73 1433.13,1757.17 1433.21,1749.18 C1433.39,1743.36 1433.90,1731.75 1434.23,1725.96 C1434.98,1716.31 1435.43,1712.61 1436.98,1703.10 C1438.02,1697.45 1440.23,1686.19 1441.42,1680.58 C1443.10,1673.25 1446.19,1664.07 1448.80,1658.89 C1451.44,1653.71 1458.75,1643.28 1462.30,1639.66 C1466.23,1635.67 1474.46,1628.71 1479.27,1625.29 C1484.10,1621.88 1494.91,1615.40 1500.80,1612.39 C1506.60,1609.43 1518.03,1604.57 1523.65,1602.67 C1529.27,1600.78 1540.00,1598.14 1543.05,1597.67 Z" fill="none" stroke="rgb(134, 182, 184)" stroke-width="78.85" stroke-opacity="1.00" stroke-linejoin="miter"/>
<path d="M743.27,1433.63 C749.32,1434.19 762.61,1436.74 766.26,1438.35 C768.69,1439.44 773.04,1442.48 774.81,1444.31 C776.55,1446.15 779.58,1450.85 780.77,1453.56 C782.15,1456.77 786.55,1473.95 786.77,1475.32 C787.36,1479.24 787.38,1485.99 786.77,1487.92 C786.43,1488.93 785.40,1490.42 784.73,1490.92 C783.77,1491.57 780.75,1491.87 778.54,1491.47 C774.40,1490.74 760.36,1490.68 755.15,1490.74 C742.14,1491.24 710.39,1492.47 709.26,1492.40 C708.35,1492.31 705.75,1491.70 705.14,1491.34 C703.63,1490.37 702.71,1486.47 702.40,1482.46 C701.88,1473.67 702.27,1437.62 702.44,1437.14 C702.88,1435.95 704.95,1434.21 706.43,1433.73 C707.90,1433.27 737.17,1433.08 743.27,1433.63 Z" fill="none" stroke="rgb(255, 255, 255)" stroke-width="17.58" stroke-opacity="1.00" stroke-linejoin="round"/>
<path d="M646.86,1566.77 C649.09,1566.58 650.72,1566.78 651.11,1567.48 C651.31,1567.87 651.34,1634.43 651.23,1659.25 C651.20,1661.26 651.11,1666.76 651.11,1666.76 C650.77,1667.62 648.17,1667.46 644.91,1667.30 C640.08,1667.09 629.11,1666.65 623.02,1666.55 C615.97,1666.60 605.51,1667.28 599.74,1668.15 C593.12,1669.16 584.03,1671.84 579.71,1674.31 C577.47,1675.62 573.12,1679.07 571.13,1681.23 C567.90,1684.77 561.27,1696.42 559.98,1700.02 C558.83,1703.36 557.91,1708.69 557.84,1712.24 C557.79,1714.89 557.52,1719.59 557.38,1722.05 C557.28,1723.40 556.02,1732.96 555.74,1739.30 C555.43,1748.44 555.26,1805.39 555.21,1830.87 C555.22,1856.40 555.38,1905.85 555.58,1907.44 C555.78,1909.15 555.50,1910.30 554.69,1910.66 C553.76,1911.03 477.26,1910.69 476.97,1910.70 C475.46,1910.73 474.74,1910.43 474.58,1909.57 C474.58,1909.57 474.90,1853.59 475.02,1830.15 C475.16,1800.95 475.52,1746.99 475.73,1722.25 C475.87,1712.26 476.28,1686.33 476.31,1685.50 C476.68,1677.63 478.17,1664.63 479.19,1660.33 C480.21,1656.29 483.17,1646.40 484.16,1644.06 C486.07,1639.65 491.12,1629.06 493.27,1625.75 C496.70,1620.55 502.88,1613.91 507.83,1609.67 C511.32,1606.67 521.33,1599.18 526.17,1595.93 C531.04,1592.78 539.66,1587.79 545.94,1584.78 C551.67,1582.15 559.51,1579.06 566.50,1576.66 C572.64,1574.72 581.83,1572.27 587.32,1571.18 C595.49,1569.63 621.45,1567.43 630.73,1567.14 C636.05,1567.07 646.36,1566.82 646.86,1566.77 Z" fill="none" stroke="rgb(255, 255, 255)" stroke-width="17.58" stroke-opacity="1.00" stroke-linejoin="round"/>
<path d="M708.54,1538.31 C709.47,1537.91 760.15,1539.18 765.06,1542.74 C769.90,1546.25 780.73,1554.61 781.74,1559.65 C789.54,1577.80 788.65,1595.14 788.66,1617.21 C788.68,1644.61 788.72,1704.57 788.75,1737.12 C788.77,1767.84 788.79,1823.92 788.78,1849.26 C788.75,1869.26 788.65,1904.89 788.67,1905.21 C788.72,1906.83 788.45,1907.61 787.59,1907.79 C787.59,1907.79 756.61,1907.73 743.06,1907.73 C732.27,1907.76 710.17,1908.02 709.69,1907.96 C708.76,1907.83 708.15,1907.52 707.83,1907.02 C707.83,1907.02 707.56,1850.29 707.51,1827.56 C707.51,1799.09 707.57,1737.99 707.63,1705.36 C707.67,1676.92 707.76,1625.44 707.79,1602.41 C707.80,1592.92 707.85,1574.38 707.88,1565.34 C708.10,1548.45 707.51,1539.69 707.51,1539.69 C707.66,1539.03 708.00,1538.57 708.54,1538.31 Z" fill="none" stroke="rgb(255, 255, 255)" stroke-width="17.58" stroke-opacity="1.00" stroke-linejoin="round"/>
<path d="M515.34,1869.18 C515.06,1851.64 514.41,1807.86 514.03,1781.61 C513.98,1769.19 514.02,1743.65 514.11,1730.53 C514.37,1717.89 515.20,1687.81 515.88,1682.14 C516.54,1676.81 518.76,1667.11 520.30,1662.75 C521.86,1658.40 526.33,1649.81 529.41,1645.83 C531.26,1643.47 535.39,1639.25 537.69,1637.38 C540.00,1635.53 545.06,1632.33 547.82,1630.98 C551.73,1629.08 566.38,1624.45 570.54,1623.34 C575.65,1622.01 585.93,1620.16 590.47,1620.40 C594.37,1620.63 600.15,1622.28 602.73,1623.91 C605.31,1625.56 608.19,1626.45 609.39,1626.01 C609.93,1625.78 611.05,1624.74 611.39,1624.12 C612.14,1622.62 612.51,1617.63 612.27,1612.94 C612.11,1609.86 611.86,1604.67 611.76,1602.58" fill="none" stroke="rgb(255, 255, 255)" stroke-width="95.22" stroke-opacity="1.00" stroke-linejoin="miter"/>
<path d="M749.31,1571.72 C749.31,1571.72 747.89,1878.21 747.89,1878.21" fill="none" stroke="rgb(255, 255, 255)" stroke-width="78.59" stroke-opacity="1.00" stroke-linejoin="round"/>
<path d="M731.80,1462.25 C731.80,1462.25 762.33,1467.42 762.33,1467.42" fill="none" stroke="rgb(255, 255, 255)" stroke-width="55.81" stroke-opacity="1.00" stroke-linejoin="round"/>
<path d="M379.39,1794.46 C370.01,1794.49 346.19,1794.54 331.76,1794.57 C319.44,1794.55 285.99,1794.04 285.00,1794.08 C283.07,1794.18 281.33,1795.06 280.95,1795.69 C280.62,1796.28 280.36,1798.41 279.52,1800.38 C278.84,1801.98 276.39,1805.92 274.82,1807.83 C271.49,1811.81 263.30,1818.49 256.02,1823.69 C254.25,1824.95 248.53,1827.04 242.80,1828.29 C237.02,1829.47 228.18,1830.18 220.50,1830.35 C213.29,1830.38 203.01,1829.69 198.06,1828.67 C192.20,1827.47 181.59,1823.13 177.42,1820.36 C172.72,1817.19 162.83,1807.02 160.40,1804.08 C158.93,1802.28 156.00,1798.07 155.19,1796.35 C152.84,1791.31 146.87,1768.02 146.35,1764.13 C145.84,1760.24 145.87,1756.17 146.22,1752.69 C146.44,1750.12 145.90,1746.62 146.35,1746.38 C146.35,1746.38 208.26,1745.82 235.24,1745.68 C260.52,1745.65 314.62,1745.72 343.44,1745.81 C366.60,1745.97 389.01,1745.64 389.01,1745.64 C389.57,1745.36 389.90,1744.92 390.02,1744.34 C390.15,1743.67 389.76,1738.27 389.94,1735.91 C390.48,1730.55 391.56,1718.92 391.23,1711.60 C391.04,1707.65 389.35,1694.17 388.33,1687.82 C387.32,1682.17 384.94,1669.69 383.74,1665.04 C382.62,1660.80 378.11,1648.40 376.89,1645.53 C374.59,1640.31 369.52,1629.08 366.82,1624.30 C364.88,1620.90 357.03,1609.09 354.05,1605.12 C350.56,1600.59 343.00,1592.02 339.18,1588.30 C334.92,1584.18 327.32,1578.01 321.68,1573.99 C316.86,1570.71 305.69,1563.74 302.46,1562.04 C298.01,1559.72 284.77,1554.04 282.15,1552.99 C276.01,1550.55 270.05,1548.83 262.90,1547.27 C257.13,1546.13 243.67,1543.68 240.46,1543.28 C234.20,1542.55 224.86,1542.02 219.59,1542.17 C216.60,1542.27 202.69,1543.54 196.94,1544.29 C191.25,1545.13 180.12,1547.52 174.70,1549.10 C168.56,1550.91 158.46,1554.84 152.98,1557.16 C147.46,1559.62 137.65,1564.65 132.31,1568.04 C127.53,1571.09 117.65,1578.41 113.97,1581.68 C109.90,1585.36 101.82,1593.48 98.07,1597.47 C94.39,1601.51 87.38,1610.40 84.68,1614.43 C81.42,1619.33 77.20,1627.02 73.86,1633.76 C71.54,1638.61 66.82,1649.10 64.81,1654.79 C62.64,1660.99 59.80,1672.13 58.57,1678.20 C57.33,1684.83 52.94,1716.21 52.57,1723.55 C52.38,1727.92 53.10,1737.51 54.06,1744.99 C54.95,1750.91 56.87,1762.96 57.90,1769.07 C59.37,1777.03 61.45,1786.44 63.03,1790.91 C65.37,1797.46 77.42,1823.36 81.38,1830.26 C84.27,1835.26 91.14,1844.40 94.82,1849.01 C98.72,1853.78 106.63,1862.16 111.48,1866.44 C114.29,1868.91 126.78,1878.62 129.47,1880.39 C133.93,1883.30 145.51,1889.52 147.83,1890.64 C149.76,1891.57 163.30,1897.38 168.09,1898.99 C173.12,1900.68 184.81,1903.63 190.54,1904.91 C197.76,1906.42 209.04,1908.08 214.41,1908.40 C219.83,1908.70 230.61,1908.30 237.39,1907.57 C242.82,1906.91 253.26,1905.41 258.79,1904.24 C264.36,1903.02 274.73,1899.95 279.89,1898.23 C282.80,1897.21 296.70,1891.25 299.27,1889.97 C304.13,1887.54 313.13,1881.88 318.92,1877.52 C322.68,1874.61 333.26,1865.66 337.55,1861.84 C343.08,1856.72 350.11,1849.46 352.97,1845.65 C356.07,1841.47 360.77,1833.63 364.81,1826.28 C373.27,1810.11 376.15,1803.57 378.77,1795.82 C379.39,1794.07 377.76,1797.18 378.72,1796.78" fill="none" stroke="rgb(255, 255, 255)" stroke-width="18.35" stroke-opacity="1.00" stroke-linejoin="round"/>
<path d="M207.01,1619.13 C209.14,1618.95 225.27,1618.57 228.90,1618.67 C235.36,1618.87 244.21,1620.21 250.60,1622.32 C256.17,1624.16 262.14,1626.52 267.60,1629.97 C270.57,1631.89 275.04,1635.28 276.97,1637.17 C280.76,1640.92 287.00,1649.25 289.21,1653.80 C291.41,1658.41 293.54,1669.07 294.36,1676.28 C295.11,1683.71 295.15,1695.01 294.31,1696.07 C294.02,1696.40 289.27,1696.06 287.66,1696.05 C265.92,1696.04 214.41,1696.10 184.66,1696.18 C173.46,1696.16 149.91,1696.07 149.60,1696.08 C148.00,1696.13 147.31,1695.86 147.15,1694.96 C147.09,1694.63 146.95,1689.16 146.84,1686.87 C146.72,1682.11 149.20,1670.00 150.79,1665.00 C152.33,1660.19 156.85,1651.34 160.66,1645.92 C162.68,1643.07 165.52,1639.59 167.69,1637.32 C169.75,1635.19 174.13,1631.83 176.69,1630.37 C180.43,1628.26 193.04,1622.42 196.81,1621.06 C199.07,1620.27 203.14,1619.47 207.01,1619.13 Z" fill="none" stroke="rgb(255, 255, 255)" stroke-width="18.35" stroke-opacity="1.00" stroke-linejoin="round"/>
<path d="M132.66,1720.11 C150.75,1719.76 195.85,1718.88 222.87,1718.35 C252.70,1717.80 304.29,1716.91 326.04,1716.57 C330.19,1716.52 338.64,1716.44 346.54,1715.95 C347.90,1715.84 349.15,1715.44 349.78,1714.86 C350.39,1714.26 351.40,1712.09 351.52,1711.15 C351.60,1710.37 349.45,1700.07 348.30,1695.31 C346.91,1690.03 343.10,1676.60 341.28,1671.68 C338.95,1665.47 333.05,1653.39 329.48,1647.51 C326.38,1642.43 318.85,1632.55 314.92,1628.14 C310.99,1623.72 302.86,1615.71 297.52,1611.00 C293.68,1607.70 282.11,1598.68 277.87,1595.79 C273.00,1592.49 263.41,1586.91 258.69,1584.63 C253.07,1581.99 242.47,1578.51 236.83,1577.44 C231.20,1576.39 220.43,1575.94 214.74,1576.50 C209.27,1577.07 198.27,1579.42 192.70,1581.21 C186.06,1583.37 178.09,1587.01 172.20,1590.45 C167.53,1593.18 158.13,1599.57 153.40,1603.15 C146.86,1608.29 139.20,1614.90 134.92,1619.32 C130.67,1623.73 123.05,1633.23 119.69,1638.31 C115.84,1644.15 111.10,1653.89 109.34,1658.23 C107.33,1663.23 103.97,1673.70 102.62,1679.17 C101.28,1684.64 99.24,1696.28 98.64,1701.98 C98.04,1707.84 97.68,1719.79 97.93,1725.87 C98.18,1731.95 99.65,1745.40 100.66,1750.30 C101.88,1755.94 104.87,1767.36 106.62,1773.13 C108.54,1778.94 112.92,1790.68 115.37,1796.62 C117.99,1802.60 123.61,1814.32 126.51,1819.81 C129.43,1825.10 135.43,1834.81 138.53,1839.11 C141.63,1843.40 148.57,1851.59 152.08,1854.83 C156.90,1859.27 166.91,1866.07 172.07,1868.42 C177.26,1870.76 187.44,1873.20 193.47,1873.78 C199.04,1874.30 210.64,1874.06 216.68,1873.30 C223.27,1872.45 234.89,1869.54 239.84,1867.97 C244.80,1866.38 256.14,1862.00 263.37,1858.84 C270.34,1855.56 301.82,1847.79 304.97,1838.18 C307.30,1831.09 316.47,1829.85 322.78,1828.10 C334.74,1824.78 333.04,1823.94 333.89,1823.69" fill="none" stroke="rgb(255, 255, 255)" stroke-width="78.43" stroke-opacity="1.00" stroke-linejoin="miter"/>
<path d="M403.23,1525.40 C404.65,1524.87 405.79,1522.93 407.71,1517.86 C408.81,1515.01 412.78,1510.60 415.14,1509.10 C417.41,1507.71 423.05,1505.64 426.03,1505.10 C429.08,1504.58 434.46,1505.13 436.63,1506.16 C438.75,1507.23 442.32,1511.11 443.67,1513.83 C445.01,1516.61 446.47,1522.33 446.49,1524.93 C446.48,1527.49 444.97,1532.36 443.55,1534.53 C442.85,1535.57 432.03,1547.29 428.52,1551.40 C423.71,1557.13 417.58,1566.15 415.43,1570.84 C415.43,1570.84 413.41,1575.56 412.97,1576.33 C412.40,1577.30 411.02,1578.58 410.37,1578.72 C409.72,1578.82 408.14,1578.08 407.40,1577.35 C406.84,1576.78 402.44,1571.12 399.38,1568.28 C393.59,1562.96 375.12,1552.03 370.14,1549.24 C367.44,1547.68 363.30,1544.17 361.46,1541.89 C359.95,1540.00 357.24,1535.12 356.16,1532.37 C355.00,1529.32 354.14,1524.39 354.39,1522.06 C354.55,1520.82 355.24,1518.83 355.90,1517.73 C357.21,1515.66 361.45,1512.52 364.41,1511.26 C366.98,1510.19 372.01,1509.29 374.68,1509.53 C377.40,1509.82 381.87,1511.72 384.89,1513.53 C390.15,1516.73 398.38,1524.13 399.40,1524.77 C400.46,1525.42 402.31,1525.68 403.23,1525.40 Z" fill="none" stroke="rgb(134, 182, 184)" stroke-width="9.45" stroke-opacity="1.00" stroke-linejoin="miter"/>
<path d="M371.35,1527.05 C385.65,1536.46 395.24,1543.83 399.33,1547.96 C400.74,1549.40 405.02,1554.43 406.28,1555.61 C406.84,1556.11 407.62,1556.28 407.55,1555.74 C407.46,1554.95 406.28,1551.33 406.53,1549.94 C407.05,1547.11 411.28,1541.23 412.73,1539.63 C414.81,1537.37 424.50,1528.63 426.86,1526.50" fill="none" stroke="rgb(134, 182, 184)" stroke-width="40.28" stroke-opacity="1.00" stroke-linejoin="miter"/>
</g>
</svg>
