<?xml version="1.0" encoding="UTF-8" standalone="no"?>
<!DOCTYPE svg PUBLIC "-//W3C//DTD SVG 1.1//EN" "http://www.w3.org/Graphics/SVG/1.1/DTD/svg11.dtd">
<svg width="514.29" height="514.29" viewBox="0.00 0.00 2500.00 2500.00" xmlns="http://www.w3.org/2000/svg" xmlns:xlink="http://www.w3.org/1999/xlink">
<g stroke-linecap="round" id="Ericiosa_logo_1">
<path d="M1634.51,394.23 C1643.04,394.96 1661.79,398.28 1666.94,400.37 C1670.37,401.79 1676.50,405.74 1679.00,408.13 C1681.45,410.53 1685.72,416.64 1687.40,420.17 C1689.35,424.35 1695.56,446.72 1695.86,448.50 C1696.69,453.61 1696.72,462.39 1695.87,464.90 C1695.39,466.22 1693.93,468.16 1692.99,468.81 C1691.63,469.66 1687.38,470.04 1684.26,469.53 C1678.42,468.57 1658.61,468.50 1651.26,468.58 C1632.91,469.23 1588.13,470.83 1586.54,470.73 C1585.26,470.62 1581.59,469.83 1580.73,469.36 C1578.60,468.09 1577.30,463.01 1576.87,457.79 C1576.13,446.35 1576.69,399.42 1576.92,398.79 C1577.55,397.24 1580.46,394.98 1582.55,394.35 C1584.63,393.76 1625.91,393.51 1634.51,394.23 Z" fill="none" stroke="rgb(255, 255, 255)" stroke-width="24.80" stroke-opacity="1.00" stroke-linejoin="round"/>
<path d="M1149.53,863.53 C1136.85,863.56 1104.65,863.63 1085.14,863.67 C1068.50,863.64 1023.28,862.96 1021.94,863.01 C1019.34,863.15 1016.98,864.33 1016.47,865.19 C1016.02,865.99 1015.67,868.86 1014.53,871.53 C1013.61,873.69 1010.30,879.02 1008.18,881.59 C1003.68,886.98 992.61,896.01 982.77,903.03 C980.38,904.74 972.65,907.56 964.90,909.25 C957.09,910.84 945.14,911.80 934.76,912.03 C925.01,912.08 911.12,911.14 904.43,909.77 C896.51,908.14 882.16,902.28 876.53,898.53 C870.18,894.25 856.81,880.50 853.53,876.53 C851.54,874.10 847.58,868.40 846.48,866.08 C843.31,859.26 835.24,827.78 834.53,822.53 C833.84,817.27 833.89,811.77 834.36,807.07 C834.66,803.59 833.93,798.86 834.53,798.53 C834.53,798.53 918.22,797.78 954.68,797.59 C988.85,797.55 1061.98,797.64 1100.93,797.77 C1132.24,797.98 1162.53,797.53 1162.53,797.53 C1163.28,797.15 1163.73,796.56 1163.90,795.78 C1164.07,794.87 1163.55,787.57 1163.78,784.39 C1164.52,777.14 1165.98,761.42 1165.53,751.53 C1165.27,746.19 1162.99,727.96 1161.61,719.38 C1160.24,711.74 1157.03,694.87 1155.40,688.59 C1153.89,682.86 1147.79,666.10 1146.15,662.22 C1143.04,655.17 1136.18,639.99 1132.53,633.53 C1129.92,628.93 1119.31,612.96 1115.27,607.60 C1110.56,601.47 1100.34,589.88 1095.18,584.86 C1089.42,579.29 1079.15,570.95 1071.52,565.51 C1065.00,561.08 1049.91,551.65 1045.54,549.36 C1039.53,546.22 1021.63,538.54 1018.09,537.12 C1009.79,533.83 1001.73,531.50 992.07,529.39 C984.27,527.86 966.08,524.54 961.74,524.00 C953.28,523.01 940.65,522.30 933.53,522.50 C929.49,522.63 910.68,524.35 902.92,525.36 C895.23,526.50 880.18,529.73 872.85,531.87 C864.56,534.32 850.90,539.63 843.50,542.76 C836.04,546.09 822.78,552.88 815.55,557.47 C809.09,561.59 795.74,571.49 790.77,575.91 C785.26,580.88 774.35,591.85 769.27,597.25 C764.30,602.72 754.82,614.74 751.18,620.18 C746.77,626.81 741.07,637.20 736.55,646.31 C733.42,652.87 727.04,667.04 724.32,674.74 C721.38,683.11 717.55,698.17 715.89,706.38 C714.21,715.34 708.27,757.75 707.78,767.68 C707.52,773.58 708.49,786.54 709.79,796.65 C710.99,804.66 713.58,820.94 714.98,829.21 C716.97,839.96 719.78,852.68 721.91,858.72 C725.08,867.58 741.36,902.59 746.72,911.91 C750.62,918.67 759.91,931.03 764.88,937.26 C770.15,943.70 780.84,955.03 787.40,960.82 C791.20,964.16 808.08,977.28 811.72,979.67 C817.74,983.60 833.40,992.02 836.53,993.53 C839.14,994.78 857.45,1002.64 863.92,1004.82 C870.72,1007.10 886.52,1011.08 894.27,1012.81 C904.02,1014.86 919.27,1017.10 926.53,1017.53 C933.86,1017.94 948.42,1017.40 957.59,1016.41 C964.93,1015.52 979.04,1013.49 986.52,1011.91 C994.05,1010.26 1008.06,1006.11 1015.04,1003.78 C1018.97,1002.41 1037.76,994.35 1041.23,992.62 C1047.80,989.34 1059.96,981.69 1067.79,975.80 C1072.87,971.86 1087.18,959.76 1092.97,954.60 C1100.45,947.68 1109.95,937.87 1113.81,932.71 C1118.01,927.06 1124.36,916.47 1129.82,906.54 C1141.25,884.68 1145.15,875.84 1148.69,865.36 C1149.53,862.99 1147.33,867.20 1148.62,866.66" fill="none" stroke="rgb(255, 255, 255)" stroke-width="24.80" stroke-opacity="1.00" stroke-linejoin="round"/>
<path d="M1498.53,526.50 C1501.67,526.23 1503.98,526.51 1504.53,527.50 C1504.81,528.05 1504.85,621.93 1504.69,656.94 C1504.65,659.77 1504.53,667.53 1504.53,667.53 C1504.04,668.75 1500.38,668.52 1495.78,668.30 C1488.97,668.00 1473.50,667.37 1464.91,667.24 C1454.97,667.31 1440.21,668.26 1432.07,669.49 C1422.74,670.91 1409.92,674.70 1403.82,678.18 C1400.66,680.03 1394.53,684.90 1391.72,687.94 C1387.16,692.94 1377.81,709.36 1376.00,714.44 C1374.37,719.15 1373.08,726.67 1372.98,731.68 C1372.91,735.42 1372.53,742.05 1372.33,745.52 C1372.19,747.42 1370.41,760.90 1370.01,769.84 C1369.57,782.73 1369.34,863.06 1369.26,898.99 C1369.28,935.00 1369.50,1004.75 1369.79,1006.99 C1370.07,1009.41 1369.68,1011.02 1368.53,1011.53 C1367.22,1012.05 1259.32,1011.57 1258.92,1011.59 C1256.78,1011.63 1255.77,1011.21 1255.54,1010.00 C1255.54,1010.00 1255.99,931.04 1256.16,897.98 C1256.36,856.79 1256.87,780.69 1257.17,745.79 C1257.36,731.71 1257.94,695.13 1257.99,693.96 C1258.51,682.86 1260.60,664.53 1262.04,658.46 C1263.48,652.77 1267.66,638.82 1269.05,635.52 C1271.75,629.29 1278.87,614.36 1281.91,609.69 C1286.74,602.35 1295.46,592.98 1302.44,587.00 C1307.36,582.77 1321.48,572.20 1328.31,567.62 C1335.17,563.18 1347.33,556.14 1356.19,551.90 C1364.28,548.18 1375.33,543.83 1385.19,540.44 C1393.85,537.71 1406.81,534.25 1414.55,532.72 C1426.08,530.53 1462.69,527.42 1475.78,527.02 C1483.29,526.91 1497.83,526.57 1498.53,526.50 Z" fill="none" stroke="rgb(255, 255, 255)" stroke-width="24.80" stroke-opacity="1.00" stroke-linejoin="round"/>
<path d="M1585.53,530.50 C1586.84,529.98 1694.75,530.46 1695.14,530.44 C1697.28,530.41 1698.29,530.82 1698.52,532.04 C1698.52,532.04 1698.52,604.50 1698.53,633.23 C1698.56,668.91 1698.62,746.96 1698.66,789.34 C1698.69,829.33 1698.71,902.34 1698.70,935.34 C1698.65,961.37 1698.52,1007.76 1698.54,1008.18 C1698.62,1010.28 1698.23,1011.30 1697.02,1011.53 C1697.02,1011.53 1653.32,1011.45 1634.21,1011.46 C1619.00,1011.49 1587.82,1011.84 1587.15,1011.76 C1585.84,1011.59 1584.97,1011.18 1584.53,1010.53 C1584.53,1010.53 1584.15,936.67 1584.08,907.08 C1584.08,870.02 1584.16,790.48 1584.24,748.00 C1584.30,710.97 1584.42,643.95 1584.47,613.97 C1584.49,601.61 1584.55,577.47 1584.60,565.70 C1584.90,543.71 1584.07,532.30 1584.07,532.30 C1584.28,531.44 1584.77,530.84 1585.53,530.50 Z" fill="none" stroke="rgb(255, 255, 255)" stroke-width="24.80" stroke-opacity="1.00" stroke-linejoin="round"/>
<path d="M916.53,626.53 C919.41,626.29 941.21,625.78 946.12,625.92 C954.85,626.18 966.81,628.00 975.44,630.85 C982.98,633.34 991.04,636.52 998.42,641.19 C1002.44,643.78 1008.48,648.37 1011.09,650.92 C1016.21,655.99 1024.64,667.25 1027.63,673.40 C1030.61,679.63 1033.48,694.04 1034.59,703.78 C1035.61,713.83 1035.66,729.10 1034.53,730.53 C1034.14,730.98 1027.72,730.52 1025.54,730.50 C996.15,730.49 926.53,730.57 886.31,730.68 C871.18,730.66 839.34,730.53 838.92,730.55 C836.77,730.62 835.83,730.25 835.61,729.03 C835.53,728.58 835.35,721.19 835.20,718.10 C835.04,711.66 838.39,695.30 840.53,688.53 C842.61,682.03 848.73,670.07 853.88,662.75 C856.61,658.89 860.45,654.19 863.38,651.12 C866.16,648.24 872.08,643.70 875.54,641.73 C880.60,638.88 897.64,630.98 902.74,629.14 C905.79,628.07 911.30,626.99 916.53,626.53 Z" fill="none" stroke="rgb(255, 255, 255)" stroke-width="24.80" stroke-opacity="1.00" stroke-linejoin="round"/>
<path d="M1290.99,1081.89 C1296.13,1082.78 1303.34,1085.20 1306.54,1087.05 C1309.45,1088.78 1314.98,1093.01 1317.51,1095.59 C1320.06,1098.23 1325.14,1104.60 1326.79,1107.60 C1328.85,1111.42 1330.62,1117.86 1330.86,1122.38 C1330.98,1124.86 1330.37,1134.97 1330.46,1138.29 C1330.53,1139.95 1331.36,1152.68 1330.67,1153.78 C1329.81,1155.05 1327.59,1155.87 1325.59,1155.88 C1325.59,1155.88 1305.48,1156.08 1297.48,1155.99 C1277.98,1155.29 1234.26,1153.91 1231.15,1154.00 C1227.90,1154.09 1223.98,1155.08 1222.74,1155.37 C1220.98,1155.76 1218.94,1155.19 1218.05,1154.04 C1216.45,1151.79 1215.86,1146.29 1215.86,1140.95 C1216.26,1125.25 1217.46,1094.99 1217.43,1093.70 C1217.30,1089.39 1216.73,1082.58 1217.30,1081.67 C1217.97,1080.67 1220.31,1079.56 1221.84,1079.37 C1223.22,1079.23 1278.87,1080.64 1284.65,1081.15 C1286.28,1081.32 1289.90,1081.71 1290.99,1081.89 Z" fill="none" stroke="rgb(255, 255, 255)" stroke-width="24.80" stroke-opacity="1.00" stroke-linejoin="round"/>
<path d="M1613.53,1062.53 C1622.67,1061.93 1658.02,1064.95 1669.02,1067.45 C1673.64,1068.51 1690.36,1073.76 1698.11,1076.44 C1706.34,1079.38 1722.26,1086.61 1728.85,1090.39 C1736.32,1094.77 1748.68,1103.10 1754.86,1107.92 C1761.15,1112.85 1773.35,1124.06 1778.23,1129.46 C1783.67,1135.50 1792.55,1147.02 1798.02,1155.08 C1802.35,1161.58 1811.48,1176.29 1813.75,1180.57 C1817.96,1188.57 1822.48,1199.34 1826.08,1209.20 C1828.51,1216.25 1832.60,1231.00 1834.57,1238.73 C1836.33,1246.21 1839.65,1260.83 1840.89,1268.23 C1842.45,1278.52 1843.54,1289.98 1843.56,1298.53 C1843.56,1308.13 1840.34,1346.27 1838.22,1358.63 C1836.43,1367.98 1833.32,1381.08 1831.48,1387.96 C1829.49,1394.93 1824.37,1409.41 1821.42,1416.17 C1818.08,1423.81 1812.89,1433.71 1807.48,1443.05 C1801.95,1452.18 1794.55,1463.33 1790.53,1468.53 C1785.99,1474.37 1777.36,1483.79 1769.54,1491.70 C1762.55,1498.57 1753.02,1506.93 1747.28,1511.00 C1742.12,1514.63 1726.32,1523.78 1722.50,1525.79 C1715.32,1529.57 1704.75,1534.17 1694.93,1537.91 C1686.25,1540.96 1672.93,1545.06 1666.52,1546.44 C1659.79,1547.87 1644.85,1549.75 1638.53,1550.53 C1627.82,1551.58 1620.49,1551.78 1611.92,1550.91 C1604.10,1549.96 1588.36,1547.55 1581.65,1546.04 C1574.72,1544.40 1562.32,1540.29 1553.90,1536.89 C1546.56,1533.81 1529.29,1526.03 1523.80,1523.25 C1516.66,1519.58 1504.67,1511.61 1498.29,1506.41 C1492.63,1501.70 1481.92,1491.19 1476.49,1485.47 C1468.50,1476.82 1464.35,1471.99 1458.00,1463.95 C1453.50,1458.12 1446.55,1446.64 1442.52,1438.66 C1439.37,1432.20 1432.68,1417.48 1429.44,1409.71 C1426.40,1401.98 1421.30,1386.95 1419.10,1378.35 C1417.31,1371.30 1414.27,1354.87 1412.98,1347.56 C1411.46,1338.25 1409.98,1326.54 1409.66,1319.22 C1409.49,1312.92 1410.07,1297.36 1410.40,1289.59 C1410.76,1281.21 1411.63,1273.11 1413.70,1262.38 C1415.34,1254.27 1418.83,1237.67 1420.64,1230.03 C1422.79,1221.34 1426.45,1210.81 1430.23,1201.57 C1435.70,1188.57 1450.97,1161.22 1458.53,1150.53 C1462.31,1145.20 1472.61,1132.58 1478.53,1126.53 C1481.03,1123.98 1496.18,1110.18 1500.83,1106.31 C1507.34,1100.98 1519.00,1093.01 1525.14,1089.60 C1531.12,1086.30 1542.15,1081.21 1551.46,1077.58 C1558.50,1075.05 1575.97,1069.46 1579.53,1068.53 C1594.88,1064.55 1612.39,1062.61 1613.53,1062.53 Z" fill="none" stroke="rgb(255, 255, 255)" stroke-width="24.80" stroke-opacity="1.00" stroke-linejoin="round"/>
<path d="M1111.53,1384.53 C1110.39,1389.70 1107.47,1402.50 1103.53,1412.53 C1102.16,1416.00 1094.38,1432.83 1090.55,1440.49 C1086.76,1447.74 1078.38,1462.63 1074.61,1468.24 C1070.77,1473.90 1058.83,1488.06 1056.53,1490.53 C1051.51,1495.89 1040.11,1506.36 1034.53,1510.53 C1031.67,1512.66 1015.49,1523.12 1009.37,1526.85 C1003.63,1530.30 990.31,1536.88 982.53,1539.53 C979.45,1540.57 959.96,1545.92 951.98,1547.87 C944.17,1549.66 928.27,1552.30 922.64,1552.59 C915.14,1552.95 900.25,1551.65 892.48,1550.55 C884.44,1549.26 867.73,1545.94 861.89,1544.24 C854.97,1542.22 836.80,1534.68 832.76,1532.79 C823.65,1528.44 815.10,1523.80 807.31,1518.59 C798.61,1512.62 788.80,1505.10 785.51,1502.22 C782.39,1499.46 769.52,1486.37 765.73,1481.92 C761.42,1476.84 750.28,1461.28 747.56,1457.05 C743.29,1450.40 735.81,1436.38 732.33,1428.21 C730.33,1423.49 723.89,1406.02 721.53,1399.53 C717.98,1388.91 715.30,1379.49 713.94,1372.64 C712.66,1365.79 710.10,1351.21 709.01,1343.44 C708.39,1338.61 707.06,1319.43 706.75,1311.61 C706.49,1301.67 706.72,1290.69 707.48,1283.84 C708.75,1273.80 715.62,1233.93 718.53,1223.55 C720.07,1218.10 724.66,1205.08 728.60,1195.32 C733.09,1184.65 738.96,1172.15 742.46,1166.15 C746.34,1159.53 754.72,1147.61 758.73,1141.98 C762.64,1136.60 772.59,1125.09 778.53,1119.53 C780.35,1117.84 796.36,1104.37 800.39,1101.42 C807.29,1096.40 819.87,1089.06 826.66,1085.55 C834.72,1081.54 848.32,1075.67 854.53,1073.53 C862.26,1070.89 877.35,1067.29 885.75,1065.95 C894.16,1064.63 907.92,1063.81 916.89,1064.04 C929.03,1064.45 938.27,1064.98 943.61,1065.59 C950.20,1066.36 964.39,1070.16 972.10,1072.42 C979.94,1074.88 994.35,1079.84 1001.90,1083.38 C1008.30,1086.40 1020.68,1093.76 1027.65,1098.91 C1034.17,1103.75 1045.67,1113.61 1051.62,1119.53 C1058.89,1127.04 1067.11,1136.31 1072.07,1143.09 C1075.72,1148.10 1083.71,1160.96 1088.35,1169.27 C1092.14,1176.29 1099.18,1191.81 1101.79,1198.93 C1104.49,1206.33 1111.24,1229.52 1111.53,1230.53" fill="none" stroke="rgb(255, 255, 255)" stroke-width="24.80" stroke-opacity="1.00" stroke-linejoin="round"/>
<path d="M1297.45,1237.35 C1302.83,1239.31 1310.44,1244.12 1312.89,1247.09 C1315.65,1250.53 1321.14,1267.60 1322.18,1273.98 C1323.57,1282.63 1323.74,1308.92 1323.34,1326.83 C1322.67,1360.18 1321.10,1429.72 1320.19,1465.92 C1319.39,1496.12 1318.34,1533.98 1317.39,1539.52 C1316.91,1542.37 1316.45,1553.38 1316.45,1553.38 C1315.81,1555.13 1313.76,1556.21 1311.66,1556.23 C1311.66,1556.23 1289.87,1556.85 1280.01,1556.79 C1270.09,1556.63 1252.55,1556.32 1244.93,1556.17 C1242.24,1556.09 1234.02,1555.33 1231.49,1554.04 C1230.22,1553.35 1228.45,1550.83 1228.04,1549.27 C1227.84,1548.43 1226.17,1463.84 1225.60,1427.21 C1225.13,1389.51 1224.30,1324.18 1223.94,1296.55 C1223.85,1276.18 1223.46,1248.08 1223.15,1240.36 C1223.12,1239.02 1221.90,1235.80 1221.65,1234.37 C1221.42,1232.98 1221.58,1232.05 1222.15,1231.57 C1222.15,1231.57 1241.79,1231.58 1250.10,1231.72 C1264.42,1232.11 1279.65,1233.31 1287.21,1234.76 C1290.25,1235.35 1296.29,1236.94 1297.45,1237.35 Z" fill="none" stroke="rgb(255, 255, 255)" stroke-width="24.80" stroke-opacity="1.00" stroke-linejoin="round"/>
<path d="M1103.82,1391.79 C1102.82,1392.59 1108.36,1391.90 1106.62,1392.39 C1099.72,1394.31 1104.29,1386.82 1101.02,1386.97 C1065.52,1388.60 996.32,1385.48 995.94,1385.47 C993.83,1385.46 992.39,1385.85 991.67,1386.87 C991.67,1386.87 982.44,1408.42 978.72,1413.87 C977.08,1416.24 972.33,1421.89 969.62,1424.36 C967.40,1426.37 960.37,1431.72 957.63,1433.29 C954.61,1435.01 948.88,1437.47 946.04,1438.33 C938.45,1440.52 927.81,1441.70 918.54,1441.79 C907.64,1441.69 893.79,1440.91 887.66,1439.68 C883.52,1438.83 877.95,1436.77 873.32,1434.80 C870.28,1433.48 864.37,1429.96 862.44,1428.38 C858.50,1425.11 845.78,1408.63 843.47,1405.07 C838.84,1397.86 833.01,1383.82 830.84,1375.38 C828.50,1365.91 826.24,1353.27 825.59,1345.41 C824.53,1330.53 823.17,1301.44 824.12,1285.42 C824.76,1277.70 826.51,1260.48 827.08,1256.52 C828.41,1247.62 831.06,1237.34 834.03,1229.93 C837.47,1221.41 844.63,1207.80 849.40,1201.73 C851.51,1199.07 857.17,1192.97 859.46,1190.60 C862.02,1187.96 867.11,1183.95 870.35,1182.18 C873.34,1180.57 880.49,1177.62 881.55,1177.22 C888.10,1174.82 903.34,1173.91 911.51,1173.95 C919.45,1174.11 935.36,1174.76 941.63,1176.05 C944.78,1176.73 951.32,1179.32 954.59,1181.18 C957.89,1183.08 964.84,1187.81 967.79,1190.24 C971.15,1193.03 976.44,1198.62 978.92,1202.10 C980.99,1205.03 985.15,1212.48 986.53,1215.53 C988.29,1219.46 990.63,1226.69 991.48,1228.72 C992.07,1230.05 993.63,1231.61 994.68,1231.72 C994.68,1231.72 1000.80,1230.50 1005.46,1230.40 C1020.74,1230.45 1052.86,1230.48 1069.68,1230.46 C1078.96,1230.23 1098.56,1229.61 1103.21,1229.77 C1105.40,1229.86 1104.31,1226.86 1107.51,1228.44 C1109.54,1229.45 1101.61,1226.48 1102.69,1227.50" fill="none" stroke="rgb(255, 255, 255)" stroke-width="24.80" stroke-opacity="1.00" stroke-linejoin="round"/>
<path d="M1609.53,1174.53 C1618.91,1173.78 1649.22,1175.35 1654.40,1176.34 C1659.02,1177.24 1673.53,1183.13 1676.95,1185.27 C1680.89,1187.77 1692.79,1200.12 1698.39,1206.29 C1704.65,1213.40 1712.10,1224.15 1714.87,1231.46 C1718.34,1240.88 1722.56,1254.32 1723.05,1256.28 C1724.73,1263.05 1725.72,1278.61 1725.96,1289.32 C1725.95,1305.97 1724.59,1347.37 1723.42,1356.39 C1722.64,1362.25 1718.50,1378.49 1717.80,1381.10 C1715.54,1389.59 1711.74,1397.81 1706.79,1406.27 C1702.23,1414.03 1693.41,1425.26 1688.04,1430.76 C1684.53,1434.26 1680.38,1437.75 1677.05,1439.55 C1673.86,1441.21 1665.74,1445.50 1664.48,1446.19 C1659.65,1448.80 1653.80,1451.01 1648.22,1451.90 C1642.62,1452.76 1628.65,1452.56 1616.76,1451.81 C1607.13,1451.02 1593.22,1448.34 1586.70,1445.88 C1583.59,1444.68 1577.89,1441.28 1575.30,1439.13 C1569.78,1434.51 1556.83,1420.08 1554.66,1417.33 C1549.56,1410.82 1542.69,1397.29 1540.12,1390.29 C1537.64,1383.46 1533.48,1368.97 1531.85,1360.75 C1528.39,1343.09 1526.51,1319.56 1526.54,1309.35 C1526.66,1300.73 1527.22,1280.38 1527.53,1276.53 C1528.28,1267.53 1531.13,1254.64 1532.53,1248.53 C1534.61,1240.07 1538.40,1228.05 1542.11,1221.72 C1545.76,1215.56 1555.16,1202.92 1559.53,1198.53 C1564.68,1193.41 1578.09,1184.23 1583.53,1181.53 C1590.32,1178.20 1602.25,1175.14 1609.53,1174.53 Z" fill="none" stroke="rgb(255, 255, 255)" stroke-width="24.80" stroke-opacity="1.00" stroke-linejoin="round"/>
<path d="M1135.53,1753.53 C1133.82,1747.78 1129.58,1733.53 1127.02,1725.58 C1123.66,1715.83 1118.49,1704.40 1114.21,1697.25 C1110.68,1691.40 1099.92,1677.79 1098.27,1675.78 C1091.81,1667.85 1084.81,1660.78 1078.26,1655.25 C1071.69,1649.73 1059.44,1641.18 1052.69,1636.73 C1045.32,1632.05 1032.51,1625.43 1024.90,1622.30 C1017.93,1619.44 1003.92,1614.85 995.73,1612.71 C988.63,1611.00 973.70,1607.92 966.13,1606.64 C958.59,1605.49 943.12,1603.98 935.28,1603.45 C928.04,1603.09 915.13,1602.53 906.35,1602.49 C900.83,1602.57 886.73,1603.47 879.64,1604.35 C872.29,1605.35 856.89,1607.77 850.67,1609.19 C843.60,1610.86 824.05,1615.63 824.05,1615.63 C816.91,1617.65 801.52,1624.59 794.62,1627.87 C783.77,1633.21 772.91,1639.04 765.62,1643.54 C758.50,1648.02 746.69,1657.72 740.83,1663.88 C735.38,1669.65 726.58,1680.86 722.34,1687.78 C718.52,1694.06 712.07,1707.46 709.33,1715.81 C708.06,1719.71 703.28,1736.97 702.67,1743.80 C702.48,1746.23 704.59,1766.76 705.53,1770.53 C706.59,1774.70 714.47,1796.60 716.29,1800.43 C718.99,1805.98 726.29,1814.63 733.57,1822.34 C739.79,1828.73 750.30,1838.08 757.29,1842.80 C762.20,1846.11 776.11,1854.06 783.66,1857.39 C787.56,1859.10 802.32,1864.86 810.20,1867.64 C824.03,1872.40 858.07,1881.11 872.60,1884.65 C889.81,1888.66 923.07,1896.59 939.13,1900.50 C955.70,1905.02 974.52,1911.81 980.24,1914.54 C983.59,1916.16 989.62,1920.43 991.89,1923.02 C994.21,1925.72 997.98,1931.89 999.34,1935.28 C1000.82,1939.06 1002.06,1945.28 1002.28,1949.52 C1002.44,1953.01 1002.02,1960.76 1001.58,1964.33 C1001.01,1968.70 999.35,1975.01 997.58,1978.34 C996.27,1980.75 991.60,1986.68 988.94,1988.82 C985.97,1991.15 979.59,1994.88 975.53,1996.56 C971.01,1998.41 955.09,2002.72 945.53,2003.56 C939.86,2004.04 922.21,2003.91 913.83,2003.59 C902.77,2002.93 890.39,2001.49 884.09,1999.64 C877.94,1997.79 866.37,1991.94 859.43,1987.42 C855.76,1985.01 850.50,1980.80 847.88,1978.15 C845.27,1975.46 840.42,1968.50 838.55,1964.56 C837.23,1961.75 833.61,1952.09 833.53,1951.56 C833.34,1950.30 833.46,1948.98 833.12,1947.76 C832.67,1946.22 831.25,1945.41 829.63,1945.41 C829.63,1945.41 736.77,1945.61 704.50,1945.54 C695.02,1945.51 687.83,1946.32 687.53,1946.56 C686.64,1947.36 686.91,1948.84 688.31,1951.67 C689.87,1954.77 691.92,1962.83 692.53,1964.56 C692.74,1965.16 702.97,1986.47 705.17,1990.56 C709.40,1998.37 718.23,2011.56 723.62,2017.82 C727.97,2022.85 740.18,2034.68 745.54,2039.08 C751.45,2043.93 763.62,2052.09 769.58,2055.80 C775.33,2059.29 790.72,2066.86 797.67,2070.21 C801.19,2071.89 817.24,2078.49 823.31,2080.49 C830.09,2082.69 844.98,2087.44 853.83,2089.51 C858.83,2090.67 875.83,2093.63 883.42,2094.74 C891.27,2095.74 909.78,2097.38 914.53,2097.56 C919.33,2097.73 937.56,2097.41 945.20,2096.96 C964.11,2095.51 990.73,2091.50 1006.46,2088.04 C1016.32,2085.67 1027.49,2082.17 1035.15,2079.13 C1046.21,2074.60 1050.58,2072.64 1060.47,2067.79 C1067.93,2064.05 1079.00,2056.85 1085.90,2051.35 C1091.58,2046.63 1105.10,2034.60 1109.56,2029.79 C1115.41,2023.44 1124.04,2011.08 1127.71,2003.54 C1130.16,1998.45 1135.85,1982.28 1137.73,1976.30 C1138.74,1973.00 1140.59,1964.64 1140.94,1961.26 C1141.55,1954.96 1139.90,1943.16 1137.21,1931.98 C1133.86,1918.65 1131.31,1910.21 1128.55,1905.11 C1126.72,1901.76 1115.95,1886.15 1112.26,1881.82 C1107.73,1876.55 1096.14,1866.13 1089.95,1861.40 C1083.62,1856.58 1070.81,1848.54 1064.11,1845.22 C1057.58,1842.00 1046.56,1837.67 1035.75,1833.89 C1023.29,1829.75 989.59,1820.03 973.82,1815.63 C941.67,1807.40 887.98,1794.99 883.45,1793.31 C881.38,1792.53 869.79,1788.37 860.81,1783.60 C856.49,1781.28 850.31,1776.59 848.06,1773.84 C845.85,1771.05 843.10,1764.80 842.25,1760.79 C840.92,1754.30 841.22,1738.22 842.13,1729.45 C842.36,1727.40 843.09,1723.92 843.75,1722.02 C844.57,1719.73 849.62,1714.40 851.69,1712.68 C855.88,1709.20 860.21,1705.87 863.58,1704.23 C869.00,1701.63 883.04,1698.84 891.64,1698.07 C898.28,1697.49 912.93,1697.37 922.39,1697.70 C933.08,1698.27 942.36,1699.28 950.05,1701.20 C952.79,1701.87 960.53,1703.89 961.34,1704.09 C964.86,1705.04 970.73,1708.75 973.98,1711.56 C980.49,1717.31 992.45,1729.70 995.53,1734.53 C997.13,1737.10 998.92,1740.84 999.30,1742.63 C999.39,1743.05 999.72,1746.53 1000.01,1748.49 C1000.24,1749.89 1001.23,1751.96 1002.11,1752.60 C1003.44,1753.50 1018.44,1753.60 1024.70,1753.63 C1058.58,1753.64 1123.91,1752.28 1128.80,1753.53" fill="none" stroke="rgb(255, 255, 255)" stroke-width="29.90" stroke-opacity="1.00" stroke-linejoin="round"/>
<path d="M1273.94,1556.14 C1276.31,1567.81 1281.51,1593.47 1282.58,1596.81 C1284.00,1601.09 1288.13,1609.07 1290.82,1612.71 C1293.55,1616.34 1300.39,1623.03 1304.26,1625.87 C1310.17,1630.16 1323.23,1636.72 1330.37,1639.29 C1337.52,1641.85 1353.81,1645.95 1362.94,1647.50 C1365.13,1647.86 1414.39,1654.86 1429.42,1657.12 C1438.34,1658.57 1459.12,1662.65 1466.32,1664.58 C1472.66,1666.30 1484.54,1671.18 1489.96,1673.84 C1496.49,1677.12 1507.68,1684.69 1513.87,1689.89 C1517.26,1692.77 1522.58,1698.03 1524.99,1700.92 C1527.28,1703.70 1531.33,1709.74 1532.40,1712.33 C1534.63,1717.84 1537.03,1727.94 1537.54,1734.03 C1538.24,1742.61 1538.67,1777.17 1537.91,1801.19 C1537.34,1816.80 1536.02,1850.67 1535.26,1868.94 C1534.19,1887.37 1530.74,1923.90 1529.05,1935.57 C1527.90,1942.57 1524.85,1958.49 1522.54,1966.63 C1519.55,1977.05 1512.43,1993.95 1508.30,2000.44 C1504.91,2005.71 1494.78,2016.59 1489.75,2020.99 C1484.69,2025.40 1472.92,2033.66 1467.63,2036.32 C1460.98,2039.64 1447.23,2044.71 1439.78,2046.60 C1433.96,2048.05 1416.48,2050.90 1408.44,2051.92 C1400.29,2052.75 1383.82,2053.90 1375.84,2053.75 C1367.97,2053.49 1351.93,2052.61 1343.76,2051.97 C1331.30,2050.82 1319.21,2049.02 1311.85,2046.93 C1304.53,2044.82 1290.49,2038.43 1285.18,2034.55 C1278.71,2029.77 1267.86,2018.17 1263.34,2011.21 C1259.32,2004.94 1251.86,1989.02 1249.45,1981.82 C1248.26,1978.22 1246.52,1971.56 1245.75,1967.65 C1245.07,1964.07 1244.67,1955.98 1244.81,1952.19 C1245.14,1944.32 1248.50,1930.09 1251.84,1921.93 C1254.82,1914.75 1262.45,1900.80 1266.27,1895.55 C1269.93,1890.57 1280.54,1879.21 1286.03,1874.39 C1292.07,1869.13 1304.15,1860.89 1311.66,1857.01 C1319.45,1853.01 1331.53,1848.31 1341.57,1844.99 C1356.20,1840.57 1393.52,1832.31 1405.74,1829.11 C1413.35,1826.94 1430.50,1821.32 1435.67,1819.32 C1444.42,1815.93 1460.43,1807.94 1467.30,1803.54 C1471.13,1801.09 1486.66,1789.68 1490.89,1786.10 C1496.60,1781.25 1507.23,1769.96 1510.35,1763.81 C1512.69,1759.10 1517.53,1744.34 1519.52,1735.34 C1521.74,1724.67 1526.25,1700.56 1526.70,1698.16" fill="none" stroke="rgb(255, 255, 255)" stroke-width="115.60" stroke-opacity="1.00" stroke-linejoin="miter"/>
<path d="M1266.63,1278.11 C1266.63,1278.11 1273.19,1523.39 1273.19,1523.39" fill="none" stroke="rgb(255, 255, 255)" stroke-width="110.85" stroke-opacity="1.00" stroke-linejoin="round"/>
<path d="M1032.03,1703.03 C1060.58,1708.82 1069.27,1709.71 1070.76,1709.49 C1071.78,1709.30 1072.25,1708.50 1071.62,1707.79 C1070.90,1707.02 1061.82,1701.39 1057.98,1698.40 C1054.35,1695.49 1042.90,1686.72 1038.09,1683.00 C1032.54,1678.61 1019.46,1668.20 1013.80,1665.08 C1010.06,1663.04 1001.69,1659.48 997.06,1657.95 C987.60,1654.88 969.86,1651.75 960.76,1650.82 C953.55,1650.24 938.26,1649.60 930.18,1649.55 C921.80,1649.68 904.18,1650.46 894.93,1651.12 C885.39,1651.96 866.86,1654.08 858.23,1655.34 C850.03,1656.73 833.81,1660.09 827.96,1661.71 C821.25,1663.57 808.00,1668.37 802.10,1671.49 C797.55,1673.93 789.71,1679.64 786.70,1682.71 C783.73,1685.80 779.45,1692.53 778.17,1696.12 C777.21,1698.90 774.10,1717.63 772.97,1724.30 C772.46,1727.30 770.59,1739.14 769.89,1752.43 C769.74,1757.55 769.86,1761.69 770.80,1764.65 C772.94,1771.13 780.67,1781.14 786.20,1787.03 C790.40,1791.33 800.02,1800.55 805.45,1805.44 C812.46,1811.61 824.88,1820.06 833.32,1824.33 C841.78,1828.59 858.96,1835.14 868.64,1838.16 C882.38,1842.19 910.45,1848.52 931.12,1852.17 C940.26,1853.55 958.48,1856.36 967.21,1857.95 C977.26,1860.06 992.36,1863.94 998.56,1865.96 C1005.68,1868.29 1018.13,1873.43 1024.22,1876.55 C1027.67,1878.34 1035.52,1883.19 1039.40,1886.14 C1043.14,1889.01 1049.65,1895.20 1052.43,1898.53 C1055.17,1901.86 1059.70,1908.98 1061.48,1912.76 C1063.66,1917.46 1069.31,1936.99 1070.66,1943.04 C1072.20,1949.96 1074.16,1963.83 1074.02,1969.46 C1073.89,1973.69 1072.77,1981.34 1071.78,1984.69 C1070.77,1988.04 1068.02,1993.51 1066.00,1996.30 C1062.09,2001.63 1049.48,2012.96 1043.28,2016.83 C1038.70,2019.66 1024.47,2027.56 1017.32,2031.20 C1006.53,2036.40 993.85,2041.95 985.96,2044.73 C978.14,2047.47 961.53,2051.79 954.60,2052.70 C945.56,2053.85 928.38,2054.27 919.92,2053.55 C916.28,2053.23 877.26,2048.13 862.45,2045.83 C855.90,2044.79 845.47,2041.26 834.03,2036.06 C829.68,2034.08 780.15,2009.38 769.13,2003.33 C762.00,1999.26 753.74,1993.33 752.03,1991.06 C751.30,1990.01 751.94,1988.34 753.52,1987.47 C756.20,1986.10 780.54,1989.29 790.93,1990.69 C794.56,1991.18 799.61,1991.87 801.03,1992.06" fill="none" stroke="rgb(255, 255, 255)" stroke-width="115.60" stroke-opacity="1.00" stroke-linejoin="miter"/>
<path d="M1017.03,1188.03 C1048.78,1186.28 1043.84,1185.81 1044.04,1185.34 C1044.04,1185.34 1057.99,1198.40 1050.48,1189.28 C1047.84,1186.08 1041.73,1183.41 1038.94,1180.48 C1031.63,1172.48 1014.89,1151.49 1012.00,1148.59 C1009.01,1145.62 1002.15,1140.24 998.29,1137.83 C990.52,1133.04 973.53,1126.54 964.63,1124.46 C958.06,1123.01 943.70,1121.00 935.90,1120.44 C929.59,1120.04 911.07,1119.79 902.17,1120.02 C889.28,1120.67 874.75,1122.23 866.44,1123.98 C858.14,1125.75 842.96,1130.86 836.07,1134.20 C829.20,1137.56 816.98,1145.76 811.77,1150.58 C806.68,1155.32 797.80,1166.23 794.02,1172.40 C790.25,1178.59 784.02,1192.40 781.56,1200.02 C779.55,1206.30 775.55,1224.17 774.00,1232.39 C772.66,1240.64 770.59,1257.20 769.87,1265.52 C769.35,1273.86 768.88,1294.45 769.03,1299.03 C769.18,1303.46 770.97,1323.87 772.02,1332.19 C773.26,1340.51 776.33,1357.21 778.17,1365.59 C780.20,1373.98 784.86,1390.79 787.42,1398.96 C790.08,1406.80 795.71,1421.57 798.72,1428.33 C801.76,1435.00 808.26,1447.03 811.72,1452.38 C815.90,1458.83 825.95,1470.52 832.39,1475.93 C835.60,1478.61 842.26,1483.20 845.70,1485.10 C852.66,1488.91 865.53,1492.78 874.79,1494.54 C882.20,1495.94 896.89,1497.62 904.16,1497.92 C912.57,1498.24 927.46,1497.22 935.22,1496.11 C943.22,1494.95 958.91,1491.42 966.75,1489.03 C974.46,1486.66 988.77,1481.09 995.38,1477.88 C1003.40,1473.97 1015.43,1466.30 1023.41,1459.57 C1029.50,1454.40 1038.49,1449.58 1044.44,1440.17 C1045.07,1439.18 1045.66,1438.14 1046.21,1437.05 C1046.66,1436.16 1047.08,1435.23 1047.47,1434.26 C1051.19,1425.05 1047.50,1428.76 1047.50,1428.76 C1046.84,1429.53 1053.58,1427.37 1051.83,1428.56 C1048.31,1430.93 1013.86,1427.32 1014.03,1437.03" fill="none" stroke="rgb(255, 255, 255)" stroke-width="106.01" stroke-opacity="1.00" stroke-linejoin="miter"/>
<path d="M1257.29,1116.09 C1264.08,1115.66 1260.25,1115.50 1265.23,1115.46 C1268.65,1115.43 1281.85,1119.75 1285.39,1120.12" fill="none" stroke="rgb(255, 255, 255)" stroke-width="102.86" stroke-opacity="1.00" stroke-linejoin="round"/>
<path d="M1616.03,1116.03 C1623.25,1114.94 1640.96,1114.57 1649.06,1115.34 C1657.16,1116.13 1672.46,1119.46 1680.74,1122.16 C1688.31,1124.64 1702.32,1130.72 1708.75,1134.30 C1716.19,1138.47 1726.20,1145.86 1732.30,1151.78 C1737.62,1156.95 1747.02,1168.48 1751.10,1174.82 C1755.01,1180.95 1762.26,1195.19 1765.40,1202.89 C1768.52,1210.61 1774.41,1228.97 1775.82,1235.56 C1777.30,1242.78 1779.89,1257.83 1781.00,1265.67 C1781.99,1273.71 1783.57,1290.41 1784.18,1299.08 C1784.65,1307.82 1785.05,1324.69 1784.99,1332.79 C1784.75,1340.68 1783.75,1355.79 1782.98,1363.02 C1781.91,1371.40 1778.06,1387.84 1775.35,1395.87 C1772.63,1403.88 1766.27,1417.58 1761.94,1424.80 C1757.48,1432.12 1749.66,1443.50 1745.21,1449.16 C1739.58,1456.29 1731.97,1464.28 1725.08,1470.19 C1719.44,1475.01 1707.32,1483.78 1701.25,1487.43 C1694.83,1491.27 1680.73,1496.99 1672.78,1498.98 C1663.70,1501.22 1651.04,1502.54 1641.88,1502.52 C1634.55,1502.49 1618.84,1501.33 1610.58,1500.31 C1598.91,1498.62 1584.78,1495.96 1576.68,1493.66 C1568.63,1491.36 1553.74,1485.44 1546.91,1481.83 C1539.18,1477.72 1527.41,1468.90 1521.92,1463.66 C1516.29,1458.26 1506.35,1446.06 1502.03,1439.26 C1499.43,1435.14 1490.42,1417.99 1487.06,1410.87 C1483.89,1403.76 1478.42,1389.60 1476.12,1382.55 C1474.19,1376.56 1470.71,1359.15 1469.74,1351.24 C1468.78,1343.33 1468.24,1330.48 1468.35,1319.73 C1468.59,1311.91 1469.27,1296.30 1469.72,1288.52 C1470.73,1275.54 1471.33,1270.57 1473.42,1257.78 C1474.81,1250.19 1477.79,1235.05 1479.39,1227.50 C1481.64,1217.65 1485.79,1205.30 1489.31,1198.34 C1492.86,1191.38 1502.68,1177.35 1507.45,1172.48 C1512.74,1167.12 1523.80,1157.76 1530.27,1153.17 C1536.76,1148.58 1551.30,1139.87 1559.22,1135.82 C1567.02,1131.84 1582.38,1125.31 1589.94,1122.75 C1597.50,1120.21 1611.92,1116.66 1616.03,1116.03 Z" fill="none" stroke="rgb(255, 255, 255)" stroke-width="106.01" stroke-opacity="1.00" stroke-linejoin="miter"/>
<path d="M1313.03,953.03 C1312.64,928.29 1311.72,866.54 1311.19,829.52 C1311.11,812.00 1311.17,775.98 1311.30,757.47 C1311.67,739.64 1312.83,697.22 1313.80,689.22 C1314.73,681.70 1317.85,668.02 1320.03,661.87 C1322.23,655.74 1328.54,643.62 1332.88,638.01 C1335.48,634.68 1341.31,628.73 1344.55,626.10 C1347.81,623.49 1354.95,618.97 1358.85,617.06 C1364.36,614.39 1385.02,607.86 1390.89,606.29 C1398.10,604.42 1412.60,601.80 1419.00,602.14 C1424.50,602.47 1432.65,604.79 1436.29,607.09 C1439.93,609.42 1443.99,610.68 1445.69,610.05 C1446.45,609.73 1448.03,608.26 1448.50,607.39 C1449.56,605.27 1450.09,598.23 1449.75,591.61 C1449.52,587.27 1449.17,579.95 1449.03,577.00" fill="none" stroke="rgb(255, 255, 255)" stroke-width="134.30" stroke-opacity="1.00" stroke-linejoin="miter"/>
<path d="M1643.03,574.00 C1643.03,574.00 1641.03,973.03 1641.03,973.03" fill="none" stroke="rgb(255, 255, 255)" stroke-width="110.85" stroke-opacity="1.00" stroke-linejoin="round"/>
<path d="M816.03,763.03 C840.48,762.55 901.44,761.36 937.97,760.65 C978.29,759.91 1048.01,758.70 1077.42,758.24 C1083.03,758.17 1094.44,758.07 1105.12,757.40 C1106.96,757.25 1108.65,756.72 1109.51,755.93 C1110.33,755.12 1111.70,752.18 1111.86,750.92 C1111.97,749.86 1109.06,735.94 1107.50,729.51 C1105.63,722.37 1100.48,704.22 1098.01,697.57 C1094.86,689.17 1086.89,672.84 1082.07,664.90 C1077.87,658.03 1067.69,644.68 1062.39,638.71 C1057.07,632.74 1046.08,621.91 1038.87,615.54 C1033.67,611.08 1018.03,598.88 1012.30,594.98 C1005.72,590.52 992.76,582.97 986.38,579.89 C978.78,576.33 964.45,571.62 956.83,570.17 C949.22,568.75 934.66,568.14 926.98,568.91 C919.58,569.67 904.71,572.85 897.18,575.27 C888.21,578.19 877.43,583.11 869.47,587.76 C863.16,591.45 850.45,600.10 844.06,604.93 C835.22,611.89 824.87,620.82 819.09,626.79 C813.34,632.75 803.04,645.59 798.50,652.46 C793.29,660.36 786.89,673.52 784.51,679.39 C781.79,686.14 777.25,700.29 775.43,707.69 C773.62,715.08 770.85,730.81 770.04,738.52 C769.23,746.44 768.75,762.59 769.08,770.81 C769.43,779.03 771.41,797.21 772.77,803.83 C774.43,811.46 778.46,826.89 780.83,834.69 C783.43,842.54 789.35,858.42 792.66,866.44 C796.20,874.52 803.80,890.37 807.71,897.79 C811.66,904.94 819.78,918.06 823.97,923.88 C828.16,929.68 837.54,940.74 842.28,945.13 C848.79,951.12 862.32,960.31 869.30,963.49 C876.32,966.65 890.07,969.95 898.23,970.74 C905.75,971.44 921.43,971.12 929.60,970.09 C938.50,968.94 954.21,965.01 960.90,962.88 C967.61,960.74 982.94,954.81 992.70,950.54 C1002.13,946.11 1044.68,935.61 1048.94,922.62 C1052.08,913.04 1064.48,911.36 1073.01,908.99 C1089.17,904.50 1086.87,903.37 1088.03,903.03" fill="none" stroke="rgb(255, 255, 255)" stroke-width="106.01" stroke-opacity="1.00" stroke-linejoin="miter"/>
<path d="M471.62,1105.58 C470.76,1107.04 480.17,1143.37 484.26,1158.40 C488.14,1172.76 496.08,1201.78 500.16,1216.45 C503.62,1229.32 505.23,1236.13 506.13,1239.65" fill="none" stroke="rgb(255, 255, 255)" stroke-width="23.63" stroke-opacity="1.00" stroke-linejoin="round"/>
<path d="M480.39,1156.12 C480.39,1156.12 480.49,1156.11 480.49,1156.11" fill="none" stroke="rgb(255, 255, 255)" stroke-width="23.63" stroke-opacity="1.00" stroke-linejoin="round"/>
<path d="M536.01,1158.91 C536.01,1158.91 537.23,1160.19 537.23,1160.19" fill="none" stroke="rgb(255, 255, 255)" stroke-width="23.63" stroke-opacity="1.00" stroke-linejoin="round"/>
<path d="M535.78,1159.27 C535.55,1159.68 535.27,1160.02 534.95,1160.31 C533.68,1161.42 518.04,1171.82 511.98,1176.06 C501.10,1184.09 473.15,1205.22 467.37,1209.29 C457.71,1216.06 441.57,1224.39 438.85,1225.72" fill="none" stroke="rgb(255, 255, 255)" stroke-width="23.63" stroke-opacity="1.00" stroke-linejoin="round"/>
<path d="M504.62,1239.53 C502.51,1237.82 491.54,1229.13 487.06,1225.71 C479.16,1219.45 454.56,1198.91 447.51,1193.00" fill="none" stroke="rgb(255, 255, 255)" stroke-width="23.63" stroke-opacity="1.00" stroke-linejoin="round"/>
<path d="M463.32,1163.25 C477.70,1163.68 506.09,1164.71 517.09,1163.51 C518.75,1163.31 519.89,1163.19 520.51,1163.15 C521.15,1163.10 522.46,1163.03 524.44,1162.93" fill="none" stroke="rgb(255, 255, 255)" stroke-width="23.63" stroke-opacity="1.00" stroke-linejoin="round"/>
<path d="M472.12,1106.33 C471.89,1107.04 471.67,1107.75 471.44,1108.45 C470.03,1112.92 449.52,1184.49 446.04,1195.52" fill="none" stroke="rgb(255, 255, 255)" stroke-width="23.63" stroke-opacity="1.00" stroke-linejoin="round"/>
<path d="M436.24,1224.77 C437.49,1223.92 454.07,1206.46 456.55,1204.07 C459.49,1201.26 475.68,1188.35 476.02,1188.07 C476.35,1187.80 476.96,1187.28 477.85,1186.51" fill="none" stroke="rgb(255, 255, 255)" stroke-width="23.63" stroke-opacity="1.00" stroke-linejoin="round"/>
<path d="M454.19,1203.92 C454.19,1203.92 454.54,1203.34 454.54,1203.34 C455.14,1202.58 483.04,1173.79 484.34,1172.54 C483.38,1174.86 479.17,1182.03 478.11,1184.11 C476.88,1186.54 474.95,1192.38 474.79,1194.62 C474.70,1195.92 475.31,1197.04 476.72,1198.61 C478.38,1198.84 482.13,1197.29 484.16,1195.53 C493.73,1187.02 498.97,1173.75 499.10,1172.46 C499.10,1172.46 498.22,1171.34 498.22,1171.34 C496.13,1171.50 492.79,1175.56 492.06,1177.58 C491.38,1179.68 491.73,1180.95 492.44,1182.54 C494.26,1183.33 495.43,1183.59 496.51,1183.26 C498.62,1182.59 502.19,1179.90 503.98,1177.81 C504.96,1176.65 507.82,1171.91 507.63,1170.46 C507.57,1170.06 507.21,1169.47 506.55,1168.69 C504.51,1168.36 503.35,1168.34 502.18,1168.78 C499.34,1169.85 495.05,1172.51 492.88,1174.75 C488.12,1179.75 485.35,1186.69 485.03,1187.79 C482.21,1181.82 480.50,1178.66 478.52,1176.43 C476.52,1174.24 471.40,1170.92 469.03,1170.54 C466.84,1170.22 462.35,1170.79 460.52,1171.75 C458.55,1172.81 455.13,1177.21 454.59,1178.53 C453.43,1181.58 453.71,1185.90 454.86,1187.55 C455.98,1189.03 459.28,1190.27 461.04,1189.79 C462.69,1189.30 465.57,1186.42 466.51,1184.41 C467.57,1182.05 468.48,1177.24 468.22,1175.06 C467.95,1173.12 465.61,1169.99 463.78,1168.91 C462.00,1167.91 457.94,1168.32 456.32,1169.86 C454.64,1171.54 452.77,1177.12 452.88,1179.83 C453.05,1182.56 455.45,1186.90 457.44,1188.06 C459.31,1189.09 463.03,1188.24 464.56,1186.67 C465.74,1185.41 467.55,1181.28 468.08,1178.90 C468.69,1176.00 468.77,1171.31 468.31,1168.68 C467.83,1166.05 465.97,1159.12 466.22,1158.46 C466.22,1158.46 468.33,1158.30 468.33,1158.30 C469.79,1157.41 470.97,1153.57 471.22,1150.51 C471.51,1146.20 470.05,1134.05 470.23,1131.65 C470.63,1132.11 470.51,1136.47 471.65,1137.95 C472.02,1138.42 473.02,1139.61 473.30,1140.18 C471.65,1145.77 469.81,1154.97 469.17,1161.63 C468.74,1165.98 468.14,1168.46 466.62,1169.48 C463.91,1171.18 454.83,1173.02 452.81,1173.41" fill="none" stroke="rgb(255, 255, 255)" stroke-width="23.63" stroke-opacity="1.00" stroke-linejoin="round"/>
<path d="M442.32,1175.79 C442.32,1175.79 442.49,1174.78 442.25,1174.18 C441.37,1172.13 435.04,1168.29 434.51,1168.73 C434.93,1170.51 441.04,1175.04 451.35,1182.32 C456.44,1185.99 466.39,1194.51 470.39,1198.62 C478.17,1206.65 490.35,1221.96 490.76,1222.37 C486.24,1214.57 482.48,1206.30 482.66,1203.86 C482.66,1203.86 490.99,1212.97 490.99,1212.97 C490.99,1212.97 483.76,1197.43 483.76,1197.43 C483.76,1197.43 494.62,1218.51 494.62,1218.51" fill="none" stroke="rgb(255, 255, 255)" stroke-width="23.63" stroke-opacity="1.00" stroke-linejoin="round"/>
<path d="M445.59,1177.11 C445.59,1178.20 445.56,1179.07 445.51,1179.71 C445.46,1180.36 445.32,1181.68 445.08,1183.67" fill="none" stroke="rgb(255, 255, 255)" stroke-width="23.63" stroke-opacity="1.00" stroke-linejoin="round"/>
<path d="M432.30,1232.75 C431.95,1233.64 431.57,1234.43 431.57,1234.43 C431.57,1234.43 431.20,1234.87 430.87,1235.07" fill="none" stroke="rgb(255, 255, 255)" stroke-width="23.63" stroke-opacity="1.00" stroke-linejoin="round"/>
<path d="M433.59,1231.89 C435.03,1231.27 436.00,1230.84 436.50,1230.60 C438.73,1229.51 453.13,1219.12 455.78,1217.41 C461.74,1213.66 476.22,1204.62 479.12,1202.99 C482.54,1201.08 487.21,1198.48 488.46,1197.78" fill="none" stroke="rgb(255, 255, 255)" stroke-width="23.63" stroke-opacity="1.00" stroke-linejoin="round"/>
<path d="M533.85,1159.95 C532.48,1160.21 529.59,1160.44 526.13,1160.60 C518.44,1160.93 499.95,1161.83 495.94,1162.20 C492.57,1162.51 473.73,1165.12 473.73,1165.12 C473.73,1165.12 473.19,1165.16 472.86,1165.16" fill="none" stroke="rgb(255, 255, 255)" stroke-width="15.20" stroke-opacity="1.00" stroke-linejoin="round"/>
<path d="M400.90,1154.32 C401.05,1154.79 413.48,1166.98 419.02,1172.39 C425.71,1178.79 435.03,1187.07 440.02,1190.89 C444.50,1194.30 446.41,1195.29 447.80,1195.83" fill="none" stroke="rgb(255, 255, 255)" stroke-width="15.20" stroke-opacity="1.00" stroke-linejoin="round"/>
<path d="M400.53,1155.20 C400.53,1155.20 401.63,1155.43 403.82,1155.67 C418.25,1157.18 454.20,1160.76 461.18,1160.94 C463.08,1160.99 476.66,1161.11 478.02,1161.16 C478.55,1161.19 479.08,1161.21 479.61,1161.24" fill="none" stroke="rgb(255, 255, 255)" stroke-width="15.20" stroke-opacity="1.00" stroke-linejoin="round"/>
<path d="M411.75,1158.73 C412.02,1159.06 415.36,1159.69 420.82,1160.46 C446.62,1163.95 461.13,1165.26 462.31,1165.31 C462.31,1165.31 442.94,1163.67 438.48,1162.96 C431.93,1161.84 423.94,1160.47 421.84,1160.84 C421.84,1160.84 421.89,1162.06 421.89,1162.06 C422.66,1163.10 426.57,1166.12 427.97,1166.85 C432.05,1168.92 443.91,1172.70 447.95,1173.78 C442.70,1172.46 426.87,1168.14 419.38,1166.06 C417.86,1165.62 416.99,1165.60 415.75,1165.85 C416.35,1167.67 420.64,1170.99 421.07,1171.27 C427.83,1175.58 447.94,1181.90 450.36,1182.58 C440.96,1179.42 420.76,1167.31 416.39,1164.88 C415.87,1166.00 427.56,1174.15 433.89,1177.19 C440.42,1180.31 449.62,1182.93 448.71,1182.87 C448.71,1182.87 447.32,1182.58 444.98,1182.04" fill="none" stroke="rgb(255, 255, 255)" stroke-width="15.20" stroke-opacity="1.00" stroke-linejoin="round"/>
<path d="M442.41,1178.77 C442.41,1178.77 442.42,1178.82 442.42,1178.82 C442.34,1179.42 442.24,1180.02 442.17,1180.62 C441.19,1189.29 433.05,1227.76 433.66,1230.78 C434.04,1227.82 439.06,1215.63 442.36,1209.22 C446.69,1201.11 457.09,1184.21 458.54,1181.83 C459.10,1180.88 459.56,1179.89 460.21,1178.37" fill="none" stroke="rgb(255, 255, 255)" stroke-width="15.20" stroke-opacity="1.00" stroke-linejoin="round"/>
<path d="M648.69,1307.49 C648.69,1307.49 289.91,1305.18 289.91,1305.18" fill="none" stroke="rgb(255, 255, 255)" stroke-width="25.80" stroke-opacity="1.00" stroke-linejoin="round"/>
<path d="M2270.48,1305.68 C2270.48,1305.68 1917.63,1307.14 1917.63,1307.14" fill="none" stroke="rgb(255, 255, 255)" stroke-width="25.80" stroke-opacity="1.00" stroke-linejoin="round"/>
<path d="M1618.33,431.49 C1618.33,431.49 1661.40,438.22 1661.40,438.22" fill="none" stroke="rgb(255, 255, 255)" stroke-width="78.72" stroke-opacity="1.00" stroke-linejoin="round"/>
<path d="M2064.07,1139.02 C2065.98,1138.31 2067.52,1135.69 2070.12,1128.84 C2071.61,1124.98 2076.98,1119.02 2080.17,1116.99 C2083.23,1115.12 2090.86,1112.31 2094.89,1111.58 C2099.00,1110.88 2106.28,1111.62 2109.21,1113.02 C2112.08,1114.46 2116.90,1119.71 2118.73,1123.39 C2120.54,1127.15 2122.51,1134.88 2122.54,1138.39 C2122.52,1141.85 2120.49,1148.43 2118.56,1151.37 C2117.62,1152.77 2103.00,1168.61 2098.25,1174.17 C2091.75,1181.91 2083.46,1194.10 2080.56,1200.45 C2080.56,1200.45 2077.82,1206.83 2077.23,1207.87 C2076.46,1209.18 2074.60,1210.91 2073.72,1211.09 C2072.84,1211.23 2070.70,1210.23 2069.70,1209.24 C2068.95,1208.47 2063.00,1200.82 2058.86,1196.98 C2051.03,1189.79 2026.07,1175.02 2019.34,1171.25 C2015.69,1169.14 2010.10,1164.40 2007.60,1161.31 C2005.57,1158.76 2001.90,1152.17 2000.44,1148.44 C1998.87,1144.32 1997.71,1137.66 1998.05,1134.51 C1998.27,1132.84 1999.20,1130.14 2000.09,1128.66 C2001.86,1125.86 2007.59,1121.62 2011.60,1119.91 C2015.07,1118.47 2021.87,1117.25 2025.47,1117.58 C2029.15,1117.96 2035.19,1120.53 2039.28,1122.98 C2046.39,1127.31 2057.51,1137.31 2058.89,1138.18 C2060.32,1139.05 2062.82,1139.41 2064.07,1139.02 Z" fill="none" stroke="rgb(255, 255, 255)" stroke-width="12.77" stroke-opacity="1.00" stroke-linejoin="miter"/>
<path d="M2020.97,1141.25 C2040.31,1153.97 2053.26,1163.94 2058.79,1169.52 C2060.70,1171.46 2066.49,1178.27 2068.19,1179.86 C2068.94,1180.53 2070.00,1180.76 2069.91,1180.04 C2069.79,1178.97 2068.19,1174.08 2068.53,1172.20 C2069.23,1168.37 2074.95,1160.42 2076.91,1158.26 C2079.72,1155.21 2092.81,1143.39 2096.01,1140.51" fill="none" stroke="rgb(255, 255, 255)" stroke-width="54.45" stroke-opacity="1.00" stroke-linejoin="miter"/>
</g>
</svg>
